NotoSansKhmerUI-Bold.ufo
<glyph name="exclam" format="2">
  <advance width="300"/>
  <unicode hex="0021"/>
  <note>
exclam
</note>
  <outline>
    <contour>
      <point x="235" y="510" type="line"/>
      <point x="260" y="958" type="line"/>
      <point x="41" y="958" type="line"/>
      <point x="66" y="510" type="line"/>
    </contour>
    <contour>
      <point x="45" y="327" type="curve" smooth="yes"/>
      <point x="45" y="263"/>
      <point x="87" y="232"/>
      <point x="150" y="232" type="curve" smooth="yes"/>
      <point x="211" y="232"/>
      <point x="254" y="263"/>
      <point x="254" y="327" type="curve" smooth="yes"/>
      <point x="254" y="394"/>
      <point x="211" y="423"/>
      <point x="150" y="423" type="curve" smooth="yes"/>
      <point x="87" y="423"/>
      <point x="45" y="394"/>
    </contour>
  </outline>
</glyph>
<glyph name="parenleft" format="2">
  <advance width="370"/>
  <unicode hex="0028"/>
  <note>
parenleft
</note>
  <outline>
    <contour>
      <point x="40" y="518" type="curve" smooth="yes"/>
      <point x="40" y="353"/>
      <point x="88" y="201"/>
      <point x="187" y="86" type="curve"/>
      <point x="339" y="86" type="line"/>
      <point x="251" y="206"/>
      <point x="203" y="363"/>
      <point x="203" y="519" type="curve" smooth="yes"/>
      <point x="203" y="678"/>
      <point x="251" y="834"/>
      <point x="340" y="958" type="curve"/>
      <point x="187" y="958" type="line"/>
      <point x="88" y="839"/>
      <point x="40" y="686"/>
    </contour>
  </outline>
</glyph>
<glyph name="parenright" format="2">
  <advance width="370"/>
  <unicode hex="0029"/>
  <note>
parenright
</note>
  <outline>
    <contour>
      <point x="330" y="518" type="curve" smooth="yes"/>
      <point x="330" y="686"/>
      <point x="282" y="839"/>
      <point x="183" y="958" type="curve"/>
      <point x="30" y="958" type="line"/>
      <point x="119" y="834"/>
      <point x="167" y="678"/>
      <point x="167" y="519" type="curve" smooth="yes"/>
      <point x="167" y="363"/>
      <point x="119" y="206"/>
      <point x="31" y="86" type="curve"/>
      <point x="183" y="86" type="line"/>
      <point x="282" y="201"/>
      <point x="330" y="353"/>
    </contour>
  </outline>
</glyph>
<glyph name="comma" format="2">
  <advance width="322"/>
  <unicode hex="002C"/>
  <note>
comma
</note>
  <outline>
    <contour>
      <point x="243" y="360" type="line"/>
      <point x="71" y="360" type="line"/>
      <point x="60" y="288"/>
      <point x="44" y="206"/>
      <point x="23" y="115" type="curve"/>
      <point x="164" y="115" type="line"/>
      <point x="204" y="202"/>
      <point x="233" y="280"/>
      <point x="250" y="349" type="curve"/>
    </contour>
  </outline>
</glyph>
<glyph name="period" format="2">
  <advance width="299"/>
  <unicode hex="002E"/>
  <note>
period
</note>
  <outline>
    <contour>
      <point x="45" y="327" type="curve" smooth="yes"/>
      <point x="45" y="263"/>
      <point x="87" y="232"/>
      <point x="151" y="232" type="curve" smooth="yes"/>
      <point x="211" y="232"/>
      <point x="254" y="263"/>
      <point x="254" y="327" type="curve" smooth="yes"/>
      <point x="254" y="392"/>
      <point x="212" y="423"/>
      <point x="151" y="423" type="curve" smooth="yes"/>
      <point x="87" y="423"/>
      <point x="45" y="394"/>
    </contour>
  </outline>
</glyph>
<glyph name="slash" format="2">
  <advance width="445"/>
  <unicode hex="002F"/>
  <note>
slash
</note>
  <outline>
    <contour>
      <point x="5" y="244" type="line"/>
      <point x="178" y="244" type="line"/>
      <point x="444" y="958" type="line"/>
      <point x="271" y="958" type="line"/>
    </contour>
  </outline>
</glyph>
<glyph name="colon" format="2">
  <advance width="289"/>
  <unicode hex="003A"/>
  <note>
colon
</note>
  <outline>
    <contour>
      <point x="42" y="325" type="curve"/>
      <point x="42" y="259"/>
      <point x="89" y="232"/>
      <point x="146" y="232" type="curve" smooth="yes"/>
      <point x="200" y="232"/>
      <point x="246" y="259"/>
      <point x="246" y="325" type="curve" smooth="yes"/>
      <point x="246" y="394"/>
      <point x="200" y="419"/>
      <point x="146" y="419" type="curve" smooth="yes"/>
      <point x="89" y="419"/>
      <point x="42" y="394"/>
    </contour>
    <contour>
      <point x="42" y="711" type="curve"/>
      <point x="42" y="644"/>
      <point x="89" y="617"/>
      <point x="146" y="617" type="curve" smooth="yes"/>
      <point x="200" y="617"/>
      <point x="246" y="644"/>
      <point x="246" y="711" type="curve" smooth="yes"/>
      <point x="246" y="779"/>
      <point x="200" y="804"/>
      <point x="146" y="804" type="curve" smooth="yes"/>
      <point x="89" y="804"/>
      <point x="42" y="779"/>
    </contour>
  </outline>
</glyph>
<glyph name="semicolon" format="2">
  <advance width="297"/>
  <unicode hex="003B"/>
  <note>
semicolon
</note>
  <outline>
    <contour>
      <point x="243" y="390" type="line"/>
      <point x="76" y="390" type="line"/>
      <point x="67" y="310"/>
      <point x="47" y="196"/>
      <point x="28" y="105" type="curve"/>
      <point x="164" y="105" type="line"/>
      <point x="197" y="179"/>
      <point x="232" y="307"/>
      <point x="250" y="379" type="curve"/>
    </contour>
    <contour>
      <point x="45" y="711" type="curve"/>
      <point x="45" y="644"/>
      <point x="91" y="617"/>
      <point x="148" y="617" type="curve" smooth="yes"/>
      <point x="202" y="617"/>
      <point x="249" y="644"/>
      <point x="249" y="711" type="curve" smooth="yes"/>
      <point x="249" y="779"/>
      <point x="202" y="804"/>
      <point x="148" y="804" type="curve" smooth="yes"/>
      <point x="91" y="804"/>
      <point x="45" y="779"/>
    </contour>
  </outline>
</glyph>
<glyph name="question" format="2">
  <advance width="505"/>
  <unicode hex="003F"/>
  <note>
question
</note>
  <outline>
    <contour>
      <point x="144" y="496" type="line"/>
      <point x="294" y="496" type="line"/>
      <point x="294" y="521" type="line" smooth="yes"/>
      <point x="294" y="552"/>
      <point x="312" y="568"/>
      <point x="371" y="606" type="curve" smooth="yes"/>
      <point x="454" y="659"/>
      <point x="487" y="713"/>
      <point x="487" y="790" type="curve" smooth="yes"/>
      <point x="487" y="897"/>
      <point x="402" y="968"/>
      <point x="254" y="968" type="curve" smooth="yes"/>
      <point x="156" y="968"/>
      <point x="73" y="941"/>
      <point x="0" y="899" type="curve"/>
      <point x="68" y="766" type="line"/>
      <point x="133" y="800"/>
      <point x="191" y="818"/>
      <point x="240" y="818" type="curve" smooth="yes"/>
      <point x="280" y="818"/>
      <point x="307" y="801"/>
      <point x="307" y="774" type="curve" smooth="yes"/>
      <point x="307" y="747"/>
      <point x="299" y="725"/>
      <point x="233" y="683" type="curve" smooth="yes"/>
      <point x="163" y="639"/>
      <point x="144" y="598"/>
      <point x="144" y="538" type="curve" smooth="yes"/>
    </contour>
    <contour>
      <point x="123" y="325" type="curve" smooth="yes"/>
      <point x="123" y="259"/>
      <point x="169" y="232"/>
      <point x="226" y="232" type="curve" smooth="yes"/>
      <point x="281" y="232"/>
      <point x="327" y="259"/>
      <point x="327" y="325" type="curve" smooth="yes"/>
      <point x="327" y="394"/>
      <point x="281" y="419"/>
      <point x="226" y="419" type="curve" smooth="yes"/>
      <point x="169" y="419"/>
      <point x="123" y="394"/>
    </contour>
  </outline>
</glyph>
<glyph name="guillemotleft" format="2">
  <advance width="681"/>
  <unicode hex="00AB"/>
  <note>
guillemotleft
</note>
  <outline>
    <contour>
      <point x="36" y="531" type="line"/>
      <point x="36" y="518" type="line"/>
      <point x="226" y="283" type="line"/>
      <point x="363" y="355" type="line"/>
      <point x="230" y="525" type="line"/>
      <point x="363" y="694" type="line"/>
      <point x="226" y="767" type="line"/>
    </contour>
    <contour>
      <point x="317" y="531" type="line"/>
      <point x="317" y="518" type="line"/>
      <point x="506" y="283" type="line"/>
      <point x="644" y="355" type="line"/>
      <point x="510" y="525" type="line"/>
      <point x="644" y="694" type="line"/>
      <point x="506" y="767" type="line"/>
    </contour>
  </outline>
</glyph>
<glyph name="uni00AD" format="2">
  <advance width="322"/>
  <unicode hex="00AD"/>
  <note>
uni00AD
</note>
  <outline>
    <contour>
      <point x="22" y="679" type="line"/>
      <point x="300" y="679" type="line"/>
      <point x="300" y="833" type="line"/>
      <point x="22" y="833" type="line"/>
    </contour>
  </outline>
</glyph>
<glyph name="guillemotright" format="2">
  <advance width="681"/>
  <unicode hex="00BB"/>
  <note>
guillemotright
</note>
  <outline>
    <contour>
      <point x="645" y="518" type="line"/>
      <point x="645" y="531" type="line"/>
      <point x="456" y="767" type="line"/>
      <point x="317" y="694" type="line"/>
      <point x="451" y="525" type="line"/>
      <point x="317" y="355" type="line"/>
      <point x="456" y="283" type="line"/>
    </contour>
    <contour>
      <point x="364" y="518" type="line"/>
      <point x="364" y="531" type="line"/>
      <point x="175" y="767" type="line"/>
      <point x="37" y="694" type="line"/>
      <point x="170" y="525" type="line"/>
      <point x="37" y="355" type="line"/>
      <point x="175" y="283" type="line"/>
    </contour>
  </outline>
</glyph>
<glyph name="uni1780" format="2">
  <advance width="709"/>
  <unicode hex="1780"/>
  <note>
uni1780
</note>
  <outline>
    <contour>
      <point x="90" y="668" type="line"/>
      <point x="619" y="668" type="line"/>
      <point x="619" y="780" type="line"/>
      <point x="90" y="780" type="line"/>
    </contour>
    <contour>
      <point x="90" y="244" type="line"/>
      <point x="271" y="244" type="line"/>
      <point x="271" y="460" type="line" smooth="yes"/>
      <point x="271" y="493"/>
      <point x="302" y="522"/>
      <point x="354" y="522" type="curve" smooth="yes"/>
      <point x="406" y="522"/>
      <point x="438" y="493"/>
      <point x="438" y="460" type="curve" smooth="yes"/>
      <point x="438" y="244" type="line"/>
      <point x="619" y="244" type="line"/>
      <point x="619" y="460" type="line" smooth="yes"/>
      <point x="619" y="568"/>
      <point x="526" y="634"/>
      <point x="354" y="634" type="curve" smooth="yes"/>
      <point x="183" y="634"/>
      <point x="90" y="568"/>
      <point x="90" y="460" type="curve" smooth="yes"/>
    </contour>
  </outline>
</glyph>
<glyph name="uni1781" format="2">
  <advance width="709"/>
  <unicode hex="1781"/>
  <note>
uni1781
</note>
  <outline>
    <contour>
      <point x="354" y="244" type="curve" smooth="yes"/>
      <point x="526" y="244"/>
      <point x="619" y="290"/>
      <point x="619" y="402" type="curve" smooth="yes"/>
      <point x="619" y="448" type="line"/>
      <point x="438" y="448" type="line"/>
      <point x="438" y="402" type="line" smooth="yes"/>
      <point x="438" y="373"/>
      <point x="405" y="356"/>
      <point x="354" y="356" type="curve" smooth="yes"/>
      <point x="305" y="356"/>
      <point x="271" y="373"/>
      <point x="271" y="402" type="curve" smooth="yes"/>
      <point x="271" y="422" type="line"/>
      <point x="313" y="435" type="line" smooth="yes"/>
      <point x="537" y="504"/>
      <point x="619" y="523"/>
      <point x="619" y="630" type="curve" smooth="yes"/>
      <point x="619" y="734"/>
      <point x="526" y="780"/>
      <point x="354" y="780" type="curve" smooth="yes"/>
      <point x="179" y="780"/>
      <point x="90" y="743"/>
      <point x="90" y="648" type="curve" smooth="yes"/>
      <point x="90" y="585"/>
      <point x="140" y="555"/>
      <point x="211" y="555" type="curve" smooth="yes"/>
      <point x="306" y="555" type="line"/>
      <point x="306" y="618" type="line"/>
      <point x="282" y="618"/>
      <point x="275" y="624"/>
      <point x="275" y="638" type="curve" smooth="yes"/>
      <point x="275" y="659"/>
      <point x="305" y="668"/>
      <point x="354" y="668" type="curve" smooth="yes"/>
      <point x="405" y="668"/>
      <point x="438" y="651"/>
      <point x="438" y="622" type="curve" smooth="yes"/>
      <point x="438" y="577"/>
      <point x="396" y="557"/>
      <point x="308" y="539" type="curve" smooth="yes"/>
      <point x="90" y="495" type="line"/>
      <point x="90" y="402" type="line" smooth="yes"/>
      <point x="90" y="290"/>
      <point x="183" y="244"/>
    </contour>
  </outline>
</glyph>
<glyph name="uni1785" format="2">
  <advance width="718"/>
  <unicode hex="1785"/>
  <note>
uni1785
</note>
  <outline>
    <contour>
      <point x="628" y="400" type="line"/>
      <point x="447" y="400" type="line"/>
      <point x="447" y="389" type="line" smooth="yes"/>
      <point x="447" y="373"/>
      <point x="422" y="356"/>
      <point x="363" y="356" type="curve" smooth="yes"/>
      <point x="304" y="356"/>
      <point x="280" y="373"/>
      <point x="280" y="389" type="curve" smooth="yes"/>
      <point x="280" y="568" type="line"/>
      <point x="199" y="615"/>
      <point x="177" y="644"/>
      <point x="177" y="651" type="curve" smooth="yes"/>
      <point x="177" y="656"/>
      <point x="180" y="663"/>
      <point x="189" y="668" type="curve"/>
      <point x="628" y="668" type="line"/>
      <point x="628" y="780" type="line"/>
      <point x="136" y="780" type="line"/>
      <point x="74" y="710"/>
      <point x="50" y="692"/>
      <point x="50" y="660" type="curve" smooth="yes"/>
      <point x="50" y="646"/>
      <point x="76" y="610"/>
      <point x="99" y="578" type="curve"/>
      <point x="99" y="392" type="line" smooth="yes"/>
      <point x="99" y="297"/>
      <point x="187" y="244"/>
      <point x="363" y="244" type="curve" smooth="yes"/>
      <point x="538" y="244"/>
      <point x="628" y="297"/>
      <point x="628" y="392" type="curve" smooth="yes"/>
    </contour>
    <contour>
      <point x="628" y="392" type="line"/>
      <point x="628" y="557" type="line" smooth="yes"/>
      <point x="628" y="598"/>
      <point x="582" y="628"/>
      <point x="511" y="628" type="curve" smooth="yes"/>
      <point x="392" y="628"/>
      <point x="334" y="577"/>
      <point x="334" y="505" type="curve" smooth="yes"/>
      <point x="334" y="447"/>
      <point x="379" y="405"/>
      <point x="447" y="405" type="curve"/>
      <point x="447" y="392" type="line"/>
    </contour>
    <contour>
      <point x="447" y="480" type="line"/>
      <point x="435" y="480"/>
      <point x="423" y="489"/>
      <point x="423" y="510" type="curve" smooth="yes"/>
      <point x="423" y="529"/>
      <point x="435" y="539"/>
      <point x="447" y="539" type="curve"/>
    </contour>
  </outline>
</glyph>
<glyph name="uni1787" format="2">
  <advance width="729"/>
  <unicode hex="1787"/>
  <note>
uni1787
</note>
  <outline>
    <contour>
      <point x="109" y="244" type="line"/>
      <point x="261" y="244" type="line"/>
      <point x="374" y="327" type="line"/>
      <point x="487" y="244" type="line"/>
      <point x="639" y="244" type="line"/>
      <point x="639" y="578" type="line"/>
      <point x="458" y="578" type="line"/>
      <point x="458" y="409" type="line"/>
      <point x="374" y="467" type="line"/>
      <point x="290" y="408" type="line"/>
      <point x="290" y="528" type="line"/>
      <point x="254" y="545"/>
      <point x="187" y="599"/>
      <point x="187" y="611" type="curve" smooth="yes"/>
      <point x="187" y="614"/>
      <point x="190" y="620"/>
      <point x="198" y="628" type="curve"/>
      <point x="520" y="628" type="line" smooth="yes"/>
      <point x="632" y="628"/>
      <point x="639" y="673"/>
      <point x="639" y="764" type="curve" smooth="yes"/>
      <point x="639" y="788" type="line"/>
      <point x="458" y="788" type="line"/>
      <point x="458" y="764" type="line" smooth="yes"/>
      <point x="458" y="748"/>
      <point x="454" y="740"/>
      <point x="438" y="740" type="curve" smooth="yes"/>
      <point x="146" y="740" type="line"/>
      <point x="94" y="686"/>
      <point x="60" y="651"/>
      <point x="60" y="624" type="curve" smooth="yes"/>
      <point x="60" y="609"/>
      <point x="85" y="573"/>
      <point x="109" y="538" type="curve"/>
    </contour>
  </outline>
</glyph>
<glyph name="uni1789" format="2">
  <advance width="1031"/>
  <unicode hex="1789"/>
  <note>
uni1789
</note>
  <outline>
    <contour>
      <point x="729" y="0" type="curve" smooth="yes"/>
      <point x="845" y="0"/>
      <point x="940" y="63"/>
      <point x="940" y="189" type="curve" smooth="yes"/>
      <point x="940" y="216" type="line"/>
      <point x="731" y="216" type="line"/>
      <point x="731" y="131" type="line"/>
      <point x="759" y="131" type="line"/>
      <point x="757" y="119"/>
      <point x="745" y="103"/>
      <point x="719" y="103" type="curve" smooth="yes"/>
      <point x="677" y="103"/>
      <point x="637" y="131"/>
      <point x="590" y="154" type="curve" smooth="yes"/>
      <point x="526" y="186"/>
      <point x="425" y="201"/>
      <point x="314" y="201" type="curve" smooth="yes"/>
      <point x="94" y="201" type="line"/>
      <point x="94" y="98" type="line"/>
      <point x="314" y="98" type="line" smooth="yes"/>
      <point x="399" y="98"/>
      <point x="491" y="90"/>
      <point x="536" y="66" type="curve" smooth="yes"/>
      <point x="601" y="31"/>
      <point x="641" y="0"/>
    </contour>
    <contour>
      <point x="593" y="727" type="curve"/>
      <point x="618" y="639" type="line"/>
      <point x="634" y="654"/>
      <point x="651" y="671"/>
      <point x="692" y="671" type="curve" smooth="yes"/>
      <point x="736" y="671"/>
      <point x="760" y="653"/>
      <point x="760" y="622" type="curve" smooth="yes"/>
      <point x="760" y="244" type="line"/>
      <point x="941" y="244" type="line"/>
      <point x="941" y="622" type="line" smooth="yes"/>
      <point x="941" y="735"/>
      <point x="870" y="783"/>
      <point x="742" y="783" type="curve" smooth="yes"/>
      <point x="666" y="783"/>
      <point x="632" y="763"/>
    </contour>
    <contour>
      <point x="90" y="495" type="line"/>
      <point x="271" y="495" type="line"/>
      <point x="271" y="645" type="line" smooth="yes"/>
      <point x="271" y="656"/>
      <point x="277" y="662"/>
      <point x="284" y="662" type="curve" smooth="yes"/>
      <point x="302" y="662"/>
      <point x="325" y="601"/>
      <point x="354" y="601" type="curve" smooth="yes"/>
      <point x="385" y="601"/>
      <point x="404" y="662"/>
      <point x="425" y="662" type="curve" smooth="yes"/>
      <point x="432" y="662"/>
      <point x="439" y="656"/>
      <point x="439" y="645" type="curve" smooth="yes"/>
      <point x="439" y="244" type="line"/>
      <point x="620" y="244" type="line"/>
      <point x="620" y="645" type="line" smooth="yes"/>
      <point x="620" y="714"/>
      <point x="585" y="780"/>
      <point x="482" y="780" type="curve" smooth="yes"/>
      <point x="434" y="780"/>
      <point x="394" y="759"/>
      <point x="357" y="719" type="curve"/>
      <point x="354" y="719" type="line"/>
      <point x="318" y="760"/>
      <point x="276" y="780"/>
      <point x="229" y="780" type="curve" smooth="yes"/>
      <point x="127" y="780"/>
      <point x="90" y="715"/>
      <point x="90" y="645" type="curve" smooth="yes"/>
    </contour>
    <contour>
      <point x="90" y="506" type="line"/>
      <point x="90" y="314" type="line" smooth="yes"/>
      <point x="90" y="263"/>
      <point x="112" y="244"/>
      <point x="186" y="244" type="curve" smooth="yes"/>
      <point x="247" y="244" type="line" smooth="yes"/>
      <point x="340" y="244"/>
      <point x="395" y="293"/>
      <point x="395" y="366" type="curve" smooth="yes"/>
      <point x="395" y="451"/>
      <point x="350" y="484"/>
      <point x="271" y="485" type="curve"/>
      <point x="271" y="506" type="line" smooth="yes"/>
    </contour>
    <contour>
      <point x="271" y="324" type="curve"/>
      <point x="271" y="408" type="line"/>
      <point x="286" y="408"/>
      <point x="299" y="394"/>
      <point x="299" y="367" type="curve" smooth="yes"/>
      <point x="299" y="342"/>
      <point x="284" y="324"/>
    </contour>
  </outline>
</glyph>
<glyph name="uni178A" format="2">
  <advance width="709"/>
  <unicode hex="178A"/>
  <note>
uni178A
</note>
  <outline>
    <contour>
      <point x="90" y="617" type="line"/>
      <point x="503" y="617" type="line" smooth="yes"/>
      <point x="586" y="617"/>
      <point x="619" y="663"/>
      <point x="619" y="752" type="curve" smooth="yes"/>
      <point x="619" y="793" type="line"/>
      <point x="438" y="793" type="line"/>
      <point x="438" y="752" type="line" smooth="yes"/>
      <point x="438" y="737"/>
      <point x="420" y="729"/>
      <point x="383" y="729" type="curve" smooth="yes"/>
      <point x="271" y="729" type="line"/>
      <point x="271" y="764" type="line"/>
      <point x="90" y="764" type="line"/>
    </contour>
    <contour>
      <point x="90" y="244" type="line"/>
      <point x="242" y="244" type="line"/>
      <point x="355" y="320" type="line"/>
      <point x="468" y="244" type="line"/>
      <point x="619" y="244" type="line"/>
      <point x="619" y="576" type="line"/>
      <point x="438" y="576" type="line"/>
      <point x="438" y="409" type="line"/>
      <point x="355" y="467" type="line"/>
      <point x="271" y="408" type="line"/>
      <point x="271" y="576" type="line"/>
      <point x="90" y="576" type="line"/>
    </contour>
  </outline>
</glyph>
<glyph name="uni178B" format="2">
  <advance width="724"/>
  <unicode hex="178B"/>
  <note>
uni178B
</note>
  <outline>
    <contour>
      <point x="365" y="244" type="curve" smooth="yes"/>
      <point x="542" y="244"/>
      <point x="631" y="297"/>
      <point x="631" y="402" type="curve" smooth="yes"/>
      <point x="631" y="561" type="line"/>
      <point x="569" y="630" type="line"/>
      <point x="570" y="632" type="line"/>
      <point x="595" y="632" type="line" smooth="yes"/>
      <point x="631" y="632"/>
      <point x="640" y="653"/>
      <point x="640" y="678" type="curve" smooth="yes"/>
      <point x="640" y="802" type="line"/>
      <point x="459" y="802" type="line"/>
      <point x="459" y="774" type="line" smooth="yes"/>
      <point x="459" y="752"/>
      <point x="444" y="744"/>
      <point x="428" y="744" type="curve" smooth="yes"/>
      <point x="410" y="744" type="line"/>
      <point x="375" y="698"/>
      <point x="348" y="669"/>
      <point x="348" y="652" type="curve" smooth="yes"/>
      <point x="348" y="639"/>
      <point x="353" y="633"/>
      <point x="450" y="522" type="curve"/>
      <point x="450" y="447" type="line" smooth="yes"/>
      <point x="450" y="387"/>
      <point x="420" y="356"/>
      <point x="365" y="356" type="curve" smooth="yes"/>
      <point x="310" y="356"/>
      <point x="282" y="387"/>
      <point x="282" y="447" type="curve" smooth="yes"/>
      <point x="282" y="717" type="line" smooth="yes"/>
      <point x="282" y="763"/>
      <point x="243" y="780"/>
      <point x="164" y="780" type="curve" smooth="yes"/>
      <point x="60" y="780" type="line"/>
      <point x="60" y="668" type="line"/>
      <point x="87" y="668"/>
      <point x="101" y="660"/>
      <point x="101" y="645" type="curve" smooth="yes"/>
      <point x="101" y="402" type="line" smooth="yes"/>
      <point x="101" y="297"/>
      <point x="189" y="244"/>
    </contour>
  </outline>
</glyph>
<glyph name="uni178C" format="2">
  <advance width="704"/>
  <unicode hex="178C"/>
  <note>
uni178C
</note>
  <outline>
    <contour>
      <point x="439" y="234" type="line"/>
      <point x="620" y="234" type="line"/>
      <point x="620" y="418" type="line"/>
      <point x="439" y="418" type="line"/>
      <point x="439" y="404" type="line" smooth="yes"/>
      <point x="439" y="383"/>
      <point x="354" y="351"/>
      <point x="317" y="351" type="curve" smooth="yes"/>
      <point x="286" y="351"/>
      <point x="271" y="370"/>
      <point x="271" y="392" type="curve" smooth="yes"/>
      <point x="271" y="401" type="line"/>
      <point x="313" y="409" type="line" smooth="yes"/>
      <point x="502" y="445"/>
      <point x="619" y="531"/>
      <point x="619" y="648" type="curve" smooth="yes"/>
      <point x="619" y="742"/>
      <point x="564" y="780"/>
      <point x="489" y="780" type="curve" smooth="yes"/>
      <point x="432" y="780"/>
      <point x="393" y="759"/>
      <point x="356" y="719" type="curve"/>
      <point x="354" y="719" type="line"/>
      <point x="317" y="762"/>
      <point x="284" y="780"/>
      <point x="236" y="780" type="curve" smooth="yes"/>
      <point x="136" y="780"/>
      <point x="90" y="724"/>
      <point x="90" y="656" type="curve" smooth="yes"/>
      <point x="90" y="579"/>
      <point x="141" y="536"/>
      <point x="228" y="536" type="curve" smooth="yes"/>
      <point x="273" y="536" type="line"/>
      <point x="273" y="621" type="line"/>
      <point x="270" y="621"/>
      <point x="260" y="625"/>
      <point x="260" y="640" type="curve" smooth="yes"/>
      <point x="260" y="651"/>
      <point x="269" y="657"/>
      <point x="278" y="657" type="curve" smooth="yes"/>
      <point x="300" y="657"/>
      <point x="328" y="601"/>
      <point x="355" y="601" type="curve" smooth="yes"/>
      <point x="373" y="601"/>
      <point x="384" y="614"/>
      <point x="396" y="628" type="curve" smooth="yes"/>
      <point x="409" y="643"/>
      <point x="423" y="657"/>
      <point x="431" y="657" type="curve" smooth="yes"/>
      <point x="443" y="657"/>
      <point x="448" y="647"/>
      <point x="448" y="633" type="curve" smooth="yes"/>
      <point x="448" y="589"/>
      <point x="396" y="539"/>
      <point x="308" y="522" type="curve" smooth="yes"/>
      <point x="90" y="480" type="line"/>
      <point x="90" y="387" type="line" smooth="yes"/>
      <point x="90" y="294"/>
      <point x="190" y="244"/>
      <point x="282" y="244" type="curve" smooth="yes"/>
      <point x="329" y="244"/>
      <point x="382" y="257"/>
      <point x="438" y="309" type="curve"/>
      <point x="439" y="309" type="line"/>
    </contour>
  </outline>
</glyph>
<glyph name="uni178F" format="2">
  <advance width="710"/>
  <unicode hex="178F"/>
  <note>
uni178F
</note>
  <outline>
    <contour>
      <point x="90" y="668" type="line"/>
      <point x="619" y="668" type="line"/>
      <point x="619" y="780" type="line"/>
      <point x="90" y="780" type="line"/>
    </contour>
    <contour>
      <point x="90" y="477" type="line"/>
      <point x="271" y="477" type="line"/>
      <point x="271" y="488" type="line" smooth="yes"/>
      <point x="271" y="509"/>
      <point x="299" y="527"/>
      <point x="354" y="527" type="curve" smooth="yes"/>
      <point x="409" y="527"/>
      <point x="439" y="509"/>
      <point x="439" y="488" type="curve" smooth="yes"/>
      <point x="439" y="244" type="line"/>
      <point x="620" y="244" type="line"/>
      <point x="620" y="505" type="line" smooth="yes"/>
      <point x="620" y="580"/>
      <point x="531" y="638"/>
      <point x="354" y="638" type="curve" smooth="yes"/>
      <point x="178" y="638"/>
      <point x="90" y="580"/>
      <point x="90" y="505" type="curve" smooth="yes"/>
    </contour>
    <contour>
      <point x="90" y="506" type="line"/>
      <point x="90" y="314" type="line" smooth="yes"/>
      <point x="90" y="263"/>
      <point x="112" y="244"/>
      <point x="186" y="244" type="curve" smooth="yes"/>
      <point x="247" y="244" type="line" smooth="yes"/>
      <point x="340" y="244"/>
      <point x="395" y="293"/>
      <point x="395" y="366" type="curve" smooth="yes"/>
      <point x="395" y="451"/>
      <point x="350" y="484"/>
      <point x="271" y="485" type="curve"/>
      <point x="271" y="506" type="line" smooth="yes"/>
    </contour>
    <contour>
      <point x="271" y="324" type="curve"/>
      <point x="271" y="408" type="line"/>
      <point x="286" y="408"/>
      <point x="299" y="394"/>
      <point x="299" y="367" type="curve" smooth="yes"/>
      <point x="299" y="342"/>
      <point x="284" y="324"/>
    </contour>
  </outline>
</glyph>
<glyph name="uni1793" format="2">
  <advance width="703"/>
  <unicode hex="1793"/>
  <note>
uni1793
</note>
  <outline>
    <contour>
      <point x="90" y="244" type="line"/>
      <point x="271" y="244" type="line"/>
      <point x="271" y="291" type="line"/>
      <point x="293" y="286"/>
      <point x="316" y="277"/>
      <point x="331" y="269" type="curve" smooth="yes"/>
      <point x="358" y="255"/>
      <point x="400" y="244"/>
      <point x="444" y="244" type="curve" smooth="yes"/>
      <point x="538" y="244"/>
      <point x="629" y="296"/>
      <point x="629" y="388" type="curve" smooth="yes"/>
      <point x="629" y="471"/>
      <point x="555" y="500"/>
      <point x="416" y="535" type="curve" smooth="yes"/>
      <point x="348" y="552"/>
      <point x="271" y="575"/>
      <point x="271" y="620" type="curve" smooth="yes"/>
      <point x="271" y="651"/>
      <point x="314" y="668"/>
      <point x="362" y="668" type="curve" smooth="yes"/>
      <point x="408" y="668"/>
      <point x="433" y="662"/>
      <point x="433" y="645" type="curve" smooth="yes"/>
      <point x="433" y="638"/>
      <point x="425" y="631"/>
      <point x="414" y="629" type="curve"/>
      <point x="414" y="556" type="line"/>
      <point x="454" y="556" type="line" smooth="yes"/>
      <point x="592" y="556"/>
      <point x="612" y="607"/>
      <point x="612" y="655" type="curve" smooth="yes"/>
      <point x="612" y="744"/>
      <point x="531" y="780"/>
      <point x="354" y="780" type="curve" smooth="yes"/>
      <point x="183" y="780"/>
      <point x="90" y="734"/>
      <point x="90" y="629" type="curve" smooth="yes"/>
      <point x="90" y="523"/>
      <point x="236" y="474"/>
      <point x="383" y="436" type="curve" smooth="yes"/>
      <point x="422" y="426"/>
      <point x="449" y="412"/>
      <point x="449" y="390" type="curve" smooth="yes"/>
      <point x="449" y="366"/>
      <point x="429" y="356"/>
      <point x="401" y="356" type="curve" smooth="yes"/>
      <point x="380" y="356"/>
      <point x="359" y="366"/>
      <point x="336" y="377" type="curve" smooth="yes"/>
      <point x="315" y="387"/>
      <point x="292" y="396"/>
      <point x="271" y="399" type="curve"/>
      <point x="271" y="440" type="line"/>
      <point x="90" y="440" type="line"/>
    </contour>
  </outline>
</glyph>
<glyph name="uni1794" format="2">
  <advance width="713"/>
  <unicode hex="1794"/>
  <note>
uni1794
</note>
  <outline>
    <contour>
      <point x="273" y="568" type="line"/>
      <point x="92" y="568" type="line"/>
      <point x="92" y="402" type="line" smooth="yes"/>
      <point x="92" y="297"/>
      <point x="180" y="244"/>
      <point x="356" y="244" type="curve" smooth="yes"/>
      <point x="533" y="244"/>
      <point x="621" y="297"/>
      <point x="621" y="402" type="curve" smooth="yes"/>
      <point x="621" y="566" type="line"/>
      <point x="440" y="566" type="line"/>
      <point x="440" y="412" type="line" smooth="yes"/>
      <point x="440" y="381"/>
      <point x="413" y="356"/>
      <point x="356" y="356" type="curve" smooth="yes"/>
      <point x="301" y="356"/>
      <point x="273" y="381"/>
      <point x="273" y="412" type="curve" smooth="yes"/>
    </contour>
    <contour>
      <point x="440" y="548" type="line"/>
      <point x="621" y="548" type="line"/>
      <point x="621" y="604" type="line"/>
      <point x="559" y="667" type="line"/>
      <point x="559" y="668" type="line"/>
      <point x="629" y="668" type="line"/>
      <point x="629" y="780" type="line"/>
      <point x="462" y="780" type="line"/>
      <point x="420" y="726"/>
      <point x="398" y="698"/>
      <point x="398" y="685" type="curve" smooth="yes"/>
      <point x="398" y="676"/>
      <point x="400" y="673"/>
      <point x="440" y="620" type="curve"/>
    </contour>
    <contour>
      <point x="92" y="548" type="line"/>
      <point x="273" y="548" type="line"/>
      <point x="273" y="604" type="line"/>
      <point x="211" y="667" type="line"/>
      <point x="211" y="668" type="line"/>
      <point x="281" y="668" type="line"/>
      <point x="281" y="780" type="line"/>
      <point x="114" y="780" type="line"/>
      <point x="72" y="726"/>
      <point x="50" y="698"/>
      <point x="50" y="685" type="curve" smooth="yes"/>
      <point x="50" y="676"/>
      <point x="52" y="673"/>
      <point x="92" y="620" type="curve"/>
    </contour>
  </outline>
</glyph>
<glyph name="uni1795" format="2">
  <advance width="728"/>
  <unicode hex="1795"/>
  <note>
uni1795
</note>
  <outline>
    <contour>
      <point x="628" y="418" type="line"/>
      <point x="447" y="418" type="line"/>
      <point x="447" y="389" type="line"/>
      <point x="364" y="407" type="line"/>
      <point x="280" y="388" type="line"/>
      <point x="280" y="568" type="line"/>
      <point x="245" y="586"/>
      <point x="177" y="637"/>
      <point x="177" y="650" type="curve" smooth="yes"/>
      <point x="177" y="657"/>
      <point x="181" y="664"/>
      <point x="189" y="668" type="curve"/>
      <point x="558" y="668" type="line" smooth="yes"/>
      <point x="602" y="668"/>
      <point x="628" y="704"/>
      <point x="628" y="751" type="curve" smooth="yes"/>
      <point x="628" y="811" type="line"/>
      <point x="448" y="811" type="line"/>
      <point x="448" y="804" type="line" smooth="yes"/>
      <point x="448" y="788"/>
      <point x="442" y="780"/>
      <point x="426" y="780" type="curve" smooth="yes"/>
      <point x="136" y="780" type="line"/>
      <point x="74" y="710"/>
      <point x="50" y="692"/>
      <point x="50" y="665" type="curve" smooth="yes"/>
      <point x="50" y="646"/>
      <point x="76" y="610"/>
      <point x="99" y="578" type="curve"/>
      <point x="99" y="244" type="line"/>
      <point x="251" y="244" type="line"/>
      <point x="364" y="280" type="line"/>
      <point x="477" y="244" type="line"/>
      <point x="628" y="244" type="line"/>
    </contour>
    <contour>
      <point x="628" y="402" type="line"/>
      <point x="628" y="567" type="line" smooth="yes"/>
      <point x="628" y="608"/>
      <point x="582" y="638"/>
      <point x="511" y="638" type="curve" smooth="yes"/>
      <point x="392" y="638"/>
      <point x="334" y="587"/>
      <point x="334" y="515" type="curve" smooth="yes"/>
      <point x="334" y="457"/>
      <point x="379" y="415"/>
      <point x="447" y="415" type="curve"/>
      <point x="447" y="402" type="line"/>
    </contour>
    <contour>
      <point x="447" y="490" type="line"/>
      <point x="435" y="490"/>
      <point x="423" y="499"/>
      <point x="423" y="520" type="curve" smooth="yes"/>
      <point x="423" y="539"/>
      <point x="435" y="549"/>
      <point x="447" y="549" type="curve"/>
    </contour>
  </outline>
</glyph>
<glyph name="uni1797" format="2">
  <advance width="691"/>
  <unicode hex="1797"/>
  <note>
uni1797
</note>
  <outline>
    <contour>
      <point x="72" y="668" type="line"/>
      <point x="601" y="668" type="line"/>
      <point x="601" y="780" type="line"/>
      <point x="72" y="780" type="line"/>
    </contour>
    <contour>
      <point x="144" y="236" type="curve" smooth="yes"/>
      <point x="229" y="236"/>
      <point x="284" y="281"/>
      <point x="284" y="365" type="curve" smooth="yes"/>
      <point x="284" y="419"/>
      <point x="262" y="438"/>
      <point x="262" y="467" type="curve" smooth="yes"/>
      <point x="262" y="503"/>
      <point x="297" y="521"/>
      <point x="345" y="521" type="curve" smooth="yes"/>
      <point x="396" y="521"/>
      <point x="421" y="497"/>
      <point x="421" y="441" type="curve" smooth="yes"/>
      <point x="421" y="244" type="line"/>
      <point x="601" y="244" type="line"/>
      <point x="601" y="460" type="line" smooth="yes"/>
      <point x="601" y="571"/>
      <point x="516" y="633"/>
      <point x="349" y="633" type="curve" smooth="yes"/>
      <point x="169" y="633"/>
      <point x="82" y="565"/>
      <point x="82" y="477" type="curve" smooth="yes"/>
      <point x="82" y="425"/>
      <point x="112" y="379"/>
      <point x="115" y="370" type="curve" smooth="yes"/>
      <point x="118" y="360"/>
      <point x="112" y="355"/>
      <point x="107" y="355" type="curve" smooth="yes"/>
      <point x="100" y="355"/>
      <point x="92" y="367"/>
      <point x="86" y="380" type="curve"/>
      <point x="0" y="341" type="line"/>
      <point x="22" y="268"/>
      <point x="73" y="236"/>
    </contour>
  </outline>
</glyph>
<glyph name="uni1799" format="2">
  <advance width="1008"/>
  <unicode hex="1799"/>
  <note>
uni1799
</note>
  <outline>
    <contour>
      <point x="916" y="564" type="line"/>
      <point x="735" y="564" type="line"/>
      <point x="735" y="412" type="line" smooth="yes"/>
      <point x="735" y="381"/>
      <point x="714" y="356"/>
      <point x="667" y="356" type="curve" smooth="yes"/>
      <point x="620" y="356"/>
      <point x="600" y="381"/>
      <point x="600" y="412" type="curve" smooth="yes"/>
      <point x="600" y="564" type="line"/>
      <point x="419" y="564" type="line"/>
      <point x="419" y="412" type="line" smooth="yes"/>
      <point x="419" y="383"/>
      <point x="382" y="356"/>
      <point x="330" y="356" type="curve" smooth="yes"/>
      <point x="278" y="356"/>
      <point x="241" y="383"/>
      <point x="241" y="412" type="curve" smooth="yes"/>
      <point x="241" y="645" type="line" smooth="yes"/>
      <point x="241" y="660"/>
      <point x="258" y="668"/>
      <point x="292" y="668" type="curve"/>
      <point x="292" y="780" type="line"/>
      <point x="133" y="780" type="line" smooth="yes"/>
      <point x="86" y="780"/>
      <point x="60" y="763"/>
      <point x="60" y="730" type="curve" smooth="yes"/>
      <point x="60" y="402" type="line" smooth="yes"/>
      <point x="60" y="290"/>
      <point x="163" y="244"/>
      <point x="334" y="244" type="curve" smooth="yes"/>
      <point x="343" y="244" type="line" smooth="yes"/>
      <point x="419" y="244"/>
      <point x="476" y="263"/>
      <point x="508" y="292" type="curve"/>
      <point x="509" y="292" type="line"/>
      <point x="546" y="260"/>
      <point x="599" y="244"/>
      <point x="667" y="244" type="curve" smooth="yes"/>
      <point x="835" y="244"/>
      <point x="916" y="289"/>
      <point x="916" y="402" type="curve" smooth="yes"/>
    </contour>
    <contour>
      <point x="735" y="548" type="line"/>
      <point x="916" y="548" type="line"/>
      <point x="916" y="604" type="line"/>
      <point x="854" y="667" type="line"/>
      <point x="854" y="668" type="line"/>
      <point x="924" y="668" type="line"/>
      <point x="924" y="780" type="line"/>
      <point x="757" y="780" type="line"/>
      <point x="715" y="726"/>
      <point x="693" y="698"/>
      <point x="693" y="685" type="curve" smooth="yes"/>
      <point x="693" y="676"/>
      <point x="695" y="673"/>
      <point x="735" y="620" type="curve"/>
    </contour>
    <contour>
      <point x="419" y="548" type="line"/>
      <point x="600" y="548" type="line"/>
      <point x="600" y="604" type="line"/>
      <point x="538" y="667" type="line"/>
      <point x="538" y="668" type="line"/>
      <point x="608" y="668" type="line"/>
      <point x="608" y="780" type="line"/>
      <point x="441" y="780" type="line"/>
      <point x="399" y="726"/>
      <point x="377" y="698"/>
      <point x="377" y="685" type="curve" smooth="yes"/>
      <point x="377" y="676"/>
      <point x="379" y="673"/>
      <point x="419" y="620" type="curve"/>
    </contour>
  </outline>
</glyph>
<glyph name="uni179A" format="2">
  <advance width="409"/>
  <unicode hex="179A"/>
  <note>
uni179A
</note>
  <outline>
    <contour>
      <point x="158" y="548" type="line"/>
      <point x="339" y="548" type="line"/>
      <point x="339" y="596" type="line"/>
      <point x="272" y="667" type="line"/>
      <point x="272" y="668" type="line"/>
      <point x="349" y="668" type="line"/>
      <point x="349" y="780" type="line"/>
      <point x="157" y="780" type="line"/>
      <point x="97" y="706"/>
      <point x="73" y="676"/>
      <point x="73" y="661" type="curve" smooth="yes"/>
      <point x="73" y="647"/>
      <point x="101" y="621"/>
      <point x="158" y="567" type="curve"/>
    </contour>
    <contour>
      <point x="339" y="569" type="line"/>
      <point x="158" y="569" type="line"/>
      <point x="158" y="473" type="line"/>
      <point x="105" y="473"/>
      <point x="48" y="432"/>
      <point x="48" y="358" type="curve" smooth="yes"/>
      <point x="48" y="274"/>
      <point x="99" y="244"/>
      <point x="164" y="244" type="curve" smooth="yes"/>
      <point x="239" y="244" type="line" smooth="yes"/>
      <point x="319" y="244"/>
      <point x="339" y="286"/>
      <point x="339" y="353" type="curve" smooth="yes"/>
    </contour>
    <contour>
      <point x="158" y="321" type="line"/>
      <point x="149" y="321"/>
      <point x="130" y="329"/>
      <point x="130" y="359" type="curve" smooth="yes"/>
      <point x="130" y="385"/>
      <point x="150" y="394"/>
      <point x="158" y="395" type="curve"/>
    </contour>
  </outline>
</glyph>
<glyph name="uni179B" format="2">
  <advance width="996"/>
  <unicode hex="179B"/>
  <note>
uni179B
</note>
  <outline>
    <contour>
      <point x="904" y="568" type="line"/>
      <point x="723" y="568" type="line"/>
      <point x="723" y="422" type="line" smooth="yes"/>
      <point x="723" y="391"/>
      <point x="702" y="356"/>
      <point x="656" y="356" type="curve" smooth="yes"/>
      <point x="610" y="356"/>
      <point x="587" y="391"/>
      <point x="587" y="422" type="curve" smooth="yes"/>
      <point x="587" y="622" type="line" smooth="yes"/>
      <point x="587" y="727"/>
      <point x="503" y="780"/>
      <point x="336" y="780" type="curve" smooth="yes"/>
      <point x="168" y="780"/>
      <point x="84" y="727"/>
      <point x="84" y="622" type="curve" smooth="yes"/>
      <point x="84" y="495" type="line"/>
      <point x="265" y="495" type="line"/>
      <point x="265" y="612" type="line" smooth="yes"/>
      <point x="265" y="643"/>
      <point x="289" y="668"/>
      <point x="336" y="668" type="curve" smooth="yes"/>
      <point x="383" y="668"/>
      <point x="407" y="643"/>
      <point x="407" y="612" type="curve" smooth="yes"/>
      <point x="407" y="402" type="line" smooth="yes"/>
      <point x="407" y="297"/>
      <point x="490" y="244"/>
      <point x="656" y="244" type="curve" smooth="yes"/>
      <point x="821" y="244"/>
      <point x="904" y="297"/>
      <point x="904" y="402" type="curve" smooth="yes"/>
    </contour>
    <contour>
      <point x="84" y="506" type="line"/>
      <point x="84" y="314" type="line" smooth="yes"/>
      <point x="84" y="263"/>
      <point x="106" y="244"/>
      <point x="180" y="244" type="curve" smooth="yes"/>
      <point x="241" y="244" type="line" smooth="yes"/>
      <point x="334" y="244"/>
      <point x="389" y="293"/>
      <point x="389" y="366" type="curve" smooth="yes"/>
      <point x="389" y="451"/>
      <point x="344" y="484"/>
      <point x="265" y="485" type="curve"/>
      <point x="265" y="506" type="line" smooth="yes"/>
    </contour>
    <contour>
      <point x="265" y="324" type="curve"/>
      <point x="265" y="408" type="line"/>
      <point x="280" y="408"/>
      <point x="293" y="394"/>
      <point x="293" y="367" type="curve" smooth="yes"/>
      <point x="293" y="342"/>
      <point x="278" y="324"/>
    </contour>
    <contour>
      <point x="723" y="548" type="line"/>
      <point x="904" y="548" type="line"/>
      <point x="904" y="604" type="line"/>
      <point x="842" y="667" type="line"/>
      <point x="842" y="668" type="line"/>
      <point x="912" y="668" type="line"/>
      <point x="912" y="780" type="line"/>
      <point x="745" y="780" type="line"/>
      <point x="703" y="726"/>
      <point x="681" y="698"/>
      <point x="681" y="685" type="curve" smooth="yes"/>
      <point x="681" y="676"/>
      <point x="683" y="673"/>
      <point x="723" y="620" type="curve"/>
    </contour>
  </outline>
</glyph>
<glyph name="uni179C" format="2">
  <advance width="438"/>
  <unicode hex="179C"/>
  <note>
uni179C
</note>
  <outline>
    <contour>
      <point x="158" y="528" type="line"/>
      <point x="339" y="528" type="line"/>
      <point x="339" y="584" type="line"/>
      <point x="272" y="647" type="line"/>
      <point x="272" y="648" type="line"/>
      <point x="310" y="648" type="line" smooth="yes"/>
      <point x="364" y="648"/>
      <point x="378" y="680"/>
      <point x="378" y="736" type="curve" smooth="yes"/>
      <point x="378" y="798" type="line"/>
      <point x="198" y="798" type="line"/>
      <point x="198" y="793" type="line" smooth="yes"/>
      <point x="198" y="768"/>
      <point x="177" y="760"/>
      <point x="162" y="760" type="curve" smooth="yes"/>
      <point x="139" y="760" type="line"/>
      <point x="105" y="718"/>
      <point x="75" y="681"/>
      <point x="75" y="663" type="curve" smooth="yes"/>
      <point x="75" y="639"/>
      <point x="111" y="608"/>
      <point x="158" y="568" type="curve"/>
    </contour>
    <contour>
      <point x="339" y="569" type="line"/>
      <point x="158" y="569" type="line"/>
      <point x="158" y="473" type="line"/>
      <point x="105" y="473"/>
      <point x="48" y="432"/>
      <point x="48" y="358" type="curve" smooth="yes"/>
      <point x="48" y="274"/>
      <point x="99" y="244"/>
      <point x="164" y="244" type="curve" smooth="yes"/>
      <point x="239" y="244" type="line" smooth="yes"/>
      <point x="319" y="244"/>
      <point x="339" y="286"/>
      <point x="339" y="353" type="curve" smooth="yes"/>
    </contour>
    <contour>
      <point x="158" y="321" type="line"/>
      <point x="149" y="321"/>
      <point x="130" y="329"/>
      <point x="130" y="359" type="curve" smooth="yes"/>
      <point x="130" y="385"/>
      <point x="150" y="394"/>
      <point x="158" y="395" type="curve"/>
    </contour>
  </outline>
</glyph>
<glyph name="uni179D" format="2">
  <advance width="712"/>
  <unicode hex="179D"/>
  <note>
uni179D
</note>
  <outline>
    <contour>
      <point x="402" y="352" type="line"/>
      <point x="652" y="352" type="line"/>
      <point x="652" y="464" type="line"/>
      <point x="402" y="464" type="line"/>
    </contour>
    <contour>
      <point x="90" y="668" type="line"/>
      <point x="619" y="668" type="line"/>
      <point x="619" y="780" type="line"/>
      <point x="90" y="780" type="line"/>
    </contour>
    <contour>
      <point x="90" y="244" type="line"/>
      <point x="271" y="244" type="line"/>
      <point x="271" y="321" type="line"/>
      <point x="278" y="332"/>
      <point x="296" y="352"/>
      <point x="329" y="352" type="curve" smooth="yes"/>
      <point x="379" y="352" type="line"/>
      <point x="379" y="464" type="line"/>
      <point x="347" y="464" type="line" smooth="yes"/>
      <point x="310" y="464"/>
      <point x="288" y="456"/>
      <point x="271" y="435" type="curve"/>
      <point x="271" y="460" type="line" smooth="yes"/>
      <point x="271" y="495"/>
      <point x="302" y="524"/>
      <point x="354" y="524" type="curve" smooth="yes"/>
      <point x="406" y="524"/>
      <point x="438" y="493"/>
      <point x="438" y="460" type="curve" smooth="yes"/>
      <point x="438" y="244" type="line"/>
      <point x="619" y="244" type="line"/>
      <point x="619" y="460" type="line" smooth="yes"/>
      <point x="619" y="568"/>
      <point x="526" y="636"/>
      <point x="354" y="636" type="curve" smooth="yes"/>
      <point x="183" y="636"/>
      <point x="90" y="568"/>
      <point x="90" y="460" type="curve" smooth="yes"/>
    </contour>
  </outline>
</glyph>
<glyph name="uni179F" format="2">
  <advance width="1002"/>
  <unicode hex="179F"/>
  <note>
uni179F
</note>
  <outline>
    <contour>
      <point x="172" y="600" type="curve"/>
      <point x="325" y="628" type="line"/>
      <point x="291" y="667" type="line"/>
      <point x="291" y="668" type="line"/>
      <point x="456" y="668" type="line"/>
      <point x="456" y="780" type="line"/>
      <point x="178" y="780" type="line"/>
      <point x="136" y="726"/>
      <point x="114" y="705"/>
      <point x="114" y="688" type="curve" smooth="yes"/>
      <point x="114" y="676"/>
      <point x="119" y="666"/>
    </contour>
    <contour>
      <point x="910" y="565" type="line"/>
      <point x="729" y="565" type="line"/>
      <point x="729" y="402" type="line" smooth="yes"/>
      <point x="729" y="371"/>
      <point x="709" y="356"/>
      <point x="662" y="356" type="curve" smooth="yes"/>
      <point x="616" y="356"/>
      <point x="593" y="371"/>
      <point x="593" y="402" type="curve" smooth="yes"/>
      <point x="593" y="476" type="line" smooth="yes"/>
      <point x="593" y="581"/>
      <point x="529" y="632"/>
      <point x="342" y="632" type="curve" smooth="yes"/>
      <point x="204" y="632"/>
      <point x="90" y="598"/>
      <point x="90" y="506" type="curve" smooth="yes"/>
      <point x="90" y="470" type="line"/>
      <point x="271" y="470" type="line"/>
      <point x="271" y="476" type="line" smooth="yes"/>
      <point x="271" y="507"/>
      <point x="295" y="523"/>
      <point x="342" y="523" type="curve" smooth="yes"/>
      <point x="389" y="523"/>
      <point x="413" y="507"/>
      <point x="413" y="476" type="curve" smooth="yes"/>
      <point x="413" y="402" type="line" smooth="yes"/>
      <point x="413" y="297"/>
      <point x="496" y="244"/>
      <point x="662" y="244" type="curve" smooth="yes"/>
      <point x="827" y="244"/>
      <point x="910" y="297"/>
      <point x="910" y="402" type="curve" smooth="yes"/>
    </contour>
    <contour>
      <point x="90" y="506" type="line"/>
      <point x="90" y="314" type="line" smooth="yes"/>
      <point x="90" y="263"/>
      <point x="112" y="244"/>
      <point x="186" y="244" type="curve" smooth="yes"/>
      <point x="247" y="244" type="line" smooth="yes"/>
      <point x="340" y="244"/>
      <point x="395" y="293"/>
      <point x="395" y="366" type="curve" smooth="yes"/>
      <point x="395" y="451"/>
      <point x="350" y="484"/>
      <point x="271" y="485" type="curve"/>
      <point x="271" y="506" type="line" smooth="yes"/>
    </contour>
    <contour>
      <point x="271" y="324" type="curve"/>
      <point x="271" y="408" type="line"/>
      <point x="286" y="408"/>
      <point x="299" y="394"/>
      <point x="299" y="367" type="curve" smooth="yes"/>
      <point x="299" y="342"/>
      <point x="284" y="324"/>
    </contour>
    <contour>
      <point x="729" y="548" type="line"/>
      <point x="910" y="548" type="line"/>
      <point x="910" y="604" type="line"/>
      <point x="848" y="667" type="line"/>
      <point x="848" y="668" type="line"/>
      <point x="918" y="668" type="line"/>
      <point x="918" y="780" type="line"/>
      <point x="751" y="780" type="line"/>
      <point x="709" y="726"/>
      <point x="687" y="698"/>
      <point x="687" y="685" type="curve" smooth="yes"/>
      <point x="687" y="676"/>
      <point x="689" y="673"/>
      <point x="729" y="620" type="curve"/>
    </contour>
  </outline>
</glyph>
<glyph name="uni17A0" format="2">
  <advance width="1002"/>
  <unicode hex="17A0"/>
  <note>
uni17A0
</note>
  <outline>
    <contour>
      <point x="273" y="576" type="line"/>
      <point x="92" y="576" type="line"/>
      <point x="92" y="402" type="line" smooth="yes"/>
      <point x="92" y="289"/>
      <point x="176" y="244"/>
      <point x="344" y="244" type="curve" smooth="yes"/>
      <point x="512" y="244"/>
      <point x="595" y="289"/>
      <point x="595" y="402" type="curve" smooth="yes"/>
      <point x="595" y="622" type="line" smooth="yes"/>
      <point x="595" y="653"/>
      <point x="618" y="668"/>
      <point x="664" y="668" type="curve" smooth="yes"/>
      <point x="712" y="668"/>
      <point x="734" y="653"/>
      <point x="734" y="622" type="curve" smooth="yes"/>
      <point x="734" y="244" type="line"/>
      <point x="912" y="244" type="line"/>
      <point x="912" y="622" type="line" smooth="yes"/>
      <point x="912" y="727"/>
      <point x="830" y="780"/>
      <point x="666" y="780" type="curve" smooth="yes"/>
      <point x="497" y="780"/>
      <point x="415" y="735"/>
      <point x="415" y="622" type="curve" smooth="yes"/>
      <point x="415" y="402" type="line" smooth="yes"/>
      <point x="415" y="371"/>
      <point x="391" y="356"/>
      <point x="344" y="356" type="curve" smooth="yes"/>
      <point x="297" y="356"/>
      <point x="273" y="371"/>
      <point x="273" y="402" type="curve" smooth="yes"/>
    </contour>
    <contour>
      <point x="92" y="548" type="line"/>
      <point x="273" y="548" type="line"/>
      <point x="273" y="604" type="line"/>
      <point x="211" y="667" type="line"/>
      <point x="211" y="668" type="line"/>
      <point x="281" y="668" type="line"/>
      <point x="281" y="780" type="line"/>
      <point x="114" y="780" type="line"/>
      <point x="72" y="726"/>
      <point x="50" y="698"/>
      <point x="50" y="685" type="curve" smooth="yes"/>
      <point x="50" y="676"/>
      <point x="52" y="673"/>
      <point x="92" y="620" type="curve"/>
    </contour>
  </outline>
</glyph>
<glyph name="uni17A1" format="2">
  <advance width="969"/>
  <unicode hex="17A1"/>
  <note>
uni17A1
</note>
  <outline>
    <contour>
      <point x="321" y="244" type="curve" smooth="yes"/>
      <point x="478" y="244"/>
      <point x="557" y="297"/>
      <point x="557" y="402" type="curve" smooth="yes"/>
      <point x="557" y="404" type="line"/>
      <point x="579" y="420"/>
      <point x="593" y="439"/>
      <point x="593" y="483" type="curve" smooth="yes"/>
      <point x="593" y="538"/>
      <point x="541" y="581"/>
      <point x="484" y="581" type="curve" smooth="yes"/>
      <point x="433" y="581"/>
      <point x="401" y="554"/>
      <point x="383" y="522" type="curve"/>
      <point x="303" y="549"/>
      <point x="241" y="573"/>
      <point x="241" y="622" type="curve" smooth="yes"/>
      <point x="241" y="651"/>
      <point x="275" y="668"/>
      <point x="324" y="668" type="curve" smooth="yes"/>
      <point x="371" y="668"/>
      <point x="409" y="660"/>
      <point x="409" y="619" type="curve" smooth="yes"/>
      <point x="409" y="608" type="line"/>
      <point x="589" y="608" type="line"/>
      <point x="589" y="632" type="line" smooth="yes"/>
      <point x="589" y="743"/>
      <point x="500" y="780"/>
      <point x="324" y="780" type="curve" smooth="yes"/>
      <point x="153" y="780"/>
      <point x="60" y="730"/>
      <point x="60" y="618" type="curve" smooth="yes"/>
      <point x="60" y="515"/>
      <point x="176" y="447"/>
      <point x="376" y="411" type="curve"/>
      <point x="376" y="402" type="line" smooth="yes"/>
      <point x="376" y="371"/>
      <point x="360" y="356"/>
      <point x="321" y="356" type="curve" smooth="yes"/>
      <point x="283" y="356"/>
      <point x="267" y="371"/>
      <point x="267" y="402" type="curve" smooth="yes"/>
      <point x="267" y="412" type="line"/>
      <point x="86" y="412" type="line"/>
      <point x="86" y="402" type="line" smooth="yes"/>
      <point x="86" y="297"/>
      <point x="164" y="244"/>
    </contour>
    <contour>
      <point x="877" y="559" type="line"/>
      <point x="696" y="559" type="line"/>
      <point x="696" y="131" type="line"/>
      <point x="620" y="173" type="line"/>
      <point x="544" y="131" type="line"/>
      <point x="544" y="140" type="line" smooth="yes"/>
      <point x="544" y="178"/>
      <point x="517" y="205"/>
      <point x="443" y="205" type="curve" smooth="yes"/>
      <point x="327" y="205" type="line"/>
      <point x="327" y="111" type="line"/>
      <point x="360" y="111"/>
      <point x="376" y="103"/>
      <point x="376" y="82" type="curve" smooth="yes"/>
      <point x="376" y="5" type="line"/>
      <point x="525" y="5" type="line"/>
      <point x="620" y="57" type="line"/>
      <point x="715" y="5" type="line"/>
      <point x="877" y="5" type="line"/>
    </contour>
    <contour>
      <point x="696" y="548" type="line"/>
      <point x="877" y="548" type="line"/>
      <point x="877" y="604" type="line"/>
      <point x="815" y="667" type="line"/>
      <point x="815" y="668" type="line"/>
      <point x="885" y="668" type="line"/>
      <point x="885" y="780" type="line"/>
      <point x="718" y="780" type="line"/>
      <point x="676" y="726"/>
      <point x="654" y="698"/>
      <point x="654" y="685" type="curve" smooth="yes"/>
      <point x="654" y="676"/>
      <point x="656" y="673"/>
      <point x="696" y="620" type="curve"/>
    </contour>
  </outline>
</glyph>
<glyph name="uni17A2" format="2">
  <advance width="723"/>
  <unicode hex="17A2"/>
  <note>
uni17A2
</note>
  <outline>
    <contour>
      <point x="631" y="570" type="line"/>
      <point x="450" y="570" type="line"/>
      <point x="450" y="543" type="line"/>
      <point x="286" y="543" type="line"/>
      <point x="286" y="570" type="line"/>
      <point x="105" y="570" type="line"/>
      <point x="105" y="384" type="line" smooth="yes"/>
      <point x="105" y="364"/>
      <point x="88" y="356"/>
      <point x="60" y="356" type="curve"/>
      <point x="60" y="244" type="line"/>
      <point x="165" y="244" type="line" smooth="yes"/>
      <point x="244" y="244"/>
      <point x="286" y="261"/>
      <point x="286" y="294" type="curve" smooth="yes"/>
      <point x="286" y="431" type="line"/>
      <point x="450" y="431" type="line"/>
      <point x="450" y="384" type="line" smooth="yes"/>
      <point x="450" y="364"/>
      <point x="437" y="356"/>
      <point x="409" y="356" type="curve"/>
      <point x="409" y="244" type="line"/>
      <point x="513" y="244" type="line" smooth="yes"/>
      <point x="592" y="244"/>
      <point x="631" y="261"/>
      <point x="631" y="294" type="curve" smooth="yes"/>
    </contour>
    <contour>
      <point x="450" y="548" type="line"/>
      <point x="631" y="548" type="line"/>
      <point x="631" y="604" type="line"/>
      <point x="569" y="667" type="line"/>
      <point x="569" y="668" type="line"/>
      <point x="639" y="668" type="line"/>
      <point x="639" y="780" type="line"/>
      <point x="472" y="780" type="line"/>
      <point x="430" y="726"/>
      <point x="408" y="698"/>
      <point x="408" y="685" type="curve" smooth="yes"/>
      <point x="408" y="676"/>
      <point x="410" y="673"/>
      <point x="450" y="620" type="curve"/>
    </contour>
    <contour>
      <point x="105" y="548" type="line"/>
      <point x="286" y="548" type="line"/>
      <point x="286" y="604" type="line"/>
      <point x="224" y="667" type="line"/>
      <point x="224" y="668" type="line"/>
      <point x="294" y="668" type="line"/>
      <point x="294" y="780" type="line"/>
      <point x="127" y="780" type="line"/>
      <point x="85" y="726"/>
      <point x="63" y="698"/>
      <point x="63" y="685" type="curve" smooth="yes"/>
      <point x="63" y="676"/>
      <point x="65" y="673"/>
      <point x="105" y="620" type="curve"/>
    </contour>
  </outline>
</glyph>
<glyph name="uni17A5" format="2">
  <advance width="712"/>
  <unicode hex="17A5"/>
  <note>
uni17A5
</note>
  <outline>
    <contour>
      <point x="119" y="626" type="curve"/>
      <point x="216" y="680" type="line"/>
      <point x="197" y="696"/>
      <point x="187" y="706"/>
      <point x="187" y="713" type="curve" smooth="yes"/>
      <point x="187" y="718"/>
      <point x="190" y="725"/>
      <point x="199" y="730" type="curve"/>
      <point x="502" y="730" type="line" smooth="yes"/>
      <point x="614" y="730"/>
      <point x="621" y="775"/>
      <point x="621" y="866" type="curve" smooth="yes"/>
      <point x="621" y="920" type="line"/>
      <point x="440" y="920" type="line"/>
      <point x="440" y="866" type="line" smooth="yes"/>
      <point x="440" y="850"/>
      <point x="436" y="842"/>
      <point x="420" y="842" type="curve" smooth="yes"/>
      <point x="146" y="842" type="line"/>
      <point x="82" y="773"/>
      <point x="60" y="749"/>
      <point x="60" y="724" type="curve" smooth="yes"/>
      <point x="60" y="706"/>
      <point x="71" y="689"/>
    </contour>
    <contour>
      <point x="92" y="477" type="line"/>
      <point x="273" y="477" type="line"/>
      <point x="273" y="488" type="line" smooth="yes"/>
      <point x="273" y="509"/>
      <point x="301" y="527"/>
      <point x="356" y="527" type="curve" smooth="yes"/>
      <point x="411" y="527"/>
      <point x="441" y="509"/>
      <point x="441" y="488" type="curve" smooth="yes"/>
      <point x="441" y="244" type="line"/>
      <point x="622" y="244" type="line"/>
      <point x="622" y="505" type="line" smooth="yes"/>
      <point x="622" y="580"/>
      <point x="533" y="638"/>
      <point x="356" y="638" type="curve" smooth="yes"/>
      <point x="180" y="638"/>
      <point x="92" y="580"/>
      <point x="92" y="505" type="curve" smooth="yes"/>
    </contour>
    <contour>
      <point x="92" y="506" type="line"/>
      <point x="92" y="314" type="line" smooth="yes"/>
      <point x="92" y="263"/>
      <point x="114" y="244"/>
      <point x="188" y="244" type="curve" smooth="yes"/>
      <point x="249" y="244" type="line" smooth="yes"/>
      <point x="342" y="244"/>
      <point x="397" y="293"/>
      <point x="397" y="366" type="curve" smooth="yes"/>
      <point x="397" y="451"/>
      <point x="352" y="484"/>
      <point x="273" y="485" type="curve"/>
      <point x="273" y="506" type="line" smooth="yes"/>
    </contour>
    <contour>
      <point x="273" y="324" type="curve"/>
      <point x="273" y="408" type="line"/>
      <point x="288" y="408"/>
      <point x="301" y="394"/>
      <point x="301" y="367" type="curve" smooth="yes"/>
      <point x="301" y="342"/>
      <point x="286" y="324"/>
    </contour>
  </outline>
</glyph>
<glyph name="uni17A6" format="2">
  <advance width="977"/>
  <unicode hex="17A6"/>
  <note>
uni17A6
</note>
  <outline>
    <contour>
      <point x="887" y="737" type="line"/>
      <point x="706" y="737" type="line"/>
      <point x="706" y="127" type="line" smooth="yes"/>
      <point x="706" y="102"/>
      <point x="684" y="89"/>
      <point x="642" y="89" type="curve" smooth="yes"/>
      <point x="600" y="89"/>
      <point x="570" y="98"/>
      <point x="570" y="127" type="curve" smooth="yes"/>
      <point x="570" y="185"/>
      <point x="443" y="220"/>
      <point x="331" y="220" type="curve" smooth="yes"/>
      <point x="224" y="220"/>
      <point x="93" y="186"/>
      <point x="93" y="106" type="curve" smooth="yes"/>
      <point x="93" y="71" type="line" smooth="yes"/>
      <point x="93" y="12"/>
      <point x="129" y="0"/>
      <point x="201" y="0" type="curve" smooth="yes"/>
      <point x="313" y="0" type="line"/>
      <point x="313" y="84" type="line"/>
      <point x="293" y="84"/>
      <point x="261" y="88"/>
      <point x="261" y="102" type="curve" smooth="yes"/>
      <point x="261" y="116" type="line" smooth="yes"/>
      <point x="261" y="134"/>
      <point x="278" y="149"/>
      <point x="331" y="149" type="curve" smooth="yes"/>
      <point x="388" y="149"/>
      <point x="402" y="132"/>
      <point x="402" y="106" type="curve" smooth="yes"/>
      <point x="402" y="35"/>
      <point x="486" y="0"/>
      <point x="655" y="0" type="curve" smooth="yes"/>
      <point x="810" y="0"/>
      <point x="887" y="39"/>
      <point x="887" y="117" type="curve" smooth="yes"/>
    </contour>
    <contour>
      <point x="80" y="497" type="line"/>
      <point x="261" y="497" type="line"/>
      <point x="261" y="620" type="line" smooth="yes"/>
      <point x="261" y="651"/>
      <point x="289" y="667"/>
      <point x="344" y="667" type="curve" smooth="yes"/>
      <point x="399" y="667"/>
      <point x="429" y="651"/>
      <point x="429" y="620" type="curve" smooth="yes"/>
      <point x="429" y="244" type="line"/>
      <point x="609" y="244" type="line"/>
      <point x="609" y="620" type="line" smooth="yes"/>
      <point x="609" y="725"/>
      <point x="521" y="778"/>
      <point x="344" y="778" type="curve" smooth="yes"/>
      <point x="168" y="778"/>
      <point x="80" y="725"/>
      <point x="80" y="620" type="curve" smooth="yes"/>
    </contour>
    <contour>
      <point x="80" y="506" type="line"/>
      <point x="80" y="314" type="line" smooth="yes"/>
      <point x="80" y="263"/>
      <point x="102" y="244"/>
      <point x="176" y="244" type="curve" smooth="yes"/>
      <point x="237" y="244" type="line" smooth="yes"/>
      <point x="330" y="244"/>
      <point x="385" y="293"/>
      <point x="385" y="366" type="curve" smooth="yes"/>
      <point x="385" y="451"/>
      <point x="340" y="484"/>
      <point x="261" y="485" type="curve"/>
      <point x="261" y="506" type="line" smooth="yes"/>
    </contour>
    <contour>
      <point x="261" y="324" type="curve"/>
      <point x="261" y="408" type="line"/>
      <point x="276" y="408"/>
      <point x="289" y="394"/>
      <point x="289" y="367" type="curve" smooth="yes"/>
      <point x="289" y="342"/>
      <point x="274" y="324"/>
    </contour>
    <contour>
      <point x="706" y="717" type="line"/>
      <point x="887" y="717" type="line"/>
      <point x="887" y="826" type="line" smooth="yes"/>
      <point x="887" y="943"/>
      <point x="811" y="1032"/>
      <point x="690" y="1032" type="curve" smooth="yes"/>
      <point x="644" y="1032"/>
      <point x="619" y="1017"/>
      <point x="600" y="1005" type="curve"/>
      <point x="600" y="1048" type="line"/>
      <point x="419" y="1048" type="line"/>
      <point x="419" y="879" type="line"/>
      <point x="600" y="879" type="line"/>
      <point x="609" y="890"/>
      <point x="621" y="899"/>
      <point x="644" y="899" type="curve" smooth="yes"/>
      <point x="681" y="899"/>
      <point x="706" y="872"/>
      <point x="706" y="809" type="curve" smooth="yes"/>
    </contour>
  </outline>
</glyph>
<glyph name="uni17A7" format="2">
  <advance width="709"/>
  <unicode hex="17A7"/>
  <note>
uni17A7
</note>
  <outline>
    <contour>
      <point x="439" y="240" type="line"/>
      <point x="619" y="240" type="line"/>
      <point x="619" y="438" type="line"/>
      <point x="439" y="438" type="line"/>
      <point x="439" y="433" type="line" smooth="yes"/>
      <point x="439" y="394"/>
      <point x="362" y="356"/>
      <point x="324" y="356" type="curve" smooth="yes"/>
      <point x="289" y="356"/>
      <point x="271" y="380"/>
      <point x="271" y="414" type="curve" smooth="yes"/>
      <point x="271" y="419" type="line"/>
      <point x="313" y="428" type="line" smooth="yes"/>
      <point x="502" y="469"/>
      <point x="619" y="533"/>
      <point x="619" y="635" type="curve" smooth="yes"/>
      <point x="619" y="744"/>
      <point x="526" y="790"/>
      <point x="354" y="790" type="curve" smooth="yes"/>
      <point x="181" y="790"/>
      <point x="90" y="744"/>
      <point x="90" y="656" type="curve" smooth="yes"/>
      <point x="90" y="589"/>
      <point x="140" y="553"/>
      <point x="231" y="553" type="curve" smooth="yes"/>
      <point x="303" y="553" type="line"/>
      <point x="303" y="628" type="line"/>
      <point x="280" y="628"/>
      <point x="273" y="637"/>
      <point x="273" y="649" type="curve" smooth="yes"/>
      <point x="273" y="672"/>
      <point x="312" y="679"/>
      <point x="358" y="679" type="curve" smooth="yes"/>
      <point x="409" y="679"/>
      <point x="439" y="661"/>
      <point x="439" y="632" type="curve" smooth="yes"/>
      <point x="439" y="588"/>
      <point x="396" y="552"/>
      <point x="308" y="534" type="curve" smooth="yes"/>
      <point x="90" y="490" type="line"/>
      <point x="90" y="402" type="line" smooth="yes"/>
      <point x="90" y="290"/>
      <point x="164" y="244"/>
      <point x="264" y="244" type="curve" smooth="yes"/>
      <point x="339" y="244"/>
      <point x="404" y="274"/>
      <point x="438" y="299" type="curve"/>
      <point x="439" y="299" type="line"/>
    </contour>
  </outline>
</glyph>
<glyph name="uni17AA" format="2">
  <advance width="712"/>
  <unicode hex="17AA"/>
  <note>
uni17AA
</note>
  <outline>
    <contour>
      <point x="107" y="765" type="curve"/>
      <point x="204" y="819" type="line"/>
      <point x="185" y="835"/>
      <point x="175" y="845"/>
      <point x="175" y="852" type="curve" smooth="yes"/>
      <point x="175" y="857"/>
      <point x="178" y="864"/>
      <point x="187" y="869" type="curve"/>
      <point x="490" y="869" type="line" smooth="yes"/>
      <point x="602" y="869"/>
      <point x="609" y="914"/>
      <point x="609" y="1005" type="curve" smooth="yes"/>
      <point x="609" y="1056" type="line"/>
      <point x="428" y="1056" type="line"/>
      <point x="428" y="1005" type="line" smooth="yes"/>
      <point x="428" y="989"/>
      <point x="424" y="981"/>
      <point x="408" y="981" type="curve" smooth="yes"/>
      <point x="134" y="981" type="line"/>
      <point x="70" y="912"/>
      <point x="48" y="888"/>
      <point x="48" y="863" type="curve" smooth="yes"/>
      <point x="48" y="845"/>
      <point x="59" y="828"/>
    </contour>
    <contour>
      <point x="454" y="240" type="line"/>
      <point x="634" y="240" type="line"/>
      <point x="634" y="438" type="line"/>
      <point x="454" y="438" type="line"/>
      <point x="454" y="433" type="line" smooth="yes"/>
      <point x="454" y="394"/>
      <point x="377" y="356"/>
      <point x="339" y="356" type="curve" smooth="yes"/>
      <point x="304" y="356"/>
      <point x="286" y="380"/>
      <point x="286" y="414" type="curve" smooth="yes"/>
      <point x="286" y="419" type="line"/>
      <point x="328" y="428" type="line" smooth="yes"/>
      <point x="517" y="469"/>
      <point x="634" y="533"/>
      <point x="634" y="635" type="curve" smooth="yes"/>
      <point x="634" y="744"/>
      <point x="541" y="790"/>
      <point x="369" y="790" type="curve" smooth="yes"/>
      <point x="196" y="790"/>
      <point x="105" y="744"/>
      <point x="105" y="656" type="curve" smooth="yes"/>
      <point x="105" y="589"/>
      <point x="155" y="553"/>
      <point x="246" y="553" type="curve" smooth="yes"/>
      <point x="318" y="553" type="line"/>
      <point x="318" y="628" type="line"/>
      <point x="295" y="628"/>
      <point x="288" y="637"/>
      <point x="288" y="649" type="curve" smooth="yes"/>
      <point x="288" y="672"/>
      <point x="327" y="679"/>
      <point x="373" y="679" type="curve" smooth="yes"/>
      <point x="424" y="679"/>
      <point x="454" y="661"/>
      <point x="454" y="632" type="curve" smooth="yes"/>
      <point x="454" y="588"/>
      <point x="411" y="552"/>
      <point x="323" y="534" type="curve" smooth="yes"/>
      <point x="105" y="490" type="line"/>
      <point x="105" y="402" type="line" smooth="yes"/>
      <point x="105" y="290"/>
      <point x="179" y="244"/>
      <point x="279" y="244" type="curve" smooth="yes"/>
      <point x="354" y="244"/>
      <point x="419" y="274"/>
      <point x="453" y="299" type="curve"/>
      <point x="454" y="299" type="line"/>
    </contour>
  </outline>
</glyph>
<glyph name="uni17AE" format="2">
  <advance width="747"/>
  <unicode hex="17AE"/>
  <note>
uni17AE
</note>
  <outline>
    <contour>
      <point x="84" y="495" type="line"/>
      <point x="265" y="495" type="line"/>
      <point x="265" y="645" type="line" smooth="yes"/>
      <point x="265" y="656"/>
      <point x="271" y="662"/>
      <point x="278" y="662" type="curve" smooth="yes"/>
      <point x="296" y="662"/>
      <point x="319" y="601"/>
      <point x="348" y="601" type="curve" smooth="yes"/>
      <point x="379" y="601"/>
      <point x="398" y="662"/>
      <point x="419" y="662" type="curve" smooth="yes"/>
      <point x="426" y="662"/>
      <point x="433" y="656"/>
      <point x="433" y="645" type="curve" smooth="yes"/>
      <point x="433" y="244" type="line"/>
      <point x="614" y="244" type="line"/>
      <point x="614" y="645" type="line" smooth="yes"/>
      <point x="614" y="714"/>
      <point x="579" y="780"/>
      <point x="476" y="780" type="curve" smooth="yes"/>
      <point x="428" y="780"/>
      <point x="388" y="759"/>
      <point x="351" y="719" type="curve"/>
      <point x="348" y="719" type="line"/>
      <point x="312" y="760"/>
      <point x="270" y="780"/>
      <point x="223" y="780" type="curve" smooth="yes"/>
      <point x="121" y="780"/>
      <point x="84" y="715"/>
      <point x="84" y="645" type="curve" smooth="yes"/>
    </contour>
    <contour>
      <point x="84" y="506" type="line"/>
      <point x="84" y="314" type="line" smooth="yes"/>
      <point x="84" y="263"/>
      <point x="106" y="244"/>
      <point x="180" y="244" type="curve" smooth="yes"/>
      <point x="241" y="244" type="line" smooth="yes"/>
      <point x="334" y="244"/>
      <point x="389" y="293"/>
      <point x="389" y="366" type="curve" smooth="yes"/>
      <point x="389" y="451"/>
      <point x="344" y="484"/>
      <point x="265" y="485" type="curve"/>
      <point x="265" y="506" type="line" smooth="yes"/>
    </contour>
    <contour>
      <point x="265" y="324" type="curve"/>
      <point x="265" y="408" type="line"/>
      <point x="280" y="408"/>
      <point x="293" y="394"/>
      <point x="293" y="367" type="curve" smooth="yes"/>
      <point x="293" y="342"/>
      <point x="278" y="324"/>
    </contour>
    <contour>
      <point x="548" y="57" type="line"/>
      <point x="574" y="27"/>
      <point x="608" y="0"/>
      <point x="670" y="0" type="curve" smooth="yes"/>
      <point x="695" y="0" type="line"/>
      <point x="695" y="100" type="line"/>
      <point x="677" y="100" type="line" smooth="yes"/>
      <point x="630" y="100"/>
      <point x="612" y="112"/>
      <point x="601" y="126" type="curve"/>
    </contour>
    <contour>
      <point x="85" y="-10" type="line"/>
      <point x="276" y="-10" type="line" smooth="yes"/>
      <point x="501" y="-10"/>
      <point x="614" y="52"/>
      <point x="614" y="192" type="curve" smooth="yes"/>
      <point x="614" y="220" type="line"/>
      <point x="378" y="220" type="line"/>
      <point x="378" y="128" type="line"/>
      <point x="434" y="128" type="line"/>
      <point x="430" y="111"/>
      <point x="381" y="91"/>
      <point x="276" y="91" type="curve" smooth="yes"/>
      <point x="85" y="91" type="line"/>
    </contour>
  </outline>
</glyph>
<glyph name="uni17AF" format="2">
  <advance width="702"/>
  <unicode hex="17AF"/>
  <note>
uni17AF
</note>
  <outline>
    <contour>
      <point x="89" y="244" type="line"/>
      <point x="240" y="244" type="line"/>
      <point x="354" y="320" type="line"/>
      <point x="467" y="244" type="line"/>
      <point x="618" y="244" type="line"/>
      <point x="618" y="632" type="line" smooth="yes"/>
      <point x="618" y="731"/>
      <point x="557" y="780"/>
      <point x="434" y="780" type="curve" smooth="yes"/>
      <point x="321" y="780" type="line" smooth="yes"/>
      <point x="275" y="780"/>
      <point x="270" y="802"/>
      <point x="270" y="837" type="curve" smooth="yes"/>
      <point x="270" y="936" type="line"/>
      <point x="89" y="936" type="line"/>
      <point x="89" y="837" type="line" smooth="yes"/>
      <point x="89" y="713"/>
      <point x="158" y="668"/>
      <point x="295" y="668" type="curve" smooth="yes"/>
      <point x="388" y="668" type="line" smooth="yes"/>
      <point x="421" y="668"/>
      <point x="438" y="656"/>
      <point x="438" y="632" type="curve" smooth="yes"/>
      <point x="438" y="409" type="line"/>
      <point x="354" y="467" type="line"/>
      <point x="270" y="408" type="line"/>
      <point x="270" y="559" type="line" smooth="yes"/>
      <point x="270" y="606"/>
      <point x="231" y="631"/>
      <point x="158" y="631" type="curve" smooth="yes"/>
      <point x="40" y="631" type="line"/>
      <point x="40" y="519" type="line"/>
      <point x="65" y="519"/>
      <point x="89" y="518"/>
      <point x="89" y="499" type="curve" smooth="yes"/>
    </contour>
  </outline>
</glyph>
<glyph name="uni17B1" format="2">
  <advance width="697"/>
  <unicode hex="17B1"/>
  <note>
uni17B1
</note>
  <outline>
    <contour>
      <point x="80" y="805" type="curve"/>
      <point x="177" y="859" type="line"/>
      <point x="158" y="875"/>
      <point x="148" y="885"/>
      <point x="148" y="892" type="curve" smooth="yes"/>
      <point x="148" y="897"/>
      <point x="151" y="904"/>
      <point x="160" y="909" type="curve"/>
      <point x="416" y="909" type="line" smooth="yes"/>
      <point x="453" y="909"/>
      <point x="526" y="901"/>
      <point x="521" y="830" type="curve"/>
      <point x="640" y="864" type="line"/>
      <point x="624" y="984"/>
      <point x="542" y="1021"/>
      <point x="461" y="1021" type="curve" smooth="yes"/>
      <point x="107" y="1021" type="line"/>
      <point x="43" y="952"/>
      <point x="21" y="928"/>
      <point x="21" y="903" type="curve" smooth="yes"/>
      <point x="21" y="885"/>
      <point x="32" y="868"/>
    </contour>
    <contour>
      <point x="439" y="240" type="line"/>
      <point x="619" y="240" type="line"/>
      <point x="619" y="438" type="line"/>
      <point x="439" y="438" type="line"/>
      <point x="439" y="433" type="line" smooth="yes"/>
      <point x="439" y="394"/>
      <point x="362" y="356"/>
      <point x="324" y="356" type="curve" smooth="yes"/>
      <point x="289" y="356"/>
      <point x="271" y="380"/>
      <point x="271" y="414" type="curve" smooth="yes"/>
      <point x="271" y="419" type="line"/>
      <point x="313" y="428" type="line" smooth="yes"/>
      <point x="502" y="469"/>
      <point x="619" y="533"/>
      <point x="619" y="635" type="curve" smooth="yes"/>
      <point x="619" y="744"/>
      <point x="526" y="790"/>
      <point x="354" y="790" type="curve" smooth="yes"/>
      <point x="181" y="790"/>
      <point x="90" y="744"/>
      <point x="90" y="656" type="curve" smooth="yes"/>
      <point x="90" y="589"/>
      <point x="140" y="553"/>
      <point x="231" y="553" type="curve" smooth="yes"/>
      <point x="303" y="553" type="line"/>
      <point x="303" y="628" type="line"/>
      <point x="280" y="628"/>
      <point x="273" y="637"/>
      <point x="273" y="649" type="curve" smooth="yes"/>
      <point x="273" y="672"/>
      <point x="312" y="679"/>
      <point x="358" y="679" type="curve" smooth="yes"/>
      <point x="409" y="679"/>
      <point x="439" y="661"/>
      <point x="439" y="632" type="curve" smooth="yes"/>
      <point x="439" y="588"/>
      <point x="396" y="552"/>
      <point x="308" y="534" type="curve" smooth="yes"/>
      <point x="90" y="490" type="line"/>
      <point x="90" y="402" type="line" smooth="yes"/>
      <point x="90" y="290"/>
      <point x="164" y="244"/>
      <point x="264" y="244" type="curve" smooth="yes"/>
      <point x="339" y="244"/>
      <point x="404" y="274"/>
      <point x="438" y="299" type="curve"/>
      <point x="439" y="299" type="line"/>
    </contour>
  </outline>
</glyph>
<glyph name="uni17B2" format="2">
  <advance width="639"/>
  <unicode hex="17B2"/>
  <note>
uni17B2
</note>
  <outline>
    <contour>
      <point x="334" y="244" type="curve" smooth="yes"/>
      <point x="506" y="244"/>
      <point x="596" y="290"/>
      <point x="596" y="397" type="curve" smooth="yes"/>
      <point x="596" y="439"/>
      <point x="571" y="474"/>
      <point x="539" y="494" type="curve"/>
      <point x="573" y="529"/>
      <point x="579" y="539"/>
      <point x="579" y="556" type="curve" smooth="yes"/>
      <point x="579" y="568"/>
      <point x="576" y="571"/>
      <point x="516" y="649" type="curve"/>
      <point x="321" y="649" type="line"/>
      <point x="321" y="537" type="line"/>
      <point x="393" y="537" type="line"/>
      <point x="321" y="477" type="line"/>
      <point x="392" y="408" type="line"/>
      <point x="416" y="431" type="line"/>
      <point x="421" y="423"/>
      <point x="423" y="418"/>
      <point x="423" y="412" type="curve" smooth="yes"/>
      <point x="423" y="384"/>
      <point x="396" y="358"/>
      <point x="334" y="358" type="curve" smooth="yes"/>
      <point x="284" y="358"/>
      <point x="251" y="381"/>
      <point x="251" y="404" type="curve" smooth="yes"/>
      <point x="251" y="672" type="line" smooth="yes"/>
      <point x="251" y="703"/>
      <point x="275" y="718"/>
      <point x="322" y="718" type="curve" smooth="yes"/>
      <point x="399" y="718"/>
      <point x="456" y="706"/>
      <point x="493" y="682" type="curve"/>
      <point x="530" y="785" type="line"/>
      <point x="484" y="815"/>
      <point x="415" y="830"/>
      <point x="322" y="830" type="curve" smooth="yes"/>
      <point x="154" y="830"/>
      <point x="70" y="785"/>
      <point x="70" y="672" type="curve" smooth="yes"/>
      <point x="70" y="402" type="line" smooth="yes"/>
      <point x="70" y="290"/>
      <point x="163" y="244"/>
    </contour>
  </outline>
</glyph>
<glyph name="uni17B3" format="2">
  <advance width="688"/>
  <unicode hex="17B3"/>
  <note>
uni17B3
</note>
  <outline>
    <contour>
      <point x="457" y="1056" type="curve"/>
      <point x="338" y="1056" type="line"/>
      <point x="338" y="1046"/>
      <point x="340" y="1036"/>
      <point x="343" y="1026" type="curve" smooth="yes"/>
      <point x="347" y="1012"/>
      <point x="355" y="998"/>
      <point x="366" y="981" type="curve"/>
      <point x="133" y="981" type="line"/>
      <point x="69" y="912"/>
      <point x="47" y="888"/>
      <point x="47" y="863" type="curve" smooth="yes"/>
      <point x="47" y="845"/>
      <point x="58" y="828"/>
      <point x="106" y="765" type="curve"/>
      <point x="203" y="819" type="line"/>
      <point x="184" y="835"/>
      <point x="174" y="845"/>
      <point x="174" y="852" type="curve" smooth="yes"/>
      <point x="174" y="857"/>
      <point x="177" y="864"/>
      <point x="186" y="869" type="curve"/>
      <point x="462" y="869" type="line"/>
      <point x="540" y="777" type="line"/>
      <point x="601" y="814" type="line"/>
      <point x="584" y="918"/>
      <point x="556" y="964"/>
      <point x="496" y="977" type="curve"/>
      <point x="482" y="996"/>
      <point x="469" y="1011"/>
      <point x="463" y="1027" type="curve" smooth="yes"/>
      <point x="459" y="1036"/>
      <point x="457" y="1046"/>
    </contour>
    <contour>
      <point x="430" y="240" type="line"/>
      <point x="610" y="240" type="line"/>
      <point x="610" y="438" type="line"/>
      <point x="430" y="438" type="line"/>
      <point x="430" y="433" type="line" smooth="yes"/>
      <point x="430" y="394"/>
      <point x="353" y="356"/>
      <point x="315" y="356" type="curve" smooth="yes"/>
      <point x="280" y="356"/>
      <point x="262" y="380"/>
      <point x="262" y="414" type="curve" smooth="yes"/>
      <point x="262" y="419" type="line"/>
      <point x="304" y="428" type="line" smooth="yes"/>
      <point x="493" y="469"/>
      <point x="610" y="533"/>
      <point x="610" y="635" type="curve" smooth="yes"/>
      <point x="610" y="744"/>
      <point x="517" y="790"/>
      <point x="345" y="790" type="curve" smooth="yes"/>
      <point x="172" y="790"/>
      <point x="81" y="744"/>
      <point x="81" y="656" type="curve" smooth="yes"/>
      <point x="81" y="589"/>
      <point x="131" y="553"/>
      <point x="222" y="553" type="curve" smooth="yes"/>
      <point x="294" y="553" type="line"/>
      <point x="294" y="628" type="line"/>
      <point x="271" y="628"/>
      <point x="264" y="637"/>
      <point x="264" y="649" type="curve" smooth="yes"/>
      <point x="264" y="672"/>
      <point x="303" y="679"/>
      <point x="349" y="679" type="curve" smooth="yes"/>
      <point x="400" y="679"/>
      <point x="430" y="661"/>
      <point x="430" y="632" type="curve" smooth="yes"/>
      <point x="430" y="588"/>
      <point x="387" y="552"/>
      <point x="299" y="534" type="curve" smooth="yes"/>
      <point x="81" y="490" type="line"/>
      <point x="81" y="402" type="line" smooth="yes"/>
      <point x="81" y="290"/>
      <point x="155" y="244"/>
      <point x="255" y="244" type="curve" smooth="yes"/>
      <point x="330" y="244"/>
      <point x="395" y="274"/>
      <point x="429" y="299" type="curve"/>
      <point x="430" y="299" type="line"/>
    </contour>
  </outline>
</glyph>
<glyph name="uni17B5" format="2">
  <advance width="318"/>
  <unicode hex="17B5"/>
  <note>
uni17B5
</note>
  <outline>
    <contour>
      <point x="53" y="244" type="line"/>
      <point x="234" y="244" type="line"/>
      <point x="234" y="652" type="line" smooth="yes"/>
      <point x="234" y="733"/>
      <point x="189" y="780"/>
      <point x="73" y="780" type="curve" smooth="yes"/>
      <point x="-118" y="780" type="line"/>
      <point x="-118" y="668" type="line"/>
      <point x="-10" y="668" type="line" smooth="yes"/>
      <point x="39" y="668"/>
      <point x="53" y="655"/>
      <point x="53" y="607" type="curve" smooth="yes"/>
    </contour>
  </outline>
</glyph>
<glyph name="uni17B6" format="2">
  <advance width="318"/>
  <unicode hex="17B6"/>
  <note>
uni17B6
</note>
  <outline>
    <contour>
      <point x="53" y="244" type="line"/>
      <point x="234" y="244" type="line"/>
      <point x="234" y="652" type="line" smooth="yes"/>
      <point x="234" y="733"/>
      <point x="189" y="780"/>
      <point x="73" y="780" type="curve" smooth="yes"/>
      <point x="-118" y="780" type="line"/>
      <point x="-118" y="668" type="line"/>
      <point x="-10" y="668" type="line" smooth="yes"/>
      <point x="39" y="668"/>
      <point x="53" y="655"/>
      <point x="53" y="607" type="curve" smooth="yes"/>
    </contour>
  </outline>
</glyph>
<glyph name="uni17B7" format="2">
  <unicode hex="17B7"/>
  <note>
uni17B7
</note>
  <outline>
    <contour>
      <point x="-446" y="684" type="curve" smooth="yes"/>
      <point x="-78" y="684" type="line"/>
      <point x="-78" y="757" type="line"/>
      <point x="-167" y="838"/>
      <point x="-256" y="897"/>
      <point x="-360" y="897" type="curve" smooth="yes"/>
      <point x="-456" y="897"/>
      <point x="-536" y="848"/>
      <point x="-536" y="757" type="curve" smooth="yes"/>
      <point x="-536" y="708"/>
      <point x="-507" y="684"/>
    </contour>
    <contour>
      <point x="-414" y="763" type="line"/>
      <point x="-414" y="781"/>
      <point x="-398" y="795"/>
      <point x="-356" y="795" type="curve" smooth="yes"/>
      <point x="-316" y="795"/>
      <point x="-271" y="779"/>
      <point x="-254" y="763" type="curve"/>
    </contour>
  </outline>
</glyph>
<glyph name="uni17B9" format="2">
  <unicode hex="17B9"/>
  <note>
uni17B9
</note>
  <outline>
    <contour>
      <point x="-250" y="850" type="curve"/>
      <point x="-79" y="739" type="line"/>
      <point x="-70" y="748"/>
      <point x="-44" y="776"/>
      <point x="-44" y="814" type="curve" smooth="yes"/>
      <point x="-44" y="864"/>
      <point x="-84" y="911"/>
      <point x="-147" y="911" type="curve" smooth="yes"/>
      <point x="-187" y="911"/>
      <point x="-225" y="887"/>
    </contour>
    <contour>
      <point x="-173" y="829" type="line"/>
      <point x="-169" y="834"/>
      <point x="-159" y="841"/>
      <point x="-147" y="841" type="curve" smooth="yes"/>
      <point x="-134" y="841"/>
      <point x="-125" y="831"/>
      <point x="-125" y="821" type="curve" smooth="yes"/>
      <point x="-125" y="812"/>
      <point x="-132" y="805"/>
      <point x="-134" y="804" type="curve"/>
    </contour>
    <contour>
      <point x="-446" y="684" type="curve" smooth="yes"/>
      <point x="-78" y="684" type="line"/>
      <point x="-78" y="757" type="line"/>
      <point x="-167" y="838"/>
      <point x="-256" y="897"/>
      <point x="-360" y="897" type="curve" smooth="yes"/>
      <point x="-456" y="897"/>
      <point x="-536" y="848"/>
      <point x="-536" y="757" type="curve" smooth="yes"/>
      <point x="-536" y="708"/>
      <point x="-507" y="684"/>
    </contour>
    <contour>
      <point x="-414" y="763" type="line"/>
      <point x="-414" y="781"/>
      <point x="-398" y="795"/>
      <point x="-356" y="795" type="curve" smooth="yes"/>
      <point x="-316" y="795"/>
      <point x="-271" y="779"/>
      <point x="-254" y="763" type="curve"/>
    </contour>
  </outline>
</glyph>
<glyph name="uni17BA" format="2">
  <unicode hex="17BA"/>
  <note>
uni17BA
</note>
  <outline>
    <contour>
      <point x="-174" y="885" type="line"/>
      <point x="-174" y="684" type="line"/>
      <point x="-78" y="684" type="line"/>
      <point x="-78" y="885" type="line"/>
    </contour>
    <contour>
      <point x="-296" y="910" type="line"/>
      <point x="-296" y="825" type="line"/>
      <point x="-200" y="825" type="line"/>
      <point x="-200" y="910" type="line"/>
    </contour>
    <contour>
      <point x="-446" y="684" type="curve" smooth="yes"/>
      <point x="-78" y="684" type="line"/>
      <point x="-78" y="757" type="line"/>
      <point x="-167" y="838"/>
      <point x="-256" y="897"/>
      <point x="-360" y="897" type="curve" smooth="yes"/>
      <point x="-456" y="897"/>
      <point x="-536" y="848"/>
      <point x="-536" y="757" type="curve" smooth="yes"/>
      <point x="-536" y="708"/>
      <point x="-507" y="684"/>
    </contour>
    <contour>
      <point x="-414" y="763" type="line"/>
      <point x="-414" y="781"/>
      <point x="-398" y="795"/>
      <point x="-356" y="795" type="curve" smooth="yes"/>
      <point x="-316" y="795"/>
      <point x="-271" y="779"/>
      <point x="-254" y="763" type="curve"/>
    </contour>
  </outline>
</glyph>
<glyph name="uni17BB" format="2">
  <unicode hex="17BB"/>
  <note>
uni17BB
</note>
  <outline>
    <contour>
      <point x="-386" y="-244" type="line"/>
      <point x="-205" y="-244" type="line"/>
      <point x="-205" y="-50" type="line"/>
      <point x="-418" y="-50" type="line"/>
      <point x="-418" y="-142" type="line"/>
      <point x="-386" y="-142" type="line"/>
    </contour>
  </outline>
</glyph>
<glyph name="uni17BC" format="2">
  <unicode hex="17BC"/>
  <note>
uni17BC
</note>
  <outline>
    <contour>
      <point x="-309" y="-244" type="curve" smooth="yes"/>
      <point x="-198" y="-244"/>
      <point x="-136" y="-204"/>
      <point x="-136" y="-124" type="curve" smooth="yes"/>
      <point x="-136" y="-50" type="line"/>
      <point x="-277" y="-50" type="line"/>
      <point x="-277" y="-99" type="line" smooth="yes"/>
      <point x="-277" y="-128"/>
      <point x="-288" y="-143"/>
      <point x="-309" y="-143" type="curve" smooth="yes"/>
      <point x="-331" y="-143"/>
      <point x="-342" y="-128"/>
      <point x="-342" y="-99" type="curve" smooth="yes"/>
      <point x="-342" y="-50" type="line"/>
      <point x="-483" y="-50" type="line"/>
      <point x="-483" y="-124" type="line" smooth="yes"/>
      <point x="-483" y="-204"/>
      <point x="-420" y="-244"/>
    </contour>
  </outline>
</glyph>
<glyph name="uni17BD" format="2">
  <unicode hex="17BD"/>
  <note>
uni17BD
</note>
  <outline>
    <contour>
      <point x="-484" y="-244" type="line"/>
      <point x="-361" y="-244" type="line"/>
      <point x="-310" y="-209" type="line"/>
      <point x="-260" y="-244" type="line"/>
      <point x="-136" y="-244" type="line"/>
      <point x="-136" y="-50" type="line"/>
      <point x="-275" y="-50" type="line"/>
      <point x="-275" y="-117" type="line"/>
      <point x="-310" y="-94" type="line"/>
      <point x="-345" y="-117" type="line"/>
      <point x="-345" y="-50" type="line"/>
      <point x="-484" y="-50" type="line"/>
    </contour>
  </outline>
</glyph>
<glyph name="uni17BE" format="2">
  <unicode hex="17BE"/>
  <note>
uni17BE
</note>
  <outline>
    <contour>
      <point x="814" y="830" type="line"/>
      <point x="814" y="1056" type="line"/>
      <point x="699" y="1056" type="line"/>
      <point x="699" y="830" type="line"/>
    </contour>
    <contour>
      <point x="446" y="830" type="curve" smooth="yes"/>
      <point x="814" y="830" type="line"/>
      <point x="814" y="903" type="line"/>
      <point x="725" y="984"/>
      <point x="636" y="1043"/>
      <point x="532" y="1043" type="curve" smooth="yes"/>
      <point x="436" y="1043"/>
      <point x="356" y="994"/>
      <point x="356" y="903" type="curve" smooth="yes"/>
      <point x="356" y="854"/>
      <point x="385" y="830"/>
    </contour>
    <contour>
      <point x="478" y="909" type="line"/>
      <point x="478" y="927"/>
      <point x="494" y="941"/>
      <point x="536" y="941" type="curve" smooth="yes"/>
      <point x="576" y="941"/>
      <point x="621" y="925"/>
      <point x="638" y="909" type="curve"/>
    </contour>
    <contour>
      <point x="263" y="568" type="line"/>
      <point x="82" y="568" type="line"/>
      <point x="82" y="294" type="line" smooth="yes"/>
      <point x="82" y="261"/>
      <point x="108" y="244"/>
      <point x="155" y="244" type="curve" smooth="yes"/>
      <point x="307" y="244" type="line"/>
      <point x="307" y="356" type="line"/>
      <point x="283" y="356" type="line" smooth="yes"/>
      <point x="266" y="356"/>
      <point x="263" y="362"/>
      <point x="263" y="379" type="curve" smooth="yes"/>
    </contour>
    <contour>
      <point x="82" y="548" type="line"/>
      <point x="263" y="548" type="line"/>
      <point x="263" y="604" type="line"/>
      <point x="201" y="667" type="line"/>
      <point x="201" y="668" type="line"/>
      <point x="271" y="668" type="line"/>
      <point x="271" y="780" type="line"/>
      <point x="104" y="780" type="line"/>
      <point x="62" y="726"/>
      <point x="40" y="698"/>
      <point x="40" y="685" type="curve" smooth="yes"/>
      <point x="40" y="676"/>
      <point x="42" y="673"/>
      <point x="82" y="620" type="curve"/>
    </contour>
    <contour>
      <point x="395" y="495" type="curve" smooth="yes"/>
      <point x="417" y="495"/>
      <point x="435" y="513"/>
      <point x="435" y="535" type="curve" smooth="yes"/>
      <point x="435" y="557"/>
      <point x="417" y="575"/>
      <point x="395" y="575" type="curve" smooth="yes"/>
      <point x="373" y="575"/>
      <point x="355" y="557"/>
      <point x="355" y="535" type="curve" smooth="yes"/>
      <point x="355" y="513"/>
      <point x="373" y="495"/>
    </contour>
    <contour>
      <point x="421" y="596" type="curve" smooth="yes"/>
      <point x="443" y="596"/>
      <point x="461" y="614"/>
      <point x="461" y="636" type="curve" smooth="yes"/>
      <point x="461" y="658"/>
      <point x="443" y="676"/>
      <point x="421" y="676" type="curve" smooth="yes"/>
      <point x="399" y="676"/>
      <point x="381" y="658"/>
      <point x="381" y="636" type="curve" smooth="yes"/>
      <point x="381" y="614"/>
      <point x="399" y="596"/>
    </contour>
    <contour>
      <point x="492" y="666" type="curve" smooth="yes"/>
      <point x="514" y="666"/>
      <point x="532" y="684"/>
      <point x="532" y="706" type="curve" smooth="yes"/>
      <point x="532" y="728"/>
      <point x="514" y="746"/>
      <point x="492" y="746" type="curve" smooth="yes"/>
      <point x="470" y="746"/>
      <point x="452" y="728"/>
      <point x="452" y="706" type="curve" smooth="yes"/>
      <point x="452" y="684"/>
      <point x="470" y="666"/>
    </contour>
    <contour>
      <point x="589" y="690" type="curve" smooth="yes"/>
      <point x="611" y="690"/>
      <point x="629" y="708"/>
      <point x="629" y="730" type="curve" smooth="yes"/>
      <point x="629" y="752"/>
      <point x="611" y="770"/>
      <point x="589" y="770" type="curve" smooth="yes"/>
      <point x="567" y="770"/>
      <point x="549" y="752"/>
      <point x="549" y="730" type="curve" smooth="yes"/>
      <point x="549" y="708"/>
      <point x="567" y="690"/>
    </contour>
    <contour>
      <point x="686" y="666" type="curve" smooth="yes"/>
      <point x="708" y="666"/>
      <point x="726" y="684"/>
      <point x="726" y="706" type="curve" smooth="yes"/>
      <point x="726" y="728"/>
      <point x="708" y="746"/>
      <point x="686" y="746" type="curve" smooth="yes"/>
      <point x="664" y="746"/>
      <point x="646" y="728"/>
      <point x="646" y="706" type="curve" smooth="yes"/>
      <point x="646" y="684"/>
      <point x="664" y="666"/>
    </contour>
    <contour>
      <point x="756" y="594" type="curve" smooth="yes"/>
      <point x="778" y="594"/>
      <point x="796" y="612"/>
      <point x="796" y="634" type="curve" smooth="yes"/>
      <point x="796" y="656"/>
      <point x="778" y="674"/>
      <point x="756" y="674" type="curve" smooth="yes"/>
      <point x="734" y="674"/>
      <point x="716" y="656"/>
      <point x="716" y="634" type="curve" smooth="yes"/>
      <point x="716" y="612"/>
      <point x="734" y="594"/>
    </contour>
    <contour>
      <point x="786" y="495" type="curve" smooth="yes"/>
      <point x="808" y="495"/>
      <point x="826" y="513"/>
      <point x="826" y="535" type="curve" smooth="yes"/>
      <point x="826" y="557"/>
      <point x="808" y="575"/>
      <point x="786" y="575" type="curve" smooth="yes"/>
      <point x="764" y="575"/>
      <point x="746" y="557"/>
      <point x="746" y="535" type="curve" smooth="yes"/>
      <point x="746" y="513"/>
      <point x="764" y="495"/>
    </contour>
    <contour>
      <point x="758" y="401" type="curve" smooth="yes"/>
      <point x="780" y="401"/>
      <point x="798" y="419"/>
      <point x="798" y="441" type="curve" smooth="yes"/>
      <point x="798" y="463"/>
      <point x="780" y="481"/>
      <point x="758" y="481" type="curve" smooth="yes"/>
      <point x="736" y="481"/>
      <point x="718" y="463"/>
      <point x="718" y="441" type="curve" smooth="yes"/>
      <point x="718" y="419"/>
      <point x="736" y="401"/>
    </contour>
    <contour>
      <point x="687" y="329" type="curve" smooth="yes"/>
      <point x="709" y="329"/>
      <point x="727" y="347"/>
      <point x="727" y="369" type="curve" smooth="yes"/>
      <point x="727" y="391"/>
      <point x="709" y="409"/>
      <point x="687" y="409" type="curve" smooth="yes"/>
      <point x="665" y="409"/>
      <point x="647" y="391"/>
      <point x="647" y="369" type="curve" smooth="yes"/>
      <point x="647" y="347"/>
      <point x="665" y="329"/>
    </contour>
    <contour>
      <point x="589" y="301" type="curve" smooth="yes"/>
      <point x="611" y="301"/>
      <point x="629" y="319"/>
      <point x="629" y="341" type="curve" smooth="yes"/>
      <point x="629" y="363"/>
      <point x="611" y="381"/>
      <point x="589" y="381" type="curve" smooth="yes"/>
      <point x="567" y="381"/>
      <point x="549" y="363"/>
      <point x="549" y="341" type="curve" smooth="yes"/>
      <point x="549" y="319"/>
      <point x="567" y="301"/>
    </contour>
    <contour>
      <point x="492" y="328" type="curve" smooth="yes"/>
      <point x="514" y="328"/>
      <point x="532" y="346"/>
      <point x="532" y="368" type="curve" smooth="yes"/>
      <point x="532" y="390"/>
      <point x="514" y="408"/>
      <point x="492" y="408" type="curve" smooth="yes"/>
      <point x="470" y="408"/>
      <point x="452" y="390"/>
      <point x="452" y="368" type="curve" smooth="yes"/>
      <point x="452" y="346"/>
      <point x="470" y="328"/>
    </contour>
    <contour>
      <point x="419" y="400" type="curve" smooth="yes"/>
      <point x="441" y="400"/>
      <point x="459" y="418"/>
      <point x="459" y="440" type="curve" smooth="yes"/>
      <point x="459" y="462"/>
      <point x="441" y="480"/>
      <point x="419" y="480" type="curve" smooth="yes"/>
      <point x="397" y="480"/>
      <point x="379" y="462"/>
      <point x="379" y="440" type="curve" smooth="yes"/>
      <point x="379" y="418"/>
      <point x="397" y="400"/>
    </contour>
  </outline>
</glyph>
<glyph name="uni17BF" format="2">
  <advance width="1211"/>
  <unicode hex="17BF"/>
  <note>
uni17BF
</note>
  <outline>
    <contour>
      <point x="263" y="568" type="line"/>
      <point x="82" y="568" type="line"/>
      <point x="82" y="294" type="line" smooth="yes"/>
      <point x="82" y="261"/>
      <point x="108" y="244"/>
      <point x="155" y="244" type="curve" smooth="yes"/>
      <point x="307" y="244" type="line"/>
      <point x="307" y="356" type="line"/>
      <point x="283" y="356" type="line" smooth="yes"/>
      <point x="266" y="356"/>
      <point x="263" y="362"/>
      <point x="263" y="379" type="curve" smooth="yes"/>
    </contour>
    <contour>
      <point x="82" y="548" type="line"/>
      <point x="263" y="548" type="line"/>
      <point x="263" y="604" type="line"/>
      <point x="201" y="667" type="line"/>
      <point x="201" y="668" type="line"/>
      <point x="271" y="668" type="line"/>
      <point x="271" y="780" type="line"/>
      <point x="104" y="780" type="line"/>
      <point x="62" y="726"/>
      <point x="40" y="698"/>
      <point x="40" y="685" type="curve" smooth="yes"/>
      <point x="40" y="676"/>
      <point x="42" y="673"/>
      <point x="82" y="620" type="curve"/>
    </contour>
    <contour>
      <point x="411" y="495" type="curve" smooth="yes"/>
      <point x="433" y="495"/>
      <point x="451" y="513"/>
      <point x="451" y="535" type="curve" smooth="yes"/>
      <point x="451" y="557"/>
      <point x="433" y="575"/>
      <point x="411" y="575" type="curve" smooth="yes"/>
      <point x="389" y="575"/>
      <point x="371" y="557"/>
      <point x="371" y="535" type="curve" smooth="yes"/>
      <point x="371" y="513"/>
      <point x="389" y="495"/>
    </contour>
    <contour>
      <point x="437" y="596" type="curve" smooth="yes"/>
      <point x="459" y="596"/>
      <point x="477" y="614"/>
      <point x="477" y="636" type="curve" smooth="yes"/>
      <point x="477" y="658"/>
      <point x="459" y="676"/>
      <point x="437" y="676" type="curve" smooth="yes"/>
      <point x="415" y="676"/>
      <point x="397" y="658"/>
      <point x="397" y="636" type="curve" smooth="yes"/>
      <point x="397" y="614"/>
      <point x="415" y="596"/>
    </contour>
    <contour>
      <point x="508" y="666" type="curve" smooth="yes"/>
      <point x="530" y="666"/>
      <point x="548" y="684"/>
      <point x="548" y="706" type="curve" smooth="yes"/>
      <point x="548" y="728"/>
      <point x="530" y="746"/>
      <point x="508" y="746" type="curve" smooth="yes"/>
      <point x="486" y="746"/>
      <point x="468" y="728"/>
      <point x="468" y="706" type="curve" smooth="yes"/>
      <point x="468" y="684"/>
      <point x="486" y="666"/>
    </contour>
    <contour>
      <point x="605" y="690" type="curve" smooth="yes"/>
      <point x="627" y="690"/>
      <point x="645" y="708"/>
      <point x="645" y="730" type="curve" smooth="yes"/>
      <point x="645" y="752"/>
      <point x="627" y="770"/>
      <point x="605" y="770" type="curve" smooth="yes"/>
      <point x="583" y="770"/>
      <point x="565" y="752"/>
      <point x="565" y="730" type="curve" smooth="yes"/>
      <point x="565" y="708"/>
      <point x="583" y="690"/>
    </contour>
    <contour>
      <point x="702" y="666" type="curve" smooth="yes"/>
      <point x="724" y="666"/>
      <point x="742" y="684"/>
      <point x="742" y="706" type="curve" smooth="yes"/>
      <point x="742" y="728"/>
      <point x="724" y="746"/>
      <point x="702" y="746" type="curve" smooth="yes"/>
      <point x="680" y="746"/>
      <point x="662" y="728"/>
      <point x="662" y="706" type="curve" smooth="yes"/>
      <point x="662" y="684"/>
      <point x="680" y="666"/>
    </contour>
    <contour>
      <point x="772" y="594" type="curve" smooth="yes"/>
      <point x="794" y="594"/>
      <point x="812" y="612"/>
      <point x="812" y="634" type="curve" smooth="yes"/>
      <point x="812" y="656"/>
      <point x="794" y="674"/>
      <point x="772" y="674" type="curve" smooth="yes"/>
      <point x="750" y="674"/>
      <point x="732" y="656"/>
      <point x="732" y="634" type="curve" smooth="yes"/>
      <point x="732" y="612"/>
      <point x="750" y="594"/>
    </contour>
    <contour>
      <point x="802" y="495" type="curve" smooth="yes"/>
      <point x="824" y="495"/>
      <point x="842" y="513"/>
      <point x="842" y="535" type="curve" smooth="yes"/>
      <point x="842" y="557"/>
      <point x="824" y="575"/>
      <point x="802" y="575" type="curve" smooth="yes"/>
      <point x="780" y="575"/>
      <point x="762" y="557"/>
      <point x="762" y="535" type="curve" smooth="yes"/>
      <point x="762" y="513"/>
      <point x="780" y="495"/>
    </contour>
    <contour>
      <point x="774" y="401" type="curve" smooth="yes"/>
      <point x="796" y="401"/>
      <point x="814" y="419"/>
      <point x="814" y="441" type="curve" smooth="yes"/>
      <point x="814" y="463"/>
      <point x="796" y="481"/>
      <point x="774" y="481" type="curve" smooth="yes"/>
      <point x="752" y="481"/>
      <point x="734" y="463"/>
      <point x="734" y="441" type="curve" smooth="yes"/>
      <point x="734" y="419"/>
      <point x="752" y="401"/>
    </contour>
    <contour>
      <point x="703" y="329" type="curve" smooth="yes"/>
      <point x="725" y="329"/>
      <point x="743" y="347"/>
      <point x="743" y="369" type="curve" smooth="yes"/>
      <point x="743" y="391"/>
      <point x="725" y="409"/>
      <point x="703" y="409" type="curve" smooth="yes"/>
      <point x="681" y="409"/>
      <point x="663" y="391"/>
      <point x="663" y="369" type="curve" smooth="yes"/>
      <point x="663" y="347"/>
      <point x="681" y="329"/>
    </contour>
    <contour>
      <point x="605" y="301" type="curve" smooth="yes"/>
      <point x="627" y="301"/>
      <point x="645" y="319"/>
      <point x="645" y="341" type="curve" smooth="yes"/>
      <point x="645" y="363"/>
      <point x="627" y="381"/>
      <point x="605" y="381" type="curve" smooth="yes"/>
      <point x="583" y="381"/>
      <point x="565" y="363"/>
      <point x="565" y="341" type="curve" smooth="yes"/>
      <point x="565" y="319"/>
      <point x="583" y="301"/>
    </contour>
    <contour>
      <point x="508" y="328" type="curve" smooth="yes"/>
      <point x="530" y="328"/>
      <point x="548" y="346"/>
      <point x="548" y="368" type="curve" smooth="yes"/>
      <point x="548" y="390"/>
      <point x="530" y="408"/>
      <point x="508" y="408" type="curve" smooth="yes"/>
      <point x="486" y="408"/>
      <point x="468" y="390"/>
      <point x="468" y="368" type="curve" smooth="yes"/>
      <point x="468" y="346"/>
      <point x="486" y="328"/>
    </contour>
    <contour>
      <point x="435" y="400" type="curve" smooth="yes"/>
      <point x="457" y="400"/>
      <point x="475" y="418"/>
      <point x="475" y="440" type="curve" smooth="yes"/>
      <point x="475" y="462"/>
      <point x="457" y="480"/>
      <point x="435" y="480" type="curve" smooth="yes"/>
      <point x="413" y="480"/>
      <point x="395" y="462"/>
      <point x="395" y="440" type="curve" smooth="yes"/>
      <point x="395" y="418"/>
      <point x="413" y="400"/>
    </contour>
    <contour>
      <point x="1121" y="722" type="line"/>
      <point x="940" y="722" type="line"/>
      <point x="940" y="118" type="line" smooth="yes"/>
      <point x="940" y="103"/>
      <point x="922" y="96"/>
      <point x="887" y="96" type="curve" smooth="yes"/>
      <point x="852" y="96"/>
      <point x="834" y="103"/>
      <point x="834" y="118" type="curve" smooth="yes"/>
      <point x="834" y="122" type="line"/>
      <point x="848" y="122" type="line"/>
      <point x="848" y="195" type="line"/>
      <point x="653" y="195" type="line"/>
      <point x="653" y="118" type="line" smooth="yes"/>
      <point x="653" y="40"/>
      <point x="731" y="0"/>
      <point x="887" y="0" type="curve" smooth="yes"/>
      <point x="1043" y="0"/>
      <point x="1121" y="39"/>
      <point x="1121" y="117" type="curve" smooth="yes"/>
    </contour>
    <contour>
      <point x="940" y="708" type="line"/>
      <point x="1121" y="708" type="line"/>
      <point x="1121" y="753" type="line" smooth="yes"/>
      <point x="1121" y="849"/>
      <point x="1096" y="916"/>
      <point x="1004" y="980" type="curve" smooth="yes"/>
      <point x="915" y="1042"/>
      <point x="845" y="1052"/>
      <point x="799" y="1052" type="curve" smooth="yes"/>
      <point x="699" y="1052"/>
      <point x="633" y="1002"/>
      <point x="633" y="933" type="curve" smooth="yes"/>
      <point x="633" y="888"/>
      <point x="661" y="843"/>
      <point x="756" y="843" type="curve" smooth="yes"/>
      <point x="887" y="843" type="line" smooth="yes"/>
      <point x="922" y="843"/>
      <point x="940" y="827"/>
      <point x="940" y="795" type="curve" smooth="yes"/>
    </contour>
    <contour>
      <point x="769" y="922" type="line"/>
      <point x="769" y="941"/>
      <point x="786" y="955"/>
      <point x="814" y="955" type="curve" smooth="yes"/>
      <point x="839" y="955"/>
      <point x="868" y="944"/>
      <point x="896" y="922" type="curve"/>
    </contour>
    <contour>
      <point x="972" y="972" type="line"/>
      <point x="972" y="1056" type="line"/>
      <point x="877" y="1056" type="line"/>
      <point x="877" y="1013" type="line"/>
    </contour>
    <contour>
      <point x="1089" y="885" type="line"/>
      <point x="1089" y="1036" type="line"/>
      <point x="994" y="1036" type="line"/>
      <point x="994" y="963" type="line"/>
    </contour>
  </outline>
</glyph>
<glyph name="uni17C0" format="2">
  <advance width="1258"/>
  <unicode hex="17C0"/>
  <note>
uni17C0
</note>
  <outline>
    <contour>
      <point x="263" y="568" type="line"/>
      <point x="82" y="568" type="line"/>
      <point x="82" y="294" type="line" smooth="yes"/>
      <point x="82" y="261"/>
      <point x="108" y="244"/>
      <point x="155" y="244" type="curve" smooth="yes"/>
      <point x="307" y="244" type="line"/>
      <point x="307" y="356" type="line"/>
      <point x="283" y="356" type="line" smooth="yes"/>
      <point x="266" y="356"/>
      <point x="263" y="362"/>
      <point x="263" y="379" type="curve" smooth="yes"/>
    </contour>
    <contour>
      <point x="82" y="548" type="line"/>
      <point x="263" y="548" type="line"/>
      <point x="263" y="604" type="line"/>
      <point x="201" y="667" type="line"/>
      <point x="201" y="668" type="line"/>
      <point x="271" y="668" type="line"/>
      <point x="271" y="780" type="line"/>
      <point x="104" y="780" type="line"/>
      <point x="62" y="726"/>
      <point x="40" y="698"/>
      <point x="40" y="685" type="curve" smooth="yes"/>
      <point x="40" y="676"/>
      <point x="42" y="673"/>
      <point x="82" y="620" type="curve"/>
    </contour>
    <contour>
      <point x="430" y="495" type="curve" smooth="yes"/>
      <point x="452" y="495"/>
      <point x="470" y="513"/>
      <point x="470" y="535" type="curve" smooth="yes"/>
      <point x="470" y="557"/>
      <point x="452" y="575"/>
      <point x="430" y="575" type="curve" smooth="yes"/>
      <point x="408" y="575"/>
      <point x="390" y="557"/>
      <point x="390" y="535" type="curve" smooth="yes"/>
      <point x="390" y="513"/>
      <point x="408" y="495"/>
    </contour>
    <contour>
      <point x="456" y="596" type="curve" smooth="yes"/>
      <point x="478" y="596"/>
      <point x="496" y="614"/>
      <point x="496" y="636" type="curve" smooth="yes"/>
      <point x="496" y="658"/>
      <point x="478" y="676"/>
      <point x="456" y="676" type="curve" smooth="yes"/>
      <point x="434" y="676"/>
      <point x="416" y="658"/>
      <point x="416" y="636" type="curve" smooth="yes"/>
      <point x="416" y="614"/>
      <point x="434" y="596"/>
    </contour>
    <contour>
      <point x="527" y="666" type="curve" smooth="yes"/>
      <point x="549" y="666"/>
      <point x="567" y="684"/>
      <point x="567" y="706" type="curve" smooth="yes"/>
      <point x="567" y="728"/>
      <point x="549" y="746"/>
      <point x="527" y="746" type="curve" smooth="yes"/>
      <point x="505" y="746"/>
      <point x="487" y="728"/>
      <point x="487" y="706" type="curve" smooth="yes"/>
      <point x="487" y="684"/>
      <point x="505" y="666"/>
    </contour>
    <contour>
      <point x="624" y="690" type="curve" smooth="yes"/>
      <point x="646" y="690"/>
      <point x="664" y="708"/>
      <point x="664" y="730" type="curve" smooth="yes"/>
      <point x="664" y="752"/>
      <point x="646" y="770"/>
      <point x="624" y="770" type="curve" smooth="yes"/>
      <point x="602" y="770"/>
      <point x="584" y="752"/>
      <point x="584" y="730" type="curve" smooth="yes"/>
      <point x="584" y="708"/>
      <point x="602" y="690"/>
    </contour>
    <contour>
      <point x="721" y="666" type="curve" smooth="yes"/>
      <point x="743" y="666"/>
      <point x="761" y="684"/>
      <point x="761" y="706" type="curve" smooth="yes"/>
      <point x="761" y="728"/>
      <point x="743" y="746"/>
      <point x="721" y="746" type="curve" smooth="yes"/>
      <point x="699" y="746"/>
      <point x="681" y="728"/>
      <point x="681" y="706" type="curve" smooth="yes"/>
      <point x="681" y="684"/>
      <point x="699" y="666"/>
    </contour>
    <contour>
      <point x="791" y="594" type="curve" smooth="yes"/>
      <point x="813" y="594"/>
      <point x="831" y="612"/>
      <point x="831" y="634" type="curve" smooth="yes"/>
      <point x="831" y="656"/>
      <point x="813" y="674"/>
      <point x="791" y="674" type="curve" smooth="yes"/>
      <point x="769" y="674"/>
      <point x="751" y="656"/>
      <point x="751" y="634" type="curve" smooth="yes"/>
      <point x="751" y="612"/>
      <point x="769" y="594"/>
    </contour>
    <contour>
      <point x="821" y="495" type="curve" smooth="yes"/>
      <point x="843" y="495"/>
      <point x="861" y="513"/>
      <point x="861" y="535" type="curve" smooth="yes"/>
      <point x="861" y="557"/>
      <point x="843" y="575"/>
      <point x="821" y="575" type="curve" smooth="yes"/>
      <point x="799" y="575"/>
      <point x="781" y="557"/>
      <point x="781" y="535" type="curve" smooth="yes"/>
      <point x="781" y="513"/>
      <point x="799" y="495"/>
    </contour>
    <contour>
      <point x="793" y="401" type="curve" smooth="yes"/>
      <point x="815" y="401"/>
      <point x="833" y="419"/>
      <point x="833" y="441" type="curve" smooth="yes"/>
      <point x="833" y="463"/>
      <point x="815" y="481"/>
      <point x="793" y="481" type="curve" smooth="yes"/>
      <point x="771" y="481"/>
      <point x="753" y="463"/>
      <point x="753" y="441" type="curve" smooth="yes"/>
      <point x="753" y="419"/>
      <point x="771" y="401"/>
    </contour>
    <contour>
      <point x="722" y="329" type="curve" smooth="yes"/>
      <point x="744" y="329"/>
      <point x="762" y="347"/>
      <point x="762" y="369" type="curve" smooth="yes"/>
      <point x="762" y="391"/>
      <point x="744" y="409"/>
      <point x="722" y="409" type="curve" smooth="yes"/>
      <point x="700" y="409"/>
      <point x="682" y="391"/>
      <point x="682" y="369" type="curve" smooth="yes"/>
      <point x="682" y="347"/>
      <point x="700" y="329"/>
    </contour>
    <contour>
      <point x="624" y="301" type="curve" smooth="yes"/>
      <point x="646" y="301"/>
      <point x="664" y="319"/>
      <point x="664" y="341" type="curve" smooth="yes"/>
      <point x="664" y="363"/>
      <point x="646" y="381"/>
      <point x="624" y="381" type="curve" smooth="yes"/>
      <point x="602" y="381"/>
      <point x="584" y="363"/>
      <point x="584" y="341" type="curve" smooth="yes"/>
      <point x="584" y="319"/>
      <point x="602" y="301"/>
    </contour>
    <contour>
      <point x="527" y="328" type="curve" smooth="yes"/>
      <point x="549" y="328"/>
      <point x="567" y="346"/>
      <point x="567" y="368" type="curve" smooth="yes"/>
      <point x="567" y="390"/>
      <point x="549" y="408"/>
      <point x="527" y="408" type="curve" smooth="yes"/>
      <point x="505" y="408"/>
      <point x="487" y="390"/>
      <point x="487" y="368" type="curve" smooth="yes"/>
      <point x="487" y="346"/>
      <point x="505" y="328"/>
    </contour>
    <contour>
      <point x="454" y="400" type="curve" smooth="yes"/>
      <point x="476" y="400"/>
      <point x="494" y="418"/>
      <point x="494" y="440" type="curve" smooth="yes"/>
      <point x="494" y="462"/>
      <point x="476" y="480"/>
      <point x="454" y="480" type="curve" smooth="yes"/>
      <point x="432" y="480"/>
      <point x="414" y="462"/>
      <point x="414" y="440" type="curve" smooth="yes"/>
      <point x="414" y="418"/>
      <point x="432" y="400"/>
    </contour>
    <contour>
      <point x="1168" y="735" type="line"/>
      <point x="987" y="735" type="line"/>
      <point x="987" y="118" type="line" smooth="yes"/>
      <point x="987" y="103"/>
      <point x="969" y="96"/>
      <point x="934" y="96" type="curve" smooth="yes"/>
      <point x="899" y="96"/>
      <point x="881" y="103"/>
      <point x="881" y="118" type="curve" smooth="yes"/>
      <point x="881" y="122" type="line"/>
      <point x="895" y="122" type="line"/>
      <point x="895" y="195" type="line"/>
      <point x="700" y="195" type="line"/>
      <point x="700" y="118" type="line" smooth="yes"/>
      <point x="700" y="40"/>
      <point x="778" y="0"/>
      <point x="934" y="0" type="curve" smooth="yes"/>
      <point x="1090" y="0"/>
      <point x="1168" y="39"/>
      <point x="1168" y="117" type="curve" smooth="yes"/>
    </contour>
    <contour>
      <point x="987" y="725" type="line"/>
      <point x="1168" y="725" type="line"/>
      <point x="1168" y="834" type="line" smooth="yes"/>
      <point x="1168" y="951"/>
      <point x="1092" y="1040"/>
      <point x="971" y="1040" type="curve" smooth="yes"/>
      <point x="925" y="1040"/>
      <point x="900" y="1025"/>
      <point x="881" y="1013" type="curve"/>
      <point x="881" y="1056" type="line"/>
      <point x="700" y="1056" type="line"/>
      <point x="700" y="887" type="line"/>
      <point x="881" y="887" type="line"/>
      <point x="890" y="898"/>
      <point x="902" y="907"/>
      <point x="925" y="907" type="curve" smooth="yes"/>
      <point x="962" y="907"/>
      <point x="987" y="880"/>
      <point x="987" y="817" type="curve" smooth="yes"/>
    </contour>
  </outline>
</glyph>
<glyph name="uni17C1" format="2">
  <advance width="327"/>
  <unicode hex="17C1"/>
  <note>
uni17C1
</note>
  <outline>
    <contour>
      <point x="263" y="568" type="line"/>
      <point x="82" y="568" type="line"/>
      <point x="82" y="294" type="line" smooth="yes"/>
      <point x="82" y="261"/>
      <point x="108" y="244"/>
      <point x="155" y="244" type="curve" smooth="yes"/>
      <point x="307" y="244" type="line"/>
      <point x="307" y="356" type="line"/>
      <point x="283" y="356" type="line" smooth="yes"/>
      <point x="266" y="356"/>
      <point x="263" y="362"/>
      <point x="263" y="379" type="curve" smooth="yes"/>
    </contour>
    <contour>
      <point x="82" y="548" type="line"/>
      <point x="263" y="548" type="line"/>
      <point x="263" y="604" type="line"/>
      <point x="201" y="667" type="line"/>
      <point x="201" y="668" type="line"/>
      <point x="271" y="668" type="line"/>
      <point x="271" y="780" type="line"/>
      <point x="104" y="780" type="line"/>
      <point x="62" y="726"/>
      <point x="40" y="698"/>
      <point x="40" y="685" type="curve" smooth="yes"/>
      <point x="40" y="676"/>
      <point x="42" y="673"/>
      <point x="82" y="620" type="curve"/>
    </contour>
  </outline>
</glyph>
<glyph name="uni17C2" format="2">
  <advance width="327"/>
  <unicode hex="17C2"/>
  <note>
uni17C2
</note>
  <outline>
    <contour>
      <point x="136" y="829" type="curve" smooth="yes"/>
      <point x="251" y="829"/>
      <point x="310" y="897"/>
      <point x="310" y="1048" type="curve"/>
      <point x="192" y="1048" type="line"/>
      <point x="192" y="986"/>
      <point x="189" y="919"/>
      <point x="156" y="919" type="curve" smooth="yes"/>
      <point x="147" y="919"/>
      <point x="141" y="924"/>
      <point x="141" y="932" type="curve" smooth="yes"/>
      <point x="141" y="941"/>
      <point x="148" y="946"/>
      <point x="157" y="946" type="curve"/>
      <point x="157" y="1019" type="line"/>
      <point x="50" y="1019"/>
      <point x="0" y="982"/>
      <point x="0" y="923" type="curve" smooth="yes"/>
      <point x="0" y="859"/>
      <point x="57" y="829"/>
    </contour>
    <contour>
      <point x="263" y="568" type="line"/>
      <point x="82" y="568" type="line"/>
      <point x="82" y="294" type="line" smooth="yes"/>
      <point x="82" y="261"/>
      <point x="108" y="244"/>
      <point x="155" y="244" type="curve" smooth="yes"/>
      <point x="307" y="244" type="line"/>
      <point x="307" y="356" type="line"/>
      <point x="283" y="356" type="line" smooth="yes"/>
      <point x="266" y="356"/>
      <point x="263" y="362"/>
      <point x="263" y="379" type="curve" smooth="yes"/>
    </contour>
    <contour>
      <point x="82" y="548" type="line"/>
      <point x="263" y="548" type="line"/>
      <point x="263" y="604" type="line"/>
      <point x="201" y="667" type="line"/>
      <point x="201" y="668" type="line"/>
      <point x="271" y="668" type="line"/>
      <point x="271" y="780" type="line"/>
      <point x="104" y="780" type="line"/>
      <point x="62" y="726"/>
      <point x="40" y="698"/>
      <point x="40" y="685" type="curve" smooth="yes"/>
      <point x="40" y="676"/>
      <point x="42" y="673"/>
      <point x="82" y="620" type="curve"/>
    </contour>
  </outline>
</glyph>
<glyph name="uni17C3" format="2">
  <advance width="346"/>
  <unicode hex="17C3"/>
  <note>
uni17C3
</note>
  <outline>
    <contour>
      <point x="26" y="809" type="line"/>
      <point x="191" y="809" type="line" smooth="yes"/>
      <point x="271" y="809"/>
      <point x="334" y="850"/>
      <point x="334" y="926" type="curve" smooth="yes"/>
      <point x="334" y="980"/>
      <point x="300" y="1030"/>
      <point x="230" y="1030" type="curve" smooth="yes"/>
      <point x="202" y="1030"/>
      <point x="177" y="1022"/>
      <point x="157" y="1007" type="curve"/>
      <point x="157" y="1016" type="line" smooth="yes"/>
      <point x="157" y="1031"/>
      <point x="149" y="1056"/>
      <point x="100" y="1056" type="curve" smooth="yes"/>
      <point x="0" y="1056" type="line"/>
      <point x="0" y="971" type="line"/>
      <point x="17" y="971"/>
      <point x="26" y="963"/>
      <point x="26" y="947" type="curve" smooth="yes"/>
      <point x="26" y="924" type="line"/>
      <point x="157" y="924" type="line"/>
      <point x="160" y="934"/>
      <point x="170" y="943"/>
      <point x="185" y="943" type="curve" smooth="yes"/>
      <point x="202" y="943"/>
      <point x="210" y="934"/>
      <point x="210" y="922" type="curve" smooth="yes"/>
      <point x="210" y="909"/>
      <point x="200" y="899"/>
      <point x="178" y="899" type="curve" smooth="yes"/>
      <point x="26" y="899" type="line"/>
    </contour>
    <contour>
      <point x="282" y="568" type="line"/>
      <point x="101" y="568" type="line"/>
      <point x="101" y="294" type="line" smooth="yes"/>
      <point x="101" y="261"/>
      <point x="127" y="244"/>
      <point x="174" y="244" type="curve" smooth="yes"/>
      <point x="326" y="244" type="line"/>
      <point x="326" y="356" type="line"/>
      <point x="302" y="356" type="line" smooth="yes"/>
      <point x="285" y="356"/>
      <point x="282" y="362"/>
      <point x="282" y="379" type="curve" smooth="yes"/>
    </contour>
    <contour>
      <point x="101" y="548" type="line"/>
      <point x="282" y="548" type="line"/>
      <point x="282" y="604" type="line"/>
      <point x="220" y="667" type="line"/>
      <point x="220" y="668" type="line"/>
      <point x="290" y="668" type="line"/>
      <point x="290" y="780" type="line"/>
      <point x="123" y="780" type="line"/>
      <point x="81" y="726"/>
      <point x="59" y="698"/>
      <point x="59" y="685" type="curve" smooth="yes"/>
      <point x="59" y="676"/>
      <point x="61" y="673"/>
      <point x="101" y="620" type="curve"/>
    </contour>
  </outline>
</glyph>
<glyph name="uni17C5" format="2">
  <advance width="1189"/>
  <unicode hex="17C5"/>
  <note>
uni17C5
</note>
  <outline>
    <contour>
      <point x="263" y="568" type="line"/>
      <point x="82" y="568" type="line"/>
      <point x="82" y="294" type="line" smooth="yes"/>
      <point x="82" y="261"/>
      <point x="108" y="244"/>
      <point x="155" y="244" type="curve" smooth="yes"/>
      <point x="307" y="244" type="line"/>
      <point x="307" y="356" type="line"/>
      <point x="283" y="356" type="line" smooth="yes"/>
      <point x="266" y="356"/>
      <point x="263" y="362"/>
      <point x="263" y="379" type="curve" smooth="yes"/>
    </contour>
    <contour>
      <point x="82" y="548" type="line"/>
      <point x="263" y="548" type="line"/>
      <point x="263" y="604" type="line"/>
      <point x="201" y="667" type="line"/>
      <point x="201" y="668" type="line"/>
      <point x="271" y="668" type="line"/>
      <point x="271" y="780" type="line"/>
      <point x="104" y="780" type="line"/>
      <point x="62" y="726"/>
      <point x="40" y="698"/>
      <point x="40" y="685" type="curve" smooth="yes"/>
      <point x="40" y="676"/>
      <point x="42" y="673"/>
      <point x="82" y="620" type="curve"/>
    </contour>
    <contour>
      <point x="372" y="475" type="curve" smooth="yes"/>
      <point x="394" y="475"/>
      <point x="412" y="493"/>
      <point x="412" y="515" type="curve" smooth="yes"/>
      <point x="412" y="537"/>
      <point x="394" y="555"/>
      <point x="372" y="555" type="curve" smooth="yes"/>
      <point x="350" y="555"/>
      <point x="332" y="537"/>
      <point x="332" y="515" type="curve" smooth="yes"/>
      <point x="332" y="493"/>
      <point x="350" y="475"/>
    </contour>
    <contour>
      <point x="398" y="576" type="curve" smooth="yes"/>
      <point x="420" y="576"/>
      <point x="438" y="594"/>
      <point x="438" y="616" type="curve" smooth="yes"/>
      <point x="438" y="638"/>
      <point x="420" y="656"/>
      <point x="398" y="656" type="curve" smooth="yes"/>
      <point x="376" y="656"/>
      <point x="358" y="638"/>
      <point x="358" y="616" type="curve" smooth="yes"/>
      <point x="358" y="594"/>
      <point x="376" y="576"/>
    </contour>
    <contour>
      <point x="469" y="646" type="curve" smooth="yes"/>
      <point x="491" y="646"/>
      <point x="509" y="664"/>
      <point x="509" y="686" type="curve" smooth="yes"/>
      <point x="509" y="708"/>
      <point x="491" y="726"/>
      <point x="469" y="726" type="curve" smooth="yes"/>
      <point x="447" y="726"/>
      <point x="429" y="708"/>
      <point x="429" y="686" type="curve" smooth="yes"/>
      <point x="429" y="664"/>
      <point x="447" y="646"/>
    </contour>
    <contour>
      <point x="566" y="670" type="curve" smooth="yes"/>
      <point x="588" y="670"/>
      <point x="606" y="688"/>
      <point x="606" y="710" type="curve" smooth="yes"/>
      <point x="606" y="732"/>
      <point x="588" y="750"/>
      <point x="566" y="750" type="curve" smooth="yes"/>
      <point x="544" y="750"/>
      <point x="526" y="732"/>
      <point x="526" y="710" type="curve" smooth="yes"/>
      <point x="526" y="688"/>
      <point x="544" y="670"/>
    </contour>
    <contour>
      <point x="663" y="646" type="curve" smooth="yes"/>
      <point x="685" y="646"/>
      <point x="703" y="664"/>
      <point x="703" y="686" type="curve" smooth="yes"/>
      <point x="703" y="708"/>
      <point x="685" y="726"/>
      <point x="663" y="726" type="curve" smooth="yes"/>
      <point x="641" y="726"/>
      <point x="623" y="708"/>
      <point x="623" y="686" type="curve" smooth="yes"/>
      <point x="623" y="664"/>
      <point x="641" y="646"/>
    </contour>
    <contour>
      <point x="733" y="574" type="curve" smooth="yes"/>
      <point x="755" y="574"/>
      <point x="773" y="592"/>
      <point x="773" y="614" type="curve" smooth="yes"/>
      <point x="773" y="636"/>
      <point x="755" y="654"/>
      <point x="733" y="654" type="curve" smooth="yes"/>
      <point x="711" y="654"/>
      <point x="693" y="636"/>
      <point x="693" y="614" type="curve" smooth="yes"/>
      <point x="693" y="592"/>
      <point x="711" y="574"/>
    </contour>
    <contour>
      <point x="763" y="475" type="curve" smooth="yes"/>
      <point x="785" y="475"/>
      <point x="803" y="493"/>
      <point x="803" y="515" type="curve" smooth="yes"/>
      <point x="803" y="537"/>
      <point x="785" y="555"/>
      <point x="763" y="555" type="curve" smooth="yes"/>
      <point x="741" y="555"/>
      <point x="723" y="537"/>
      <point x="723" y="515" type="curve" smooth="yes"/>
      <point x="723" y="493"/>
      <point x="741" y="475"/>
    </contour>
    <contour>
      <point x="735" y="381" type="curve" smooth="yes"/>
      <point x="757" y="381"/>
      <point x="775" y="399"/>
      <point x="775" y="421" type="curve" smooth="yes"/>
      <point x="775" y="443"/>
      <point x="757" y="461"/>
      <point x="735" y="461" type="curve" smooth="yes"/>
      <point x="713" y="461"/>
      <point x="695" y="443"/>
      <point x="695" y="421" type="curve" smooth="yes"/>
      <point x="695" y="399"/>
      <point x="713" y="381"/>
    </contour>
    <contour>
      <point x="664" y="309" type="curve" smooth="yes"/>
      <point x="686" y="309"/>
      <point x="704" y="327"/>
      <point x="704" y="349" type="curve" smooth="yes"/>
      <point x="704" y="371"/>
      <point x="686" y="389"/>
      <point x="664" y="389" type="curve" smooth="yes"/>
      <point x="642" y="389"/>
      <point x="624" y="371"/>
      <point x="624" y="349" type="curve" smooth="yes"/>
      <point x="624" y="327"/>
      <point x="642" y="309"/>
    </contour>
    <contour>
      <point x="566" y="281" type="curve" smooth="yes"/>
      <point x="588" y="281"/>
      <point x="606" y="299"/>
      <point x="606" y="321" type="curve" smooth="yes"/>
      <point x="606" y="343"/>
      <point x="588" y="361"/>
      <point x="566" y="361" type="curve" smooth="yes"/>
      <point x="544" y="361"/>
      <point x="526" y="343"/>
      <point x="526" y="321" type="curve" smooth="yes"/>
      <point x="526" y="299"/>
      <point x="544" y="281"/>
    </contour>
    <contour>
      <point x="469" y="308" type="curve" smooth="yes"/>
      <point x="491" y="308"/>
      <point x="509" y="326"/>
      <point x="509" y="348" type="curve" smooth="yes"/>
      <point x="509" y="370"/>
      <point x="491" y="388"/>
      <point x="469" y="388" type="curve" smooth="yes"/>
      <point x="447" y="388"/>
      <point x="429" y="370"/>
      <point x="429" y="348" type="curve" smooth="yes"/>
      <point x="429" y="326"/>
      <point x="447" y="308"/>
    </contour>
    <contour>
      <point x="396" y="380" type="curve" smooth="yes"/>
      <point x="418" y="380"/>
      <point x="436" y="398"/>
      <point x="436" y="420" type="curve" smooth="yes"/>
      <point x="436" y="442"/>
      <point x="418" y="460"/>
      <point x="396" y="460" type="curve" smooth="yes"/>
      <point x="374" y="460"/>
      <point x="356" y="442"/>
      <point x="356" y="420" type="curve" smooth="yes"/>
      <point x="356" y="398"/>
      <point x="374" y="380"/>
    </contour>
    <contour>
      <point x="1072" y="798" type="line"/>
      <point x="1072" y="944" type="line" smooth="yes"/>
      <point x="1072" y="1015"/>
      <point x="1041" y="1048"/>
      <point x="944" y="1048" type="curve" smooth="yes"/>
      <point x="838" y="1048" type="line"/>
      <point x="838" y="936" type="line"/>
      <point x="856" y="936" type="line" smooth="yes"/>
      <point x="884" y="936"/>
      <point x="891" y="926"/>
      <point x="891" y="899" type="curve" smooth="yes"/>
      <point x="891" y="798" type="line"/>
    </contour>
    <contour>
      <point x="924" y="244" type="line"/>
      <point x="1105" y="244" type="line"/>
      <point x="1105" y="652" type="line" smooth="yes"/>
      <point x="1105" y="733"/>
      <point x="1060" y="780"/>
      <point x="944" y="780" type="curve" smooth="yes"/>
      <point x="753" y="780" type="line"/>
      <point x="753" y="668" type="line"/>
      <point x="861" y="668" type="line" smooth="yes"/>
      <point x="910" y="668"/>
      <point x="924" y="655"/>
      <point x="924" y="607" type="curve" smooth="yes"/>
    </contour>
  </outline>
</glyph>
<glyph name="uni17C7" format="2">
  <advance width="415"/>
  <unicode hex="17C7"/>
  <note>
uni17C7
</note>
  <outline>
    <contour>
      <point x="208" y="553" type="curve" smooth="yes"/>
      <point x="278" y="553"/>
      <point x="335" y="610"/>
      <point x="335" y="680" type="curve" smooth="yes"/>
      <point x="335" y="750"/>
      <point x="278" y="807"/>
      <point x="208" y="807" type="curve" smooth="yes"/>
      <point x="138" y="807"/>
      <point x="81" y="750"/>
      <point x="81" y="680" type="curve" smooth="yes"/>
      <point x="81" y="610"/>
      <point x="138" y="553"/>
    </contour>
    <contour>
      <point x="208" y="227" type="curve" smooth="yes"/>
      <point x="278" y="227"/>
      <point x="335" y="284"/>
      <point x="335" y="354" type="curve" smooth="yes"/>
      <point x="335" y="424"/>
      <point x="278" y="481"/>
      <point x="208" y="481" type="curve" smooth="yes"/>
      <point x="138" y="481"/>
      <point x="81" y="424"/>
      <point x="81" y="354" type="curve" smooth="yes"/>
      <point x="81" y="284"/>
      <point x="138" y="227"/>
    </contour>
    <contour>
      <point x="208" y="646" type="curve" smooth="yes"/>
      <point x="189" y="646"/>
      <point x="174" y="661"/>
      <point x="174" y="680" type="curve" smooth="yes"/>
      <point x="174" y="699"/>
      <point x="189" y="714"/>
      <point x="208" y="714" type="curve" smooth="yes"/>
      <point x="227" y="714"/>
      <point x="242" y="699"/>
      <point x="242" y="680" type="curve" smooth="yes"/>
      <point x="242" y="661"/>
      <point x="227" y="646"/>
    </contour>
    <contour>
      <point x="208" y="320" type="curve" smooth="yes"/>
      <point x="189" y="320"/>
      <point x="174" y="335"/>
      <point x="174" y="354" type="curve" smooth="yes"/>
      <point x="174" y="373"/>
      <point x="189" y="388"/>
      <point x="208" y="388" type="curve" smooth="yes"/>
      <point x="227" y="388"/>
      <point x="242" y="373"/>
      <point x="242" y="354" type="curve" smooth="yes"/>
      <point x="242" y="335"/>
      <point x="227" y="320"/>
    </contour>
  </outline>
</glyph>
<glyph name="uni17C8" format="2">
  <advance width="283"/>
  <unicode hex="17C8"/>
  <note>
uni17C8
</note>
  <outline>
    <contour>
      <point x="138" y="637" type="curve" smooth="yes"/>
      <point x="173" y="637"/>
      <point x="201" y="665"/>
      <point x="201" y="700" type="curve" smooth="yes"/>
      <point x="201" y="735"/>
      <point x="173" y="763"/>
      <point x="138" y="763" type="curve" smooth="yes"/>
      <point x="103" y="763"/>
      <point x="75" y="735"/>
      <point x="75" y="700" type="curve" smooth="yes"/>
      <point x="75" y="665"/>
      <point x="103" y="637"/>
    </contour>
    <contour>
      <point x="138" y="271" type="curve" smooth="yes"/>
      <point x="173" y="271"/>
      <point x="201" y="299"/>
      <point x="201" y="334" type="curve" smooth="yes"/>
      <point x="201" y="369"/>
      <point x="173" y="397"/>
      <point x="138" y="397" type="curve" smooth="yes"/>
      <point x="103" y="397"/>
      <point x="75" y="369"/>
      <point x="75" y="334" type="curve" smooth="yes"/>
      <point x="75" y="299"/>
      <point x="103" y="271"/>
    </contour>
  </outline>
</glyph>
<glyph name="uni17C9" format="2">
  <unicode hex="17C9"/>
  <note>
uni17C9
</note>
  <outline>
    <contour>
      <point x="-448" y="684" type="line"/>
      <point x="-332" y="684" type="line"/>
      <point x="-332" y="879" type="line"/>
      <point x="-448" y="879" type="line"/>
    </contour>
    <contour>
      <point x="-288" y="684" type="line"/>
      <point x="-172" y="684" type="line"/>
      <point x="-172" y="879" type="line"/>
      <point x="-288" y="879" type="line"/>
    </contour>
  </outline>
</glyph>
<glyph name="uni17CA" format="2">
  <unicode hex="17CA"/>
  <note>
uni17CA
</note>
  <outline>
    <contour>
      <point x="-575" y="684" type="line"/>
      <point x="-46" y="684" type="line"/>
      <point x="-46" y="796" type="line"/>
      <point x="-262" y="796" type="line"/>
      <point x="-310" y="746" type="line"/>
      <point x="-358" y="796" type="line"/>
      <point x="-575" y="796" type="line"/>
    </contour>
  </outline>
</glyph>
<glyph name="uni17CC" format="2">
  <unicode hex="17CC"/>
  <note>
uni17CC
</note>
  <outline>
    <contour>
      <point x="-443" y="674" type="line"/>
      <point x="-412" y="700"/>
      <point x="-375" y="728"/>
      <point x="-313" y="728" type="curve" smooth="yes"/>
      <point x="-284" y="728"/>
      <point x="-240" y="722"/>
      <point x="-205" y="678" type="curve"/>
      <point x="-125" y="744" type="line"/>
      <point x="-169" y="798"/>
      <point x="-215" y="811"/>
      <point x="-287" y="808" type="curve"/>
      <point x="-266" y="831"/>
      <point x="-250" y="853"/>
      <point x="-245" y="870" type="curve"/>
      <point x="-342" y="901" type="line"/>
      <point x="-363" y="864"/>
      <point x="-408" y="826"/>
      <point x="-511" y="761" type="curve"/>
    </contour>
  </outline>
</glyph>
<glyph name="uni17CD" format="2">
  <unicode hex="17CD"/>
  <note>
uni17CD
</note>
  <outline>
    <contour>
      <point x="-329" y="682" type="curve" smooth="yes"/>
      <point x="-307" y="682" type="line"/>
      <point x="-307" y="759" type="line"/>
      <point x="-340" y="759" type="line" smooth="yes"/>
      <point x="-349" y="759"/>
      <point x="-355" y="765"/>
      <point x="-355" y="773" type="curve" smooth="yes"/>
      <point x="-355" y="782"/>
      <point x="-349" y="787"/>
      <point x="-338" y="787" type="curve" smooth="yes"/>
      <point x="-274" y="787" type="line" smooth="yes"/>
      <point x="-172" y="787"/>
      <point x="-105" y="823"/>
      <point x="-105" y="910" type="curve"/>
      <point x="-235" y="910" type="line"/>
      <point x="-235" y="892"/>
      <point x="-252" y="877"/>
      <point x="-285" y="877" type="curve" smooth="yes"/>
      <point x="-351" y="877" type="line" smooth="yes"/>
      <point x="-438" y="877"/>
      <point x="-509" y="865"/>
      <point x="-509" y="782" type="curve" smooth="yes"/>
      <point x="-509" y="705"/>
      <point x="-448" y="682"/>
    </contour>
  </outline>
</glyph>
<glyph name="uni17CE" format="2">
  <unicode hex="17CE"/>
  <note>
uni17CE
</note>
  <outline>
    <contour>
      <point x="-371" y="684" type="line"/>
      <point x="-249" y="684" type="line"/>
      <point x="-249" y="740" type="line"/>
      <point x="-185" y="740" type="line"/>
      <point x="-185" y="854" type="line"/>
      <point x="-249" y="854" type="line"/>
      <point x="-249" y="910" type="line"/>
      <point x="-371" y="910" type="line"/>
      <point x="-371" y="854" type="line"/>
      <point x="-435" y="854" type="line"/>
      <point x="-435" y="740" type="line"/>
      <point x="-371" y="740" type="line"/>
    </contour>
  </outline>
</glyph>
<glyph name="uni17CF" format="2">
  <unicode hex="17CF"/>
  <note>
uni17CF
</note>
  <outline>
    <contour>
      <point x="-549" y="684" type="line"/>
      <point x="-389" y="684" type="line"/>
      <point x="-311" y="711" type="line"/>
      <point x="-233" y="684" type="line"/>
      <point x="-72" y="684" type="line"/>
      <point x="-72" y="788" type="line"/>
      <point x="-233" y="788" type="line"/>
      <point x="-233" y="773" type="line"/>
      <point x="-310" y="784" type="line"/>
      <point x="-389" y="774" type="line"/>
      <point x="-389" y="780" type="line" smooth="yes"/>
      <point x="-389" y="794"/>
      <point x="-369" y="799"/>
      <point x="-355" y="799" type="curve" smooth="yes"/>
      <point x="-216" y="799" type="line" smooth="yes"/>
      <point x="-125" y="799"/>
      <point x="-63" y="834"/>
      <point x="-63" y="903" type="curve" smooth="yes"/>
      <point x="-63" y="915" type="line"/>
      <point x="-224" y="915" type="line"/>
      <point x="-224" y="893"/>
      <point x="-261" y="881"/>
      <point x="-317" y="881" type="curve" smooth="yes"/>
      <point x="-384" y="881" type="line" smooth="yes"/>
      <point x="-496" y="881"/>
      <point x="-549" y="839"/>
      <point x="-549" y="766" type="curve" smooth="yes"/>
    </contour>
  </outline>
</glyph>
<glyph name="uni17D0" format="2">
  <unicode hex="17D0"/>
  <note>
uni17D0
</note>
  <outline>
    <contour>
      <point x="-331.2" y="701" type="curve" smooth="yes"/>
      <point x="-160.2" y="701"/>
      <point x="-80.1" y="786"/>
      <point x="-80.1" y="921" type="curve"/>
      <point x="-231.3" y="921" type="line"/>
      <point x="-231.3" y="834"/>
      <point x="-270" y="796"/>
      <point x="-321.3" y="796" type="curve" smooth="yes"/>
      <point x="-350.1" y="796"/>
      <point x="-358.2" y="801"/>
      <point x="-358.2" y="811" type="curve" smooth="yes"/>
      <point x="-358.2" y="821"/>
      <point x="-347.4" y="825"/>
      <point x="-314.1" y="824" type="curve"/>
      <point x="-314.1" y="920" type="line"/>
      <point x="-444.6" y="920"/>
      <point x="-499.5" y="893"/>
      <point x="-499.5" y="811" type="curve" smooth="yes"/>
      <point x="-499.5" y="732"/>
      <point x="-409.5" y="701"/>
    </contour>
  </outline>
</glyph>
<glyph name="uni17D3" format="2">
  <unicode hex="17D3"/>
  <note>
uni17D3
</note>
  <outline>
    <contour>
      <point x="-297" y="695" type="curve" smooth="yes"/>
      <point x="-200" y="695"/>
      <point x="-102" y="737"/>
      <point x="-102" y="807" type="curve" smooth="yes"/>
      <point x="-102" y="876"/>
      <point x="-198" y="919"/>
      <point x="-297" y="919" type="curve" smooth="yes"/>
      <point x="-394" y="919"/>
      <point x="-493" y="875"/>
      <point x="-493" y="807" type="curve" smooth="yes"/>
      <point x="-493" y="743"/>
      <point x="-398" y="695"/>
    </contour>
    <contour>
      <point x="-296" y="781" type="curve" smooth="yes"/>
      <point x="-320" y="781"/>
      <point x="-336" y="791"/>
      <point x="-336" y="807" type="curve" smooth="yes"/>
      <point x="-336" y="822"/>
      <point x="-320" y="833"/>
      <point x="-296" y="833" type="curve" smooth="yes"/>
      <point x="-272" y="833"/>
      <point x="-256" y="822"/>
      <point x="-256" y="807" type="curve" smooth="yes"/>
      <point x="-256" y="791"/>
      <point x="-272" y="781"/>
    </contour>
  </outline>
</glyph>
<glyph name="uni17D5" format="2">
  <advance width="820"/>
  <unicode hex="17D5"/>
  <note>
uni17D5
</note>
  <outline>
    <contour>
      <point x="586" y="244" type="line"/>
      <point x="767" y="244" type="line"/>
      <point x="767" y="830" type="line"/>
      <point x="586" y="830" type="line"/>
    </contour>
    <contour>
      <point x="353" y="244" type="line"/>
      <point x="534" y="244" type="line"/>
      <point x="534" y="830" type="line"/>
      <point x="353" y="830" type="line"/>
      <point x="346" y="743"/>
      <point x="304" y="666"/>
      <point x="246" y="666" type="curve" smooth="yes"/>
      <point x="233" y="666"/>
      <point x="225" y="671"/>
      <point x="225" y="683" type="curve" smooth="yes"/>
      <point x="225" y="694"/>
      <point x="232" y="700"/>
      <point x="242" y="700" type="curve" smooth="yes"/>
      <point x="247" y="700" type="line"/>
      <point x="247" y="830" type="line"/>
      <point x="208" y="830" type="line" smooth="yes"/>
      <point x="95" y="830"/>
      <point x="53" y="769"/>
      <point x="53" y="694" type="curve" smooth="yes"/>
      <point x="53" y="597"/>
      <point x="145" y="543"/>
      <point x="212" y="543" type="curve" smooth="yes"/>
      <point x="290" y="543"/>
      <point x="319" y="566"/>
      <point x="353" y="600" type="curve"/>
    </contour>
  </outline>
</glyph>
<glyph name="uni17D6" format="2">
  <advance width="478"/>
  <unicode hex="17D6"/>
  <note>
uni17D6
</note>
  <outline>
    <contour>
      <point x="81" y="501" type="line"/>
      <point x="398" y="501" type="line"/>
      <point x="398" y="605" type="line"/>
      <point x="81" y="605" type="line"/>
    </contour>
    <contour>
      <point x="227" y="229" type="curve" smooth="yes"/>
      <point x="293" y="229"/>
      <point x="347" y="279"/>
      <point x="347" y="345" type="curve" smooth="yes"/>
      <point x="347" y="411"/>
      <point x="293" y="461"/>
      <point x="227" y="461" type="curve" smooth="yes"/>
      <point x="161" y="461"/>
      <point x="107" y="411"/>
      <point x="107" y="345" type="curve" smooth="yes"/>
      <point x="107" y="279"/>
      <point x="161" y="229"/>
    </contour>
    <contour>
      <point x="227" y="311" type="curve" smooth="yes"/>
      <point x="208" y="311"/>
      <point x="193" y="326"/>
      <point x="193" y="345" type="curve" smooth="yes"/>
      <point x="193" y="364"/>
      <point x="208" y="379"/>
      <point x="227" y="379" type="curve" smooth="yes"/>
      <point x="246" y="379"/>
      <point x="261" y="364"/>
      <point x="261" y="345" type="curve" smooth="yes"/>
      <point x="261" y="326"/>
      <point x="246" y="311"/>
    </contour>
    <contour>
      <point x="227" y="626" type="curve" smooth="yes"/>
      <point x="293" y="626"/>
      <point x="347" y="676"/>
      <point x="347" y="742" type="curve" smooth="yes"/>
      <point x="347" y="808"/>
      <point x="293" y="858"/>
      <point x="227" y="858" type="curve" smooth="yes"/>
      <point x="161" y="858"/>
      <point x="107" y="808"/>
      <point x="107" y="742" type="curve" smooth="yes"/>
      <point x="107" y="676"/>
      <point x="161" y="626"/>
    </contour>
    <contour>
      <point x="227" y="708" type="curve" smooth="yes"/>
      <point x="208" y="708"/>
      <point x="193" y="723"/>
      <point x="193" y="742" type="curve" smooth="yes"/>
      <point x="193" y="761"/>
      <point x="208" y="776"/>
      <point x="227" y="776" type="curve" smooth="yes"/>
      <point x="246" y="776"/>
      <point x="261" y="761"/>
      <point x="261" y="742" type="curve" smooth="yes"/>
      <point x="261" y="723"/>
      <point x="246" y="708"/>
    </contour>
  </outline>
</glyph>
<glyph name="uni17D7" format="2">
  <advance width="586"/>
  <unicode hex="17D7"/>
  <note>
uni17D7
</note>
  <outline>
    <contour>
      <point x="269" y="49" type="line"/>
      <point x="284" y="49" type="line" smooth="yes"/>
      <point x="483" y="49"/>
      <point x="534" y="62"/>
      <point x="534" y="190" type="curve" smooth="yes"/>
      <point x="534" y="830" type="line"/>
      <point x="353" y="830" type="line"/>
      <point x="348" y="804"/>
      <point x="329" y="777"/>
      <point x="303" y="777" type="curve" smooth="yes"/>
      <point x="275" y="777"/>
      <point x="249" y="830"/>
      <point x="173" y="830" type="curve" smooth="yes"/>
      <point x="99" y="830"/>
      <point x="30" y="789"/>
      <point x="30" y="701" type="curve" smooth="yes"/>
      <point x="30" y="620"/>
      <point x="75" y="558"/>
      <point x="182" y="558" type="curve" smooth="yes"/>
      <point x="214" y="558" type="line"/>
      <point x="214" y="672" type="line"/>
      <point x="205" y="672" type="line" smooth="yes"/>
      <point x="184" y="672"/>
      <point x="169" y="679"/>
      <point x="169" y="696" type="curve" smooth="yes"/>
      <point x="169" y="708"/>
      <point x="177" y="717"/>
      <point x="196" y="717" type="curve" smooth="yes"/>
      <point x="243" y="717"/>
      <point x="238" y="659"/>
      <point x="300" y="659" type="curve" smooth="yes"/>
      <point x="329" y="659"/>
      <point x="342" y="674"/>
      <point x="350" y="684" type="curve"/>
      <point x="353" y="684" type="line"/>
      <point x="353" y="225" type="line" smooth="yes"/>
      <point x="353" y="196"/>
      <point x="330" y="181"/>
      <point x="283" y="179" type="curve" smooth="yes"/>
      <point x="269" y="179" type="line"/>
    </contour>
  </outline>
</glyph>
<glyph name="uni17D8" format="2">
  <advance width="2212"/>
  <unicode hex="17D8"/>
  <note>
uni17D8
</note>
  <outline>
    <contour>
      <point x="353" y="244" type="line"/>
      <point x="534" y="244" type="line"/>
      <point x="534" y="830" type="line"/>
      <point x="353" y="830" type="line"/>
      <point x="346" y="743"/>
      <point x="304" y="666"/>
      <point x="246" y="666" type="curve" smooth="yes"/>
      <point x="233" y="666"/>
      <point x="225" y="671"/>
      <point x="225" y="683" type="curve" smooth="yes"/>
      <point x="225" y="694"/>
      <point x="232" y="700"/>
      <point x="242" y="700" type="curve" smooth="yes"/>
      <point x="247" y="700" type="line"/>
      <point x="247" y="830" type="line"/>
      <point x="208" y="830" type="line" smooth="yes"/>
      <point x="95" y="830"/>
      <point x="53" y="769"/>
      <point x="53" y="694" type="curve" smooth="yes"/>
      <point x="53" y="597"/>
      <point x="145" y="543"/>
      <point x="212" y="543" type="curve" smooth="yes"/>
      <point x="290" y="543"/>
      <point x="319" y="566"/>
      <point x="353" y="600" type="curve"/>
    </contour>
    <contour>
      <point x="1515" y="568" type="line"/>
      <point x="1334" y="568" type="line"/>
      <point x="1334" y="422" type="line" smooth="yes"/>
      <point x="1334" y="391"/>
      <point x="1313" y="356"/>
      <point x="1267" y="356" type="curve" smooth="yes"/>
      <point x="1221" y="356"/>
      <point x="1198" y="391"/>
      <point x="1198" y="422" type="curve" smooth="yes"/>
      <point x="1198" y="622" type="line" smooth="yes"/>
      <point x="1198" y="727"/>
      <point x="1114" y="780"/>
      <point x="947" y="780" type="curve" smooth="yes"/>
      <point x="779" y="780"/>
      <point x="695" y="727"/>
      <point x="695" y="622" type="curve" smooth="yes"/>
      <point x="695" y="495" type="line"/>
      <point x="876" y="495" type="line"/>
      <point x="876" y="612" type="line" smooth="yes"/>
      <point x="876" y="643"/>
      <point x="900" y="668"/>
      <point x="947" y="668" type="curve" smooth="yes"/>
      <point x="994" y="668"/>
      <point x="1018" y="643"/>
      <point x="1018" y="612" type="curve" smooth="yes"/>
      <point x="1018" y="402" type="line" smooth="yes"/>
      <point x="1018" y="297"/>
      <point x="1101" y="244"/>
      <point x="1267" y="244" type="curve" smooth="yes"/>
      <point x="1432" y="244"/>
      <point x="1515" y="297"/>
      <point x="1515" y="402" type="curve" smooth="yes"/>
    </contour>
    <contour>
      <point x="695" y="506" type="line"/>
      <point x="695" y="314" type="line" smooth="yes"/>
      <point x="695" y="263"/>
      <point x="717" y="244"/>
      <point x="791" y="244" type="curve" smooth="yes"/>
      <point x="852" y="244" type="line" smooth="yes"/>
      <point x="945" y="244"/>
      <point x="1000" y="293"/>
      <point x="1000" y="366" type="curve" smooth="yes"/>
      <point x="1000" y="451"/>
      <point x="955" y="484"/>
      <point x="876" y="485" type="curve"/>
      <point x="876" y="506" type="line" smooth="yes"/>
    </contour>
    <contour>
      <point x="876" y="324" type="curve"/>
      <point x="876" y="408" type="line"/>
      <point x="891" y="408"/>
      <point x="904" y="394"/>
      <point x="904" y="367" type="curve" smooth="yes"/>
      <point x="904" y="342"/>
      <point x="889" y="324"/>
    </contour>
    <contour>
      <point x="1334" y="548" type="line"/>
      <point x="1515" y="548" type="line"/>
      <point x="1515" y="604" type="line"/>
      <point x="1453" y="667" type="line"/>
      <point x="1453" y="668" type="line"/>
      <point x="1523" y="668" type="line"/>
      <point x="1523" y="780" type="line"/>
      <point x="1356" y="780" type="line"/>
      <point x="1314" y="726"/>
      <point x="1292" y="698"/>
      <point x="1292" y="685" type="curve" smooth="yes"/>
      <point x="1292" y="676"/>
      <point x="1294" y="673"/>
      <point x="1334" y="620" type="curve"/>
    </contour>
    <contour>
      <point x="1896" y="244" type="line"/>
      <point x="2077" y="244" type="line"/>
      <point x="2077" y="830" type="line"/>
      <point x="1896" y="830" type="line"/>
      <point x="1889" y="743"/>
      <point x="1847" y="666"/>
      <point x="1789" y="666" type="curve" smooth="yes"/>
      <point x="1776" y="666"/>
      <point x="1768" y="671"/>
      <point x="1768" y="683" type="curve" smooth="yes"/>
      <point x="1768" y="694"/>
      <point x="1775" y="700"/>
      <point x="1785" y="700" type="curve" smooth="yes"/>
      <point x="1790" y="700" type="line"/>
      <point x="1790" y="830" type="line"/>
      <point x="1751" y="830" type="line" smooth="yes"/>
      <point x="1638" y="830"/>
      <point x="1596" y="769"/>
      <point x="1596" y="694" type="curve" smooth="yes"/>
      <point x="1596" y="597"/>
      <point x="1688" y="543"/>
      <point x="1755" y="543" type="curve" smooth="yes"/>
      <point x="1833" y="543"/>
      <point x="1862" y="566"/>
      <point x="1896" y="600" type="curve"/>
    </contour>
  </outline>
</glyph>
<glyph name="uni17D9" format="2">
  <advance width="732"/>
  <unicode hex="17D9"/>
  <note>
uni17D9
</note>
  <outline>
    <contour>
      <point x="366" y="226" type="curve" smooth="yes"/>
      <point x="548" y="226"/>
      <point x="671" y="347"/>
      <point x="671" y="537" type="curve" smooth="yes"/>
      <point x="671" y="727"/>
      <point x="551" y="848"/>
      <point x="366" y="848" type="curve" smooth="yes"/>
      <point x="179" y="848"/>
      <point x="62" y="725"/>
      <point x="62" y="537" type="curve" smooth="yes"/>
      <point x="62" y="350"/>
      <point x="181" y="226"/>
    </contour>
    <contour>
      <point x="366" y="324" type="curve" smooth="yes"/>
      <point x="247" y="324"/>
      <point x="190" y="394"/>
      <point x="190" y="537" type="curve" smooth="yes"/>
      <point x="190" y="680"/>
      <point x="247" y="750"/>
      <point x="366" y="750" type="curve" smooth="yes"/>
      <point x="484" y="750"/>
      <point x="543" y="679"/>
      <point x="543" y="537" type="curve" smooth="yes"/>
      <point x="543" y="395"/>
      <point x="484" y="324"/>
    </contour>
    <contour>
      <point x="366" y="348" type="curve" smooth="yes"/>
      <point x="458" y="348"/>
      <point x="513" y="409"/>
      <point x="513" y="537" type="curve" smooth="yes"/>
      <point x="513" y="665"/>
      <point x="458" y="726"/>
      <point x="366" y="726" type="curve" smooth="yes"/>
      <point x="275" y="726"/>
      <point x="219" y="665"/>
      <point x="219" y="537" type="curve" smooth="yes"/>
      <point x="219" y="409"/>
      <point x="275" y="348"/>
    </contour>
    <contour>
      <point x="366" y="439" type="curve" smooth="yes"/>
      <point x="331" y="439"/>
      <point x="322" y="472"/>
      <point x="322" y="537" type="curve" smooth="yes"/>
      <point x="322" y="598"/>
      <point x="329" y="633"/>
      <point x="366" y="633" type="curve" smooth="yes"/>
      <point x="403" y="633"/>
      <point x="411" y="601"/>
      <point x="411" y="537" type="curve" smooth="yes"/>
      <point x="411" y="477"/>
      <point x="403" y="439"/>
    </contour>
  </outline>
</glyph>
<glyph name="uni17DA" format="2">
  <advance width="1369"/>
  <unicode hex="17DA"/>
  <note>
uni17DA
</note>
  <outline>
    <contour>
      <point x="343" y="244" type="curve" smooth="yes"/>
      <point x="472" y="244"/>
      <point x="563" y="327"/>
      <point x="643" y="509" type="curve" smooth="yes"/>
      <point x="702" y="644" type="line"/>
      <point x="795" y="279" type="line"/>
      <point x="948" y="279" type="line"/>
      <point x="1013" y="589" type="line"/>
      <point x="1069" y="350" type="line"/>
      <point x="1194" y="350" type="line"/>
      <point x="1245" y="481" type="line"/>
      <point x="1319" y="481" type="line"/>
      <point x="1319" y="588" type="line"/>
      <point x="1186" y="588" type="line"/>
      <point x="1140" y="477" type="line"/>
      <point x="1080" y="740" type="line"/>
      <point x="945" y="740" type="line"/>
      <point x="873" y="434" type="line"/>
      <point x="766" y="793" type="line"/>
      <point x="665" y="793" type="line"/>
      <point x="530" y="536" type="line" smooth="yes"/>
      <point x="465" y="412"/>
      <point x="438" y="361"/>
      <point x="356" y="361" type="curve" smooth="yes"/>
      <point x="276" y="361"/>
      <point x="243" y="448"/>
      <point x="243" y="539" type="curve" smooth="yes"/>
      <point x="243" y="653"/>
      <point x="291" y="713"/>
      <point x="348" y="713" type="curve" smooth="yes"/>
      <point x="381" y="713"/>
      <point x="396" y="698"/>
      <point x="396" y="674" type="curve" smooth="yes"/>
      <point x="396" y="646"/>
      <point x="377" y="632"/>
      <point x="333" y="632" type="curve"/>
      <point x="333" y="532" type="line"/>
      <point x="472" y="532"/>
      <point x="507" y="589"/>
      <point x="507" y="674" type="curve" smooth="yes"/>
      <point x="507" y="765"/>
      <point x="449" y="828"/>
      <point x="330" y="828" type="curve" smooth="yes"/>
      <point x="170" y="828"/>
      <point x="62" y="715"/>
      <point x="62" y="540" type="curve" smooth="yes"/>
      <point x="62" y="361"/>
      <point x="178" y="244"/>
    </contour>
  </outline>
</glyph>
<glyph name="uni17DB" format="2">
  <advance width="415"/>
  <unicode hex="17DB"/>
  <note>
uni17DB
</note>
  <outline>
    <contour>
      <point x="109" y="481" type="line"/>
      <point x="375" y="481" type="line"/>
      <point x="375" y="583" type="line"/>
      <point x="109" y="583" type="line"/>
    </contour>
    <contour>
      <point x="156" y="548" type="line"/>
      <point x="337" y="548" type="line"/>
      <point x="337" y="596" type="line"/>
      <point x="270" y="667" type="line"/>
      <point x="270" y="668" type="line"/>
      <point x="347" y="668" type="line"/>
      <point x="347" y="780" type="line"/>
      <point x="155" y="780" type="line"/>
      <point x="95" y="706"/>
      <point x="71" y="676"/>
      <point x="71" y="661" type="curve" smooth="yes"/>
      <point x="71" y="647"/>
      <point x="99" y="621"/>
      <point x="156" y="567" type="curve"/>
    </contour>
    <contour>
      <point x="337" y="569" type="line"/>
      <point x="156" y="569" type="line"/>
      <point x="156" y="473" type="line"/>
      <point x="103" y="473"/>
      <point x="46" y="432"/>
      <point x="46" y="358" type="curve" smooth="yes"/>
      <point x="46" y="274"/>
      <point x="97" y="244"/>
      <point x="162" y="244" type="curve" smooth="yes"/>
      <point x="237" y="244" type="line" smooth="yes"/>
      <point x="317" y="244"/>
      <point x="337" y="286"/>
      <point x="337" y="353" type="curve" smooth="yes"/>
    </contour>
    <contour>
      <point x="156" y="321" type="line"/>
      <point x="147" y="321"/>
      <point x="128" y="329"/>
      <point x="128" y="359" type="curve" smooth="yes"/>
      <point x="128" y="385"/>
      <point x="148" y="394"/>
      <point x="156" y="395" type="curve"/>
    </contour>
  </outline>
</glyph>
<glyph name="uni17DC" format="2">
  <advance width="724"/>
  <unicode hex="17DC"/>
  <note>
uni17DC
</note>
  <outline>
    <contour>
      <point x="336" y="244" type="curve" smooth="yes"/>
      <point x="510" y="244"/>
      <point x="624" y="335"/>
      <point x="624" y="433" type="curve" smooth="yes"/>
      <point x="624" y="533"/>
      <point x="505" y="568"/>
      <point x="403" y="594" type="curve" smooth="yes"/>
      <point x="322" y="615"/>
      <point x="281" y="623"/>
      <point x="281" y="677" type="curve" smooth="yes"/>
      <point x="281" y="731"/>
      <point x="318" y="752"/>
      <point x="381" y="752" type="curve" smooth="yes"/>
      <point x="416" y="752"/>
      <point x="451" y="744"/>
      <point x="451" y="722" type="curve" smooth="yes"/>
      <point x="451" y="711"/>
      <point x="442" y="704"/>
      <point x="431" y="704" type="curve"/>
      <point x="431" y="612" type="line"/>
      <point x="490" y="612"/>
      <point x="618" y="647"/>
      <point x="618" y="727" type="curve" smooth="yes"/>
      <point x="618" y="793"/>
      <point x="530" y="864"/>
      <point x="371" y="864" type="curve" smooth="yes"/>
      <point x="215" y="864"/>
      <point x="100" y="784"/>
      <point x="100" y="683" type="curve" smooth="yes"/>
      <point x="100" y="585"/>
      <point x="212" y="539"/>
      <point x="323" y="508" type="curve" smooth="yes"/>
      <point x="422" y="480"/>
      <point x="444" y="461"/>
      <point x="444" y="429" type="curve" smooth="yes"/>
      <point x="444" y="385"/>
      <point x="403" y="356"/>
      <point x="336" y="356" type="curve" smooth="yes"/>
      <point x="287" y="356"/>
      <point x="255" y="365"/>
      <point x="255" y="387" type="curve" smooth="yes"/>
      <point x="255" y="399"/>
      <point x="265" y="407"/>
      <point x="284" y="407" type="curve"/>
      <point x="284" y="499" type="line"/>
      <point x="203" y="499"/>
      <point x="100" y="463"/>
      <point x="100" y="382" type="curve" smooth="yes"/>
      <point x="100" y="312"/>
      <point x="177" y="244"/>
    </contour>
  </outline>
</glyph>
<glyph name="uni17E0" format="2">
  <advance width="697"/>
  <unicode hex="17E0"/>
  <note>
uni17E0
</note>
  <outline>
    <contour>
      <point x="348" y="244" type="curve" smooth="yes"/>
      <point x="525" y="244"/>
      <point x="613" y="306"/>
      <point x="613" y="430" type="curve" smooth="yes"/>
      <point x="613" y="644" type="line" smooth="yes"/>
      <point x="613" y="768"/>
      <point x="525" y="830"/>
      <point x="348" y="830" type="curve" smooth="yes"/>
      <point x="172" y="830"/>
      <point x="84" y="768"/>
      <point x="84" y="644" type="curve" smooth="yes"/>
      <point x="84" y="430" type="line" smooth="yes"/>
      <point x="84" y="306"/>
      <point x="172" y="244"/>
    </contour>
    <contour>
      <point x="348" y="356" type="curve" smooth="yes"/>
      <point x="293" y="356"/>
      <point x="265" y="381"/>
      <point x="265" y="430" type="curve" smooth="yes"/>
      <point x="265" y="644" type="line" smooth="yes"/>
      <point x="265" y="693"/>
      <point x="293" y="718"/>
      <point x="348" y="718" type="curve" smooth="yes"/>
      <point x="405" y="718"/>
      <point x="433" y="693"/>
      <point x="433" y="644" type="curve" smooth="yes"/>
      <point x="433" y="430" type="line" smooth="yes"/>
      <point x="433" y="381"/>
      <point x="405" y="356"/>
    </contour>
  </outline>
</glyph>
<glyph name="uni17E1" format="2">
  <advance width="697"/>
  <unicode hex="17E1"/>
  <note>
uni17E1
</note>
  <outline>
    <contour>
      <point x="348" y="244" type="curve" smooth="yes"/>
      <point x="525" y="244"/>
      <point x="613" y="296"/>
      <point x="613" y="400" type="curve" smooth="yes"/>
      <point x="613" y="674" type="line" smooth="yes"/>
      <point x="613" y="778"/>
      <point x="525" y="830"/>
      <point x="348" y="830" type="curve" smooth="yes"/>
      <point x="172" y="830"/>
      <point x="84" y="778"/>
      <point x="84" y="674" type="curve" smooth="yes"/>
      <point x="84" y="615" type="line" smooth="yes"/>
      <point x="84" y="514"/>
      <point x="150" y="496"/>
      <point x="234" y="496" type="curve" smooth="yes"/>
      <point x="348" y="496" type="line"/>
      <point x="348" y="626" type="line"/>
      <point x="304" y="626" type="line" smooth="yes"/>
      <point x="265" y="626"/>
      <point x="265" y="647"/>
      <point x="265" y="665" type="curve" smooth="yes"/>
      <point x="265" y="674" type="line" smooth="yes"/>
      <point x="265" y="703"/>
      <point x="293" y="718"/>
      <point x="348" y="718" type="curve" smooth="yes"/>
      <point x="405" y="718"/>
      <point x="433" y="703"/>
      <point x="433" y="674" type="curve" smooth="yes"/>
      <point x="433" y="400" type="line" smooth="yes"/>
      <point x="433" y="371"/>
      <point x="405" y="356"/>
      <point x="348" y="356" type="curve" smooth="yes"/>
      <point x="293" y="356"/>
      <point x="265" y="372"/>
      <point x="265" y="401" type="curve"/>
      <point x="84" y="401" type="line"/>
      <point x="84" y="297"/>
      <point x="172" y="244"/>
    </contour>
  </outline>
</glyph>
<glyph name="uni17E2" format="2">
  <advance width="889"/>
  <unicode hex="17E2"/>
  <note>
uni17E2
</note>
  <outline>
    <contour>
      <point x="453" y="244" type="curve" smooth="yes"/>
      <point x="688" y="244"/>
      <point x="805" y="309"/>
      <point x="805" y="439" type="curve" smooth="yes"/>
      <point x="805" y="830" type="line"/>
      <point x="624" y="830" type="line"/>
      <point x="566" y="788" type="line"/>
      <point x="513" y="830" type="line"/>
      <point x="327" y="830" type="line"/>
      <point x="327" y="537" type="line"/>
      <point x="527" y="537" type="line"/>
      <point x="527" y="649" type="line"/>
      <point x="513" y="649" type="line"/>
      <point x="513" y="703" type="line"/>
      <point x="566" y="663" type="line"/>
      <point x="624" y="703" type="line"/>
      <point x="624" y="439" type="line" smooth="yes"/>
      <point x="624" y="383"/>
      <point x="568" y="356"/>
      <point x="453" y="356" type="curve" smooth="yes"/>
      <point x="338" y="356"/>
      <point x="280" y="384"/>
      <point x="280" y="439" type="curve" smooth="yes"/>
      <point x="280" y="891" type="line" smooth="yes"/>
      <point x="280" y="928"/>
      <point x="272" y="952"/>
      <point x="221" y="952" type="curve" smooth="yes"/>
      <point x="50" y="952" type="line"/>
      <point x="50" y="840" type="line"/>
      <point x="99" y="840" type="line"/>
      <point x="99" y="439" type="line" smooth="yes"/>
      <point x="99" y="309"/>
      <point x="217" y="244"/>
    </contour>
  </outline>
</glyph>
<glyph name="uni17E3" format="2">
  <advance width="922"/>
  <unicode hex="17E3"/>
  <note>
uni17E3
</note>
  <outline>
    <contour>
      <point x="84" y="244" type="line"/>
      <point x="304" y="244" type="line"/>
      <point x="304" y="356" type="line"/>
      <point x="265" y="356" type="line"/>
      <point x="265" y="667" type="line" smooth="yes"/>
      <point x="265" y="702"/>
      <point x="283" y="718"/>
      <point x="318" y="718" type="curve" smooth="yes"/>
      <point x="353" y="718"/>
      <point x="371" y="702"/>
      <point x="371" y="667" type="curve" smooth="yes"/>
      <point x="371" y="244" type="line"/>
      <point x="551" y="244" type="line"/>
      <point x="551" y="667" type="line" smooth="yes"/>
      <point x="551" y="702"/>
      <point x="569" y="718"/>
      <point x="605" y="718" type="curve" smooth="yes"/>
      <point x="640" y="718"/>
      <point x="658" y="702"/>
      <point x="658" y="667" type="curve" smooth="yes"/>
      <point x="658" y="244" type="line"/>
      <point x="838" y="244" type="line"/>
      <point x="838" y="654" type="line" smooth="yes"/>
      <point x="838" y="771"/>
      <point x="760" y="830"/>
      <point x="605" y="830" type="curve" smooth="yes"/>
      <point x="540" y="830"/>
      <point x="492" y="815"/>
      <point x="461" y="786" type="curve"/>
      <point x="430" y="815"/>
      <point x="382" y="830"/>
      <point x="318" y="830" type="curve" smooth="yes"/>
      <point x="162" y="830"/>
      <point x="84" y="773"/>
      <point x="84" y="659" type="curve" smooth="yes"/>
    </contour>
  </outline>
</glyph>
<glyph name="uni17E4" format="2">
  <advance width="718"/>
  <unicode hex="17E4"/>
  <note>
uni17E4
</note>
  <outline>
    <contour>
      <point x="361" y="244" type="curve" smooth="yes"/>
      <point x="600" y="244" type="line"/>
      <point x="634" y="333" type="line"/>
      <point x="565" y="487" type="line"/>
      <point x="565" y="571" type="line"/>
      <point x="626" y="571" type="line"/>
      <point x="626" y="702" type="line"/>
      <point x="571" y="702" type="line" smooth="yes"/>
      <point x="472" y="702"/>
      <point x="386" y="698"/>
      <point x="386" y="635" type="curve" smooth="yes"/>
      <point x="386" y="463" type="line"/>
      <point x="473" y="356" type="line"/>
      <point x="361" y="356" type="line" smooth="yes"/>
      <point x="306" y="356"/>
      <point x="278" y="384"/>
      <point x="278" y="439" type="curve" smooth="yes"/>
      <point x="278" y="874" type="line" smooth="yes"/>
      <point x="278" y="923"/>
      <point x="256" y="947"/>
      <point x="203" y="947" type="curve" smooth="yes"/>
      <point x="48" y="947" type="line"/>
      <point x="48" y="835" type="line"/>
      <point x="97" y="835" type="line"/>
      <point x="97" y="439" type="line" smooth="yes"/>
      <point x="97" y="309"/>
      <point x="185" y="244"/>
    </contour>
  </outline>
</glyph>
<glyph name="uni17E5" format="2">
  <advance width="681"/>
  <unicode hex="17E5"/>
  <note>
uni17E5
</note>
  <outline>
    <contour>
      <point x="348" y="244" type="curve" smooth="yes"/>
      <point x="586" y="244" type="line"/>
      <point x="621" y="333" type="line"/>
      <point x="554" y="438" type="line"/>
      <point x="554" y="504" type="line"/>
      <point x="613" y="504" type="line"/>
      <point x="613" y="635" type="line"/>
      <point x="465" y="635" type="line" smooth="yes"/>
      <point x="400" y="635"/>
      <point x="373" y="612"/>
      <point x="373" y="537" type="curve" smooth="yes"/>
      <point x="373" y="424" type="line"/>
      <point x="450" y="356" type="line"/>
      <point x="348" y="356" type="line" smooth="yes"/>
      <point x="293" y="356"/>
      <point x="265" y="372"/>
      <point x="265" y="405" type="curve" smooth="yes"/>
      <point x="265" y="614" type="line" smooth="yes"/>
      <point x="265" y="653"/>
      <point x="275" y="684"/>
      <point x="286" y="696" type="curve"/>
      <point x="322" y="679"/>
      <point x="349" y="668"/>
      <point x="400" y="668" type="curve" smooth="yes"/>
      <point x="548" y="668"/>
      <point x="614" y="733"/>
      <point x="614" y="834" type="curve" smooth="yes"/>
      <point x="614" y="948" type="line"/>
      <point x="433" y="948" type="line"/>
      <point x="433" y="813" type="line" smooth="yes"/>
      <point x="433" y="784"/>
      <point x="416" y="773"/>
      <point x="402" y="770" type="curve" smooth="yes"/>
      <point x="390" y="767"/>
      <point x="373" y="769"/>
      <point x="349" y="779" type="curve"/>
      <point x="360" y="796"/>
      <point x="371" y="813"/>
      <point x="371" y="852" type="curve" smooth="yes"/>
      <point x="371" y="899"/>
      <point x="326" y="953"/>
      <point x="251" y="953" type="curve" smooth="yes"/>
      <point x="166" y="953"/>
      <point x="122" y="892"/>
      <point x="122" y="844" type="curve" smooth="yes"/>
      <point x="122" y="802"/>
      <point x="135" y="785"/>
      <point x="151" y="764" type="curve"/>
      <point x="92" y="725"/>
      <point x="84" y="681"/>
      <point x="84" y="614" type="curve" smooth="yes"/>
      <point x="84" y="405" type="line" smooth="yes"/>
      <point x="84" y="298"/>
      <point x="172" y="244"/>
    </contour>
  </outline>
</glyph>
<glyph name="uni17E6" format="2">
  <advance width="698"/>
  <unicode hex="17E6"/>
  <note>
uni17E6
</note>
  <outline>
    <contour>
      <point x="348" y="244" type="curve" smooth="yes"/>
      <point x="525" y="244"/>
      <point x="614" y="309"/>
      <point x="614" y="439" type="curve" smooth="yes"/>
      <point x="614" y="635" type="line" smooth="yes"/>
      <point x="614" y="765"/>
      <point x="525" y="844"/>
      <point x="378" y="844" type="curve" smooth="yes"/>
      <point x="319" y="844"/>
      <point x="281" y="822"/>
      <point x="265" y="804" type="curve"/>
      <point x="265" y="948" type="line"/>
      <point x="84" y="948" type="line"/>
      <point x="84" y="664" type="line"/>
      <point x="265" y="664" type="line"/>
      <point x="274" y="700"/>
      <point x="295" y="718"/>
      <point x="348" y="718" type="curve" smooth="yes"/>
      <point x="403" y="718"/>
      <point x="433" y="688"/>
      <point x="433" y="635" type="curve" smooth="yes"/>
      <point x="433" y="479" type="line" smooth="yes"/>
      <point x="433" y="422"/>
      <point x="405" y="386"/>
      <point x="348" y="386" type="curve" smooth="yes"/>
      <point x="293" y="386"/>
      <point x="265" y="411"/>
      <point x="265" y="447" type="curve" smooth="yes"/>
      <point x="265" y="477"/>
      <point x="277" y="514"/>
      <point x="340" y="514" type="curve" smooth="yes"/>
      <point x="373" y="514" type="line"/>
      <point x="373" y="626" type="line"/>
      <point x="300" y="626" type="line" smooth="yes"/>
      <point x="156" y="626"/>
      <point x="84" y="554"/>
      <point x="84" y="444" type="curve" smooth="yes"/>
      <point x="84" y="333"/>
      <point x="172" y="244"/>
    </contour>
  </outline>
</glyph>
<glyph name="uni17E7" format="2">
  <advance width="889"/>
  <unicode hex="17E7"/>
  <note>
uni17E7
</note>
  <outline>
    <contour>
      <point x="84" y="244" type="line"/>
      <point x="300" y="244" type="line"/>
      <point x="300" y="356" type="line"/>
      <point x="265" y="356" type="line"/>
      <point x="265" y="668" type="line" smooth="yes"/>
      <point x="265" y="682"/>
      <point x="268" y="696"/>
      <point x="277" y="696" type="curve" smooth="yes"/>
      <point x="285" y="696"/>
      <point x="293" y="686"/>
      <point x="309" y="666" type="curve" smooth="yes"/>
      <point x="317" y="656"/>
      <point x="326" y="651"/>
      <point x="336" y="651" type="curve" smooth="yes"/>
      <point x="346" y="651"/>
      <point x="355" y="656"/>
      <point x="364" y="666" type="curve" smooth="yes"/>
      <point x="375" y="678"/>
      <point x="385" y="696"/>
      <point x="395" y="696" type="curve" smooth="yes"/>
      <point x="404" y="696"/>
      <point x="407" y="686"/>
      <point x="407" y="668" type="curve" smooth="yes"/>
      <point x="407" y="386" type="line" smooth="yes"/>
      <point x="407" y="313"/>
      <point x="475" y="244"/>
      <point x="607" y="244" type="curve" smooth="yes"/>
      <point x="738" y="244"/>
      <point x="805" y="311"/>
      <point x="805" y="386" type="curve" smooth="yes"/>
      <point x="805" y="944" type="line"/>
      <point x="624" y="944" type="line"/>
      <point x="624" y="377" type="line" smooth="yes"/>
      <point x="624" y="366"/>
      <point x="620" y="356"/>
      <point x="606" y="356" type="curve" smooth="yes"/>
      <point x="592" y="356"/>
      <point x="588" y="366"/>
      <point x="588" y="377" type="curve" smooth="yes"/>
      <point x="588" y="646" type="line" smooth="yes"/>
      <point x="588" y="789"/>
      <point x="528" y="830"/>
      <point x="461" y="830" type="curve" smooth="yes"/>
      <point x="403" y="830"/>
      <point x="371" y="810"/>
      <point x="336" y="769" type="curve"/>
      <point x="302" y="810"/>
      <point x="270" y="830"/>
      <point x="205" y="830" type="curve" smooth="yes"/>
      <point x="146" y="830"/>
      <point x="84" y="789"/>
      <point x="84" y="663" type="curve" smooth="yes"/>
    </contour>
  </outline>
</glyph>
<glyph name="uni17E8" format="2">
  <advance width="698"/>
  <unicode hex="17E8"/>
  <note>
uni17E8
</note>
  <outline>
    <contour>
      <point x="84" y="244" type="line"/>
      <point x="236" y="244" type="line"/>
      <point x="349" y="327" type="line"/>
      <point x="462" y="244" type="line"/>
      <point x="614" y="244" type="line"/>
      <point x="614" y="545" type="line" smooth="yes"/>
      <point x="614" y="598"/>
      <point x="607" y="630"/>
      <point x="528" y="630" type="curve" smooth="yes"/>
      <point x="383" y="630" type="line"/>
      <point x="383" y="518" type="line"/>
      <point x="408" y="518" type="line" smooth="yes"/>
      <point x="425" y="518"/>
      <point x="433" y="514"/>
      <point x="433" y="488" type="curve" smooth="yes"/>
      <point x="433" y="409" type="line"/>
      <point x="349" y="475" type="line"/>
      <point x="265" y="408" type="line"/>
      <point x="265" y="674" type="line" smooth="yes"/>
      <point x="265" y="703"/>
      <point x="293" y="718"/>
      <point x="348" y="718" type="curve" smooth="yes"/>
      <point x="405" y="718"/>
      <point x="433" y="703"/>
      <point x="433" y="674" type="curve"/>
      <point x="613" y="674" type="line"/>
      <point x="613" y="938" type="line"/>
      <point x="433" y="938" type="line"/>
      <point x="433" y="804" type="line"/>
      <point x="402" y="821"/>
      <point x="357" y="830"/>
      <point x="296" y="830" type="curve" smooth="yes"/>
      <point x="155" y="830"/>
      <point x="84" y="778"/>
      <point x="84" y="674" type="curve" smooth="yes"/>
    </contour>
  </outline>
</glyph>
<glyph name="uni17E9" format="2">
  <advance width="697"/>
  <unicode hex="17E9"/>
  <note>
uni17E9
</note>
  <outline>
    <contour>
      <point x="348" y="244" type="curve" smooth="yes"/>
      <point x="525" y="244"/>
      <point x="603" y="303"/>
      <point x="603" y="387" type="curve" smooth="yes"/>
      <point x="603" y="463"/>
      <point x="557" y="503"/>
      <point x="434" y="503" type="curve" smooth="yes"/>
      <point x="360" y="503" type="line"/>
      <point x="360" y="422" type="line"/>
      <point x="372" y="422" type="line" smooth="yes"/>
      <point x="401" y="422"/>
      <point x="423" y="415"/>
      <point x="423" y="393" type="curve" smooth="yes"/>
      <point x="423" y="365"/>
      <point x="390" y="356"/>
      <point x="340" y="356" type="curve" smooth="yes"/>
      <point x="295" y="356"/>
      <point x="265" y="367"/>
      <point x="265" y="390" type="curve" smooth="yes"/>
      <point x="265" y="478" type="line" smooth="yes"/>
      <point x="265" y="518"/>
      <point x="293" y="533"/>
      <point x="326" y="533" type="curve" smooth="yes"/>
      <point x="495" y="533" type="line"/>
      <point x="495" y="645" type="line"/>
      <point x="302" y="645" type="line" smooth="yes"/>
      <point x="282" y="645"/>
      <point x="263" y="652"/>
      <point x="263" y="679" type="curve" smooth="yes"/>
      <point x="263" y="715"/>
      <point x="302" y="729"/>
      <point x="350" y="729" type="curve" smooth="yes"/>
      <point x="406" y="729"/>
      <point x="423" y="716"/>
      <point x="433" y="704" type="curve"/>
      <point x="613" y="704" type="line"/>
      <point x="613" y="944" type="line"/>
      <point x="433" y="944" type="line"/>
      <point x="433" y="811" type="line"/>
      <point x="416" y="823"/>
      <point x="378" y="840"/>
      <point x="305" y="840" type="curve" smooth="yes"/>
      <point x="158" y="840"/>
      <point x="84" y="781"/>
      <point x="84" y="693" type="curve" smooth="yes"/>
      <point x="84" y="640"/>
      <point x="108" y="607"/>
      <point x="169" y="593" type="curve"/>
      <point x="108" y="579"/>
      <point x="84" y="537"/>
      <point x="84" y="466" type="curve" smooth="yes"/>
      <point x="84" y="405" type="line" smooth="yes"/>
      <point x="84" y="309"/>
      <point x="172" y="244"/>
    </contour>
  </outline>
</glyph>
<glyph name="uni17F0" format="2">
  <advance width="392"/>
  <unicode hex="17F0"/>
  <note>
uni17F0
</note>
  <outline>
    <contour>
      <point x="195" y="237" type="curve" smooth="yes"/>
      <point x="321" y="237"/>
      <point x="364" y="326"/>
      <point x="364" y="415" type="curve" smooth="yes"/>
      <point x="364" y="504"/>
      <point x="321" y="593"/>
      <point x="195" y="593" type="curve" smooth="yes"/>
      <point x="70" y="593"/>
      <point x="28" y="504"/>
      <point x="28" y="415" type="curve" smooth="yes"/>
      <point x="28" y="326"/>
      <point x="70" y="237"/>
    </contour>
    <contour>
      <point x="195" y="348" type="curve" smooth="yes"/>
      <point x="172" y="348"/>
      <point x="155" y="375"/>
      <point x="155" y="415" type="curve" smooth="yes"/>
      <point x="155" y="455"/>
      <point x="172" y="482"/>
      <point x="195" y="482" type="curve" smooth="yes"/>
      <point x="218" y="482"/>
      <point x="234" y="455"/>
      <point x="234" y="415" type="curve" smooth="yes"/>
      <point x="234" y="374"/>
      <point x="218" y="348"/>
    </contour>
  </outline>
</glyph>
<glyph name="uni17F1" format="2">
  <advance width="439"/>
  <unicode hex="17F1"/>
  <note>
uni17F1
</note>
  <outline>
    <contour>
      <point x="12" y="244" type="line"/>
      <point x="142" y="244" type="line"/>
      <point x="219" y="464" type="line"/>
      <point x="297" y="244" type="line"/>
      <point x="427" y="244" type="line"/>
      <point x="309" y="586" type="line"/>
      <point x="129" y="586" type="line"/>
    </contour>
  </outline>
</glyph>
<glyph name="uni17F3" format="2">
  <advance width="767"/>
  <unicode hex="17F3"/>
  <note>
uni17F3
</note>
  <outline>
    <contour>
      <point x="637" y="586" type="line"/>
      <point x="457" y="586" type="line"/>
      <point x="383" y="371" type="line"/>
      <point x="309" y="586" type="line"/>
      <point x="129" y="586" type="line"/>
      <point x="22" y="244" type="line"/>
      <point x="152" y="244" type="line"/>
      <point x="219" y="464" type="line"/>
      <point x="297" y="244" type="line"/>
      <point x="470" y="244" type="line"/>
      <point x="547" y="464" type="line"/>
      <point x="615" y="244" type="line"/>
      <point x="745" y="244" type="line"/>
    </contour>
  </outline>
</glyph>
<glyph name="uni17F4" format="2">
  <advance width="439"/>
  <unicode hex="17F4"/>
  <note>
uni17F4
</note>
  <outline>
    <contour>
      <point x="130" y="244" type="line"/>
      <point x="310" y="244" type="line"/>
      <point x="427" y="586" type="line"/>
      <point x="297" y="586" type="line"/>
      <point x="220" y="366" type="line"/>
      <point x="142" y="586" type="line"/>
      <point x="12" y="586" type="line"/>
    </contour>
  </outline>
</glyph>
<glyph name="uni17F5" format="2">
  <advance width="394"/>
  <unicode hex="17F5"/>
  <note>
uni17F5
</note>
  <outline>
    <contour>
      <point x="196" y="225" type="curve" smooth="yes"/>
      <point x="284" y="225"/>
      <point x="355" y="270"/>
      <point x="355" y="342" type="curve" smooth="yes"/>
      <point x="355" y="379"/>
      <point x="342" y="419"/>
      <point x="266" y="475" type="curve"/>
      <point x="381" y="586" type="line"/>
      <point x="251" y="586" type="line"/>
      <point x="195" y="535" type="line"/>
      <point x="143" y="586" type="line"/>
      <point x="13" y="586" type="line"/>
      <point x="124" y="475" type="line"/>
      <point x="57" y="419"/>
      <point x="36" y="382"/>
      <point x="36" y="342" type="curve" smooth="yes"/>
      <point x="36" y="270"/>
      <point x="108" y="225"/>
    </contour>
    <contour>
      <point x="158" y="342" type="curve" smooth="yes"/>
      <point x="158" y="363"/>
      <point x="170" y="377"/>
      <point x="195" y="406" type="curve"/>
      <point x="220" y="378"/>
      <point x="233" y="363"/>
      <point x="233" y="340" type="curve" smooth="yes"/>
      <point x="233" y="321"/>
      <point x="216" y="309"/>
      <point x="195" y="308" type="curve" smooth="yes"/>
      <point x="174" y="308"/>
      <point x="158" y="321"/>
    </contour>
  </outline>
</glyph>
<glyph name="uni17F7" format="2">
  <advance width="668"/>
  <unicode hex="17F7"/>
  <note>
uni17F7
</note>
  <outline>
    <contour>
      <point x="22" y="244" type="line"/>
      <point x="152" y="244" type="line"/>
      <point x="237" y="465" type="line"/>
      <point x="343" y="244" type="line"/>
      <point x="524" y="244" type="line"/>
      <point x="646" y="586" type="line"/>
      <point x="516" y="586" type="line"/>
      <point x="434" y="368" type="line"/>
      <point x="332" y="586" type="line"/>
      <point x="139" y="586" type="line"/>
    </contour>
  </outline>
</glyph>
<glyph name="uni17F8" format="2">
  <advance width="271"/>
  <unicode hex="17F8"/>
  <note>
uni17F8
</note>
  <outline>
    <contour>
      <point x="12" y="244" type="line"/>
      <point x="140" y="244" type="line"/>
      <point x="259" y="586" type="line"/>
      <point x="129" y="586" type="line"/>
    </contour>
  </outline>
</glyph>
<glyph name="uni17F9" format="2">
  <advance width="420"/>
  <unicode hex="17F9"/>
  <note>
uni17F9
</note>
  <outline>
    <contour>
      <point x="215" y="73" type="line"/>
      <point x="337" y="73"/>
      <point x="400" y="112"/>
      <point x="400" y="186" type="curve" smooth="yes"/>
      <point x="400" y="248"/>
      <point x="348" y="293"/>
      <point x="293" y="293" type="curve" smooth="yes"/>
      <point x="177" y="293" type="line"/>
      <point x="375" y="435" type="line"/>
      <point x="305" y="521" type="line"/>
      <point x="20" y="299" type="line"/>
      <point x="39" y="214" type="line"/>
      <point x="222" y="214" type="line" smooth="yes"/>
      <point x="258" y="214"/>
      <point x="270" y="202"/>
      <point x="270" y="186" type="curve" smooth="yes"/>
      <point x="270" y="164"/>
      <point x="233" y="157"/>
      <point x="215" y="157" type="curve"/>
    </contour>
  </outline>
</glyph>
<glyph name="uni19E0" format="2">
  <advance width="698"/>
  <unicode hex="19E0"/>
  <note>
uni19E0
</note>
  <outline>
    <contour>
      <point x="348" y="458" type="curve" smooth="yes"/>
      <point x="525" y="458"/>
      <point x="613" y="520"/>
      <point x="613" y="644" type="curve" smooth="yes"/>
      <point x="613" y="858" type="line" smooth="yes"/>
      <point x="613" y="982"/>
      <point x="525" y="1044"/>
      <point x="348" y="1044" type="curve" smooth="yes"/>
      <point x="172" y="1044"/>
      <point x="84" y="982"/>
      <point x="84" y="858" type="curve" smooth="yes"/>
      <point x="84" y="644" type="line" smooth="yes"/>
      <point x="84" y="520"/>
      <point x="172" y="458"/>
    </contour>
    <contour>
      <point x="348" y="570" type="curve" smooth="yes"/>
      <point x="293" y="570"/>
      <point x="265" y="595"/>
      <point x="265" y="644" type="curve" smooth="yes"/>
      <point x="265" y="858" type="line" smooth="yes"/>
      <point x="265" y="907"/>
      <point x="293" y="932"/>
      <point x="348" y="932" type="curve" smooth="yes"/>
      <point x="405" y="932"/>
      <point x="433" y="907"/>
      <point x="433" y="858" type="curve" smooth="yes"/>
      <point x="433" y="644" type="line" smooth="yes"/>
      <point x="433" y="595"/>
      <point x="405" y="570"/>
    </contour>
    <contour>
      <point x="84" y="-271" type="line"/>
      <point x="236" y="-271" type="line"/>
      <point x="349" y="-188" type="line"/>
      <point x="462" y="-271" type="line"/>
      <point x="614" y="-271" type="line"/>
      <point x="614" y="30" type="line" smooth="yes"/>
      <point x="614" y="83"/>
      <point x="607" y="115"/>
      <point x="528" y="115" type="curve" smooth="yes"/>
      <point x="383" y="115" type="line"/>
      <point x="383" y="3" type="line"/>
      <point x="408" y="3" type="line" smooth="yes"/>
      <point x="425" y="3"/>
      <point x="433" y="-1"/>
      <point x="433" y="-27" type="curve" smooth="yes"/>
      <point x="433" y="-106" type="line"/>
      <point x="349" y="-40" type="line"/>
      <point x="265" y="-107" type="line"/>
      <point x="265" y="159" type="line" smooth="yes"/>
      <point x="265" y="188"/>
      <point x="293" y="203"/>
      <point x="348" y="203" type="curve" smooth="yes"/>
      <point x="405" y="203"/>
      <point x="433" y="188"/>
      <point x="433" y="159" type="curve"/>
      <point x="613" y="159" type="line"/>
      <point x="613" y="423" type="line"/>
      <point x="433" y="423" type="line"/>
      <point x="433" y="289" type="line"/>
      <point x="402" y="306"/>
      <point x="357" y="315"/>
      <point x="296" y="315" type="curve" smooth="yes"/>
      <point x="155" y="315"/>
      <point x="84" y="263"/>
      <point x="84" y="159" type="curve" smooth="yes"/>
    </contour>
  </outline>
</glyph>
<glyph name="uni19E1" format="2">
  <advance width="667"/>
  <unicode hex="19E1"/>
  <note>
uni19E1
</note>
  <outline>
    <contour>
      <point x="318" y="407" type="curve" smooth="yes"/>
      <point x="495" y="407"/>
      <point x="583" y="459"/>
      <point x="583" y="563" type="curve" smooth="yes"/>
      <point x="583" y="837" type="line" smooth="yes"/>
      <point x="583" y="941"/>
      <point x="495" y="993"/>
      <point x="318" y="993" type="curve" smooth="yes"/>
      <point x="142" y="993"/>
      <point x="54" y="941"/>
      <point x="54" y="837" type="curve" smooth="yes"/>
      <point x="54" y="778" type="line" smooth="yes"/>
      <point x="54" y="677"/>
      <point x="120" y="659"/>
      <point x="204" y="659" type="curve" smooth="yes"/>
      <point x="318" y="659" type="line"/>
      <point x="318" y="789" type="line"/>
      <point x="274" y="789" type="line" smooth="yes"/>
      <point x="235" y="789"/>
      <point x="235" y="810"/>
      <point x="235" y="828" type="curve" smooth="yes"/>
      <point x="235" y="837" type="line" smooth="yes"/>
      <point x="235" y="866"/>
      <point x="263" y="881"/>
      <point x="318" y="881" type="curve" smooth="yes"/>
      <point x="375" y="881"/>
      <point x="403" y="866"/>
      <point x="403" y="837" type="curve" smooth="yes"/>
      <point x="403" y="563" type="line" smooth="yes"/>
      <point x="403" y="534"/>
      <point x="375" y="519"/>
      <point x="318" y="519" type="curve" smooth="yes"/>
      <point x="263" y="519"/>
      <point x="235" y="535"/>
      <point x="235" y="564" type="curve"/>
      <point x="54" y="564" type="line"/>
      <point x="54" y="460"/>
      <point x="142" y="407"/>
    </contour>
    <contour>
      <point x="363" y="-271" type="line"/>
      <point x="544" y="-271" type="line"/>
      <point x="544" y="315" type="line"/>
      <point x="363" y="315" type="line"/>
      <point x="356" y="228"/>
      <point x="314" y="151"/>
      <point x="256" y="151" type="curve" smooth="yes"/>
      <point x="243" y="151"/>
      <point x="235" y="156"/>
      <point x="235" y="168" type="curve" smooth="yes"/>
      <point x="235" y="179"/>
      <point x="242" y="185"/>
      <point x="252" y="185" type="curve" smooth="yes"/>
      <point x="257" y="185" type="line"/>
      <point x="257" y="315" type="line"/>
      <point x="218" y="315" type="line" smooth="yes"/>
      <point x="105" y="315"/>
      <point x="63" y="254"/>
      <point x="63" y="179" type="curve" smooth="yes"/>
      <point x="63" y="82"/>
      <point x="155" y="28"/>
      <point x="222" y="28" type="curve" smooth="yes"/>
      <point x="300" y="28"/>
      <point x="329" y="51"/>
      <point x="363" y="85" type="curve"/>
    </contour>
  </outline>
</glyph>
<glyph name="uni19E2" format="2">
  <advance width="935"/>
  <unicode hex="19E2"/>
  <note>
uni19E2
</note>
  <outline>
    <contour>
      <point x="499" y="348" type="curve" smooth="yes"/>
      <point x="734" y="348"/>
      <point x="851" y="413"/>
      <point x="851" y="543" type="curve" smooth="yes"/>
      <point x="851" y="934" type="line"/>
      <point x="670" y="934" type="line"/>
      <point x="612" y="892" type="line"/>
      <point x="559" y="934" type="line"/>
      <point x="373" y="934" type="line"/>
      <point x="373" y="641" type="line"/>
      <point x="573" y="641" type="line"/>
      <point x="573" y="753" type="line"/>
      <point x="559" y="753" type="line"/>
      <point x="559" y="807" type="line"/>
      <point x="612" y="767" type="line"/>
      <point x="670" y="807" type="line"/>
      <point x="670" y="543" type="line" smooth="yes"/>
      <point x="670" y="487"/>
      <point x="614" y="460"/>
      <point x="499" y="460" type="curve" smooth="yes"/>
      <point x="384" y="460"/>
      <point x="326" y="488"/>
      <point x="326" y="543" type="curve" smooth="yes"/>
      <point x="326" y="995" type="line" smooth="yes"/>
      <point x="326" y="1032"/>
      <point x="318" y="1056"/>
      <point x="267" y="1056" type="curve" smooth="yes"/>
      <point x="96" y="1056" type="line"/>
      <point x="96" y="944" type="line"/>
      <point x="145" y="944" type="line"/>
      <point x="145" y="543" type="line" smooth="yes"/>
      <point x="145" y="413"/>
      <point x="263" y="348"/>
    </contour>
    <contour>
      <point x="528" y="-271" type="line"/>
      <point x="709" y="-271" type="line"/>
      <point x="709" y="315" type="line"/>
      <point x="528" y="315" type="line"/>
      <point x="521" y="228"/>
      <point x="479" y="151"/>
      <point x="421" y="151" type="curve" smooth="yes"/>
      <point x="408" y="151"/>
      <point x="400" y="156"/>
      <point x="400" y="168" type="curve" smooth="yes"/>
      <point x="400" y="179"/>
      <point x="407" y="185"/>
      <point x="417" y="185" type="curve" smooth="yes"/>
      <point x="422" y="185" type="line"/>
      <point x="422" y="315" type="line"/>
      <point x="383" y="315" type="line" smooth="yes"/>
      <point x="270" y="315"/>
      <point x="228" y="254"/>
      <point x="228" y="179" type="curve" smooth="yes"/>
      <point x="228" y="82"/>
      <point x="320" y="28"/>
      <point x="387" y="28" type="curve" smooth="yes"/>
      <point x="465" y="28"/>
      <point x="494" y="51"/>
      <point x="528" y="85" type="curve"/>
    </contour>
  </outline>
</glyph>
<glyph name="uni19E3" format="2">
  <advance width="922"/>
  <unicode hex="19E3"/>
  <note>
uni19E3
</note>
  <outline>
    <contour>
      <point x="84" y="408" type="line"/>
      <point x="304" y="408" type="line"/>
      <point x="304" y="520" type="line"/>
      <point x="265" y="520" type="line"/>
      <point x="265" y="831" type="line" smooth="yes"/>
      <point x="265" y="866"/>
      <point x="283" y="882"/>
      <point x="318" y="882" type="curve" smooth="yes"/>
      <point x="353" y="882"/>
      <point x="371" y="866"/>
      <point x="371" y="831" type="curve" smooth="yes"/>
      <point x="371" y="408" type="line"/>
      <point x="551" y="408" type="line"/>
      <point x="551" y="831" type="line" smooth="yes"/>
      <point x="551" y="866"/>
      <point x="569" y="882"/>
      <point x="605" y="882" type="curve" smooth="yes"/>
      <point x="640" y="882"/>
      <point x="658" y="866"/>
      <point x="658" y="831" type="curve" smooth="yes"/>
      <point x="658" y="408" type="line"/>
      <point x="838" y="408" type="line"/>
      <point x="838" y="818" type="line" smooth="yes"/>
      <point x="838" y="935"/>
      <point x="760" y="994"/>
      <point x="605" y="994" type="curve" smooth="yes"/>
      <point x="540" y="994"/>
      <point x="492" y="979"/>
      <point x="461" y="950" type="curve"/>
      <point x="430" y="979"/>
      <point x="382" y="994"/>
      <point x="318" y="994" type="curve" smooth="yes"/>
      <point x="162" y="994"/>
      <point x="84" y="937"/>
      <point x="84" y="823" type="curve" smooth="yes"/>
    </contour>
    <contour>
      <point x="491" y="-271" type="line"/>
      <point x="672" y="-271" type="line"/>
      <point x="672" y="315" type="line"/>
      <point x="491" y="315" type="line"/>
      <point x="484" y="228"/>
      <point x="442" y="151"/>
      <point x="384" y="151" type="curve" smooth="yes"/>
      <point x="371" y="151"/>
      <point x="363" y="156"/>
      <point x="363" y="168" type="curve" smooth="yes"/>
      <point x="363" y="179"/>
      <point x="370" y="185"/>
      <point x="380" y="185" type="curve" smooth="yes"/>
      <point x="385" y="185" type="line"/>
      <point x="385" y="315" type="line"/>
      <point x="346" y="315" type="line" smooth="yes"/>
      <point x="233" y="315"/>
      <point x="191" y="254"/>
      <point x="191" y="179" type="curve" smooth="yes"/>
      <point x="191" y="82"/>
      <point x="283" y="28"/>
      <point x="350" y="28" type="curve" smooth="yes"/>
      <point x="428" y="28"/>
      <point x="457" y="51"/>
      <point x="491" y="85" type="curve"/>
    </contour>
  </outline>
</glyph>
